<?xml version="1.0" encoding="utf-8"?>
<!-- Generator: Adobe Illustrator 28.2.0, SVG Export Plug-In . SVG Version: 6.00 Build 0)  -->
<svg version="1.1" id="Layer_1" xmlns="http://www.w3.org/2000/svg" xmlns:xlink="http://www.w3.org/1999/xlink" x="0px" y="0px"
	 viewBox="0 0 72 72" style="enable-background:new 0 0 72 72;" xml:space="preserve">
<style type="text/css">
	.st0{fill:#EE3441;}
	.st1{fill:#FFFFFF;}
</style>
<g>
	<circle class="st0" cx="36" cy="36" r="31.5"/>
</g>
<path class="st1" d="M29.7,37.2h-3.1c-4.6,0-8.4,3.7-8.4,8.4s3.7,8.4,8.4,8.4s8.4-3.7,8.4-8.4v-3.1c0-4,3.3-7.3,7.3-7.3h3.1
	c4.6,0,8.4-3.7,8.4-8.4s-3.7-8.4-8.4-8.4S37,22.1,37,26.7v3.1C37,33.9,33.8,37.2,29.7,37.2z"/>
<path class="st1" d="M53,49.6c-0.7,1.6-2,2.9-3.6,3.6c-3.6,1.6-7,0.6-9.2-1.6C38.8,50.1,38,48.2,38,46v-6.5c0-0.7,0.6-1.4,1.4-1.4
	h6.5c2.1,0,4.1,0.9,5.5,2.2C53.6,42.5,54.6,46,53,49.6z"/>
<path class="st1" d="M26.1,34.2h6.3c1,0,1.6-0.6,1.6-1.6v-6.4c0-2.1-0.8-4-2.2-5.5c-1.5-1.6-3.5-2.4-5.7-2.4c-1.3,0-2.6,0.3-3.8,0.9
	c-1.4,0.7-2.5,1.8-3.2,3.2c-1.6,3.3-1,7.1,1.5,9.5C22.1,33.4,24,34.2,26.1,34.2z M20.8,23.3c0.5-1,1.3-1.8,2.3-2.3
	c3.1-1.5,5.8-0.4,7.3,1.1c1.1,1.1,1.7,2.6,1.7,4.2v5.6c0,0.2-0.2,0.4-0.4,0.4h-5.6c-1.6,0-3.1-0.6-4.2-1.7
	C20.4,29.1,19.3,26.4,20.8,23.3z"/>
</svg>
