<?xml version="1.0" encoding="utf-8"?>
<!-- Generator: Adobe Illustrator 28.2.0, SVG Export Plug-In . SVG Version: 6.00 Build 0)  -->
<svg version="1.1" id="Layer_1" xmlns="http://www.w3.org/2000/svg" xmlns:xlink="http://www.w3.org/1999/xlink" x="0px" y="0px"
	 viewBox="0 0 20 16" style="enable-background:new 0 0 20 16;" xml:space="preserve">
<style type="text/css">
	.st0{fill:#EF3340;}
</style>
<g>
	<path class="st0" d="M7.6,1c1.7,0,3.5,0,5.2,0c0.7,0,1.4,0.2,1.8,0.8c0.3,0.4,0.5,0.9,0.5,1.4c0,1,0,2.1,0,3.1
		c0,1.3-0.9,2.3-2.2,2.3c-0.9,0-1.7,0-2.6,0C9.3,8.6,8.5,8,8.2,7c0-0.1-0.1-0.3-0.2-0.4C7.9,6.4,7.8,6.2,7.6,6.2
		c-0.2,0-0.4,0.1-0.5,0.3C7,6.8,7,6.9,6.9,7.1C6.6,8,6,8.5,5.1,8.6C4,8.7,3,8.6,1.9,8.6C0.8,8.5,0,7.6,0,6.5s0-2.2,0-3.3
		C0,1.9,1,1,2.3,1C4.1,1,5.8,1,7.6,1z"/>
	<path class="st0" d="M17.9,5.4c0.7,0,1.4,0,2.1,0c0,0.1,0,0.1,0,0.2c0,1.9,0,3.7,0,5.6c0,1.6-0.6,3-2,4c-2.7,1.9-6.6,0.7-7.4-3
		c-0.2-0.7,0.1-1.2,0.6-1.4c0.6-0.2,1.3,0.2,1.4,0.8c0.2,1.4,1.4,2.4,2.8,2.3c1.5-0.1,2.5-1.2,2.5-2.7c0-1.8,0-3.7,0-5.5
		C17.9,5.6,17.9,5.5,17.9,5.4z"/>
	<path class="st0" d="M20,4.2c-0.7,0-1.4,0-2.1,0c0-0.1,0-0.2,0-0.3c0-1,0-1.9,0-2.9c0-0.6,0.4-1,1.1-1c0.6,0,1,0.5,1,1.1
		C20,2.1,20,3.2,20,4.2z"/>
</g>
</svg>
