<?xml version="1.0" encoding="utf-8"?>
<!-- Generator: Adobe Illustrator 28.2.0, SVG Export Plug-In . SVG Version: 6.00 Build 0)  -->
<svg version="1.1" id="Layer_1" xmlns="http://www.w3.org/2000/svg" xmlns:xlink="http://www.w3.org/1999/xlink" x="0px" y="0px"
	 viewBox="0 0 207 67.5" style="enable-background:new 0 0 207 67.5;" xml:space="preserve">
<style type="text/css">
	.st0{fill:#E1E66B;}
	.st1{fill:#1C1F2A;}
</style>
<path class="st0" d="M193.4,63H13.6c-5,0-9.1-4.1-9.1-9.1V13.6c0-5,4.1-9.1,9.1-9.1h179.8c5,0,9.1,4.1,9.1,9.1v40.3
	C202.5,58.9,198.4,63,193.4,63z"/>
<g>
	<g>
		<path class="st1" d="M73.1,28.2c0,5.8-3.1,8.7-9.4,8.7h-4.6v7.9c0,0.2-0.1,0.3-0.2,0.4c-0.1,0.1-0.2,0.2-0.4,0.2h-3.9
			c-0.2,0-0.3-0.1-0.4-0.2C54.1,45.1,54,45,54,44.8V20c0-0.2,0.1-0.3,0.2-0.4c0.1-0.1,0.2-0.2,0.4-0.2h9.1c3.3,0,5.6,0.7,7.2,2.2
			C72.3,23.2,73.1,25.3,73.1,28.2z M68.2,28.2c0-1.5-0.4-2.6-1.2-3.3c-0.8-0.6-2-0.9-3.6-0.9h-4.3v8.4h4.3c1.6,0,2.8-0.3,3.6-1
			S68.2,29.7,68.2,28.2z"/>
		<path class="st1" d="M93.5,43.4V44c0,0.6-0.2,1-0.6,1.3c-0.4,0.2-1,0.4-1.6,0.4c-1,0-1.8-0.3-2.5-0.9s-1-1.4-1-2.5v-0.4h-0.3
			c-0.4,1.1-1.1,2.1-2.2,2.8s-2.5,1.2-4.2,1.2h-1c-1.9,0-3.4-0.5-4.5-1.5c-1.1-1-1.6-2.4-1.6-4.2c0-1.7,0.5-3,1.5-3.9
			c1-1,2.5-1.5,4.6-1.6l7.3-0.5v-1c0-0.9-0.1-1.5-0.4-2s-0.6-0.8-1.2-1c-0.6-0.2-1.3-0.3-2.3-0.3c-1.3,0-2.2,0.2-2.8,0.5
			c-0.6,0.3-1,0.8-1.1,1.6c0,0.3-0.2,0.4-0.5,0.4h-3.5c-0.2,0-0.3,0-0.4-0.1c-0.1-0.1-0.1-0.2-0.1-0.4c0.1-3.9,3-5.8,8.6-5.8
			c2.1,0,3.8,0.3,5.1,0.8c1.3,0.5,2.1,1.4,2.7,2.4s0.8,2.5,0.8,4.2v6.5c0,0.7,0.1,1.2,0.2,1.5c0.1,0.3,0.3,0.5,0.6,0.7
			c0.3,0.2,0.5,0.4,0.6,0.6C93.5,42.8,93.5,43,93.5,43.4z M86.6,40.4c0.5-0.6,0.7-1.3,0.7-2.1v-1.1l-6.1,0.4
			c-1.7,0.1-2.5,0.9-2.5,2.2c0,1.5,1,2.3,3.1,2.3h0.6c0.9,0,1.7-0.1,2.4-0.4C85.5,41.5,86.1,41,86.6,40.4z"/>
		<path class="st1" d="M123.8,43.4V44c0,0.6-0.2,1-0.6,1.3c-0.4,0.2-1,0.4-1.6,0.4c-1,0-1.8-0.3-2.5-0.9c-0.7-0.6-1-1.4-1-2.5v-0.4
			h-0.3c-0.4,1.1-1.1,2.1-2.2,2.8c-1.1,0.8-2.5,1.2-4.2,1.2h-1c-1.9,0-3.4-0.5-4.5-1.5s-1.6-2.4-1.6-4.2c0-1.7,0.5-3,1.5-3.9
			c1-1,2.5-1.5,4.6-1.6l7.3-0.5v-1c0-0.9-0.1-1.5-0.4-2s-0.6-0.8-1.2-1c-0.6-0.2-1.3-0.3-2.3-0.3c-1.3,0-2.2,0.2-2.8,0.5
			c-0.6,0.3-1,0.8-1.1,1.6c0,0.3-0.2,0.4-0.5,0.4h-3.5c-0.2,0-0.3,0-0.4-0.1c-0.1-0.1-0.1-0.2-0.1-0.4c0.1-3.9,3-5.8,8.6-5.8
			c2.1,0,3.8,0.3,5.1,0.8c1.3,0.5,2.1,1.4,2.7,2.4s0.8,2.5,0.8,4.2v6.5c0,0.7,0.1,1.2,0.2,1.5c0.1,0.3,0.3,0.5,0.6,0.7
			c0.3,0.2,0.5,0.4,0.6,0.6C123.8,42.8,123.8,43,123.8,43.4z M116.9,40.4c0.5-0.6,0.7-1.3,0.7-2.1v-1.1l-6.1,0.4
			c-1.7,0.1-2.5,0.9-2.5,2.2c0,1.5,1,2.3,3.1,2.3h0.6c0.9,0,1.7-0.1,2.4-0.4S116.4,41,116.9,40.4z"/>
		<path class="st1" d="M145.7,26.9l-3.4,18c0,0.1-0.1,0.3-0.2,0.3c-0.1,0.1-0.3,0.1-0.5,0.1H138c-0.2,0-0.3,0-0.4-0.1
			c-0.1-0.1-0.2-0.2-0.3-0.3L135,33.1l-2.2,11.8c0,0.1-0.1,0.3-0.3,0.3c-0.1,0.1-0.3,0.1-0.4,0.1h-3.6c-0.2,0-0.3,0-0.5-0.1
			c-0.1-0.1-0.2-0.2-0.2-0.3l-3.4-18c0-0.1,0-0.1,0-0.2c0-0.3,0.2-0.4,0.5-0.4h3.1c0.2,0,0.3,0,0.5,0.1c0.1,0.1,0.2,0.2,0.2,0.3
			l1.9,13l2.6-12.9c0-0.1,0.1-0.3,0.2-0.3c0.1-0.1,0.3-0.1,0.5-0.1h2.3c0.2,0,0.3,0,0.5,0.1c0.1,0.1,0.2,0.2,0.2,0.3l2.6,12.9
			l1.9-13c0-0.1,0.1-0.3,0.2-0.3c0.1-0.1,0.3-0.1,0.5-0.1h3.1c0.3,0,0.5,0.1,0.5,0.4C145.7,26.8,145.7,26.8,145.7,26.9z"/>
		<path class="st1" d="M166.1,43.4V44c0,0.6-0.2,1-0.6,1.3c-0.4,0.2-1,0.4-1.6,0.4c-1,0-1.8-0.3-2.5-0.9c-0.7-0.6-1-1.4-1-2.5v-0.4
			H160c-0.4,1.1-1.1,2.1-2.2,2.8c-1.1,0.8-2.5,1.2-4.2,1.2h-1c-1.9,0-3.4-0.5-4.5-1.5c-1.1-1-1.6-2.4-1.6-4.2c0-1.7,0.5-3,1.5-3.9
			c1-1,2.5-1.5,4.6-1.6l7.3-0.5v-1c0-0.9-0.1-1.5-0.4-2c-0.2-0.5-0.6-0.8-1.2-1c-0.6-0.2-1.3-0.3-2.3-0.3c-1.3,0-2.2,0.2-2.8,0.5
			c-0.6,0.3-1,0.8-1.1,1.6c0,0.3-0.2,0.4-0.5,0.4H148c-0.2,0-0.3,0-0.4-0.1c-0.1-0.1-0.1-0.2-0.1-0.4c0.1-3.9,3-5.8,8.6-5.8
			c2.1,0,3.8,0.3,5.1,0.8c1.3,0.5,2.1,1.4,2.7,2.4s0.8,2.5,0.8,4.2v6.5c0,0.7,0.1,1.2,0.2,1.5c0.1,0.3,0.3,0.5,0.6,0.7
			c0.3,0.2,0.5,0.4,0.6,0.6S166.1,43,166.1,43.4z M159.1,40.4c0.5-0.6,0.7-1.3,0.7-2.1v-1.1l-6.1,0.4c-1.7,0.1-2.5,0.9-2.5,2.2
			c0,1.5,1,2.3,3.1,2.3h0.6c0.9,0,1.7-0.1,2.4-0.4S158.7,41,159.1,40.4z"/>
		<path class="st1" d="M185.7,29.6c0.6,1.2,0.9,2.7,0.9,4.3v10.9c0,0.2-0.1,0.3-0.2,0.4c-0.1,0.1-0.2,0.2-0.4,0.2h-3.7
			c-0.2,0-0.3-0.1-0.4-0.2c-0.1-0.1-0.2-0.2-0.2-0.4v-10c0-1.4-0.4-2.5-1.1-3.3s-1.8-1.2-3.1-1.2c-1.3,0-2.4,0.4-3.1,1.2
			s-1.1,1.9-1.1,3.3v10c0,0.2-0.1,0.3-0.2,0.4c-0.1,0.1-0.2,0.2-0.4,0.2h-3.7c-0.2,0-0.3-0.1-0.4-0.2c-0.1-0.1-0.2-0.2-0.2-0.4v-18
			c0-0.2,0.1-0.3,0.2-0.4c0.1-0.1,0.2-0.2,0.4-0.2h3.6c0.2,0,0.3,0.1,0.4,0.2c0.1,0.1,0.2,0.2,0.2,0.4l0.2,2.8h0.6
			c0.5-1.1,1.2-2,2.2-2.7c1-0.7,2.2-1,3.6-1c1.4,0,2.6,0.3,3.6,1C184.3,27.4,185.1,28.4,185.7,29.6z"/>
	</g>
	<path class="st1" d="M101.4,40.6v4.2c0,0.2-0.1,0.3-0.2,0.4c-0.1,0.1-0.2,0.2-0.4,0.2l-0.2,0h-3.5c-0.2,0-0.3-0.1-0.4-0.2
		c-0.1-0.1-0.2-0.2-0.2-0.4V25.4l0-2.3v-4.2c0-0.2,0.1-0.3,0.2-0.4c0.1-0.1,0.2-0.2,0.4-0.2l0.2,0h3.5c0.2,0,0.3,0.1,0.4,0.2
		c0.1,0.1,0.2,0.2,0.2,0.4v19.4L101.4,40.6z"/>
</g>
<path class="st1" d="M34.6,18.9c-2.6-1-5.5-1-8.1,0c-5.7,2.2-8.6,7.2-8.5,12.2c0,3.2,1.3,6.3,3.7,8.7l7.3,7.4c0.8,0.8,2.2,0.8,3,0
	l7.3-7.4c2.4-2.4,3.6-5.6,3.7-8.7C43.1,26.2,40.3,21.2,34.6,18.9z M30.5,33.9c-2.1,0-3.7-1.7-3.7-3.7s1.7-3.7,3.7-3.7
	c2.1,0,3.7,1.7,3.7,3.7S32.6,33.9,30.5,33.9z"/>
</svg>
