<?xml version="1.0" encoding="utf-8"?>
<!-- Generator: Adobe Illustrator 28.2.0, SVG Export Plug-In . SVG Version: 6.00 Build 0)  -->
<svg version="1.1" id="Layer_1" xmlns="http://www.w3.org/2000/svg" xmlns:xlink="http://www.w3.org/1999/xlink" x="0px" y="0px"
	 viewBox="0 0 337.5 67.5" style="enable-background:new 0 0 337.5 67.5;" xml:space="preserve">
<style type="text/css">
	.st0{fill:#EF3340;}
	.st1{fill:#FFFFFF;}
</style>
<g>
	<path class="st0" d="M323.9,63H13.6c-5,0-9.1-4.1-9.1-9.1V13.6c0-5,4.1-9.1,9.1-9.1h310.3c5,0,9.1,4.1,9.1,9.1v40.3
		C333,58.9,328.9,63,323.9,63z"/>
	<path class="st1" d="M34.6,18.9c-2.6-1-5.5-1-8.1,0c-5.7,2.2-8.6,7.2-8.5,12.2c0,3.2,1.3,6.3,3.7,8.7l7.3,7.4c0.8,0.8,2.2,0.8,3,0
		l7.3-7.4c2.4-2.4,3.6-5.6,3.7-8.7C43.1,26.2,40.3,21.2,34.6,18.9z M30.5,33.9c-2.1,0-3.7-1.7-3.7-3.7s1.7-3.7,3.7-3.7
		c2.1,0,3.7,1.7,3.7,3.7S32.6,33.9,30.5,33.9z"/>
	<path class="st1" d="M250.1,41.7V46c0,0.2-0.1,0.3-0.2,0.4c-0.1,0.1-0.3,0.2-0.4,0.2l-0.2,0h-3.6c-0.2,0-0.3-0.1-0.4-0.2
		c-0.1-0.1-0.2-0.3-0.2-0.4V26.2l0-2.4v-4.3c0-0.2,0.1-0.3,0.2-0.4c0.1-0.1,0.3-0.2,0.4-0.2l0.2,0h3.6c0.2,0,0.3,0.1,0.4,0.2
		c0.1,0.1,0.2,0.3,0.2,0.4v19.8L250.1,41.7z"/>
	<path class="st1" d="M81.4,41.6v4.3c0,0.2-0.1,0.3-0.2,0.4c-0.1,0.1-0.3,0.2-0.4,0.2l-0.2,0H77c-0.2,0-0.3-0.1-0.4-0.2
		c-0.1-0.1-0.2-0.3-0.2-0.4V34.2l0-2.4v-4.3c0-0.2,0.1-0.3,0.2-0.4C76.7,27,76.8,27,77,27l0.2,0h3.6c0.2,0,0.3,0.1,0.4,0.2
		c0.1,0.1,0.2,0.3,0.2,0.4v11.7L81.4,41.6z"/>
	<path class="st1" d="M54,39.3c0-0.2,0-0.4,0.1-0.5c0.1-0.1,0.2-0.2,0.4-0.2h3.7c0.3,0,0.5,0.2,0.6,0.6c0.2,1.1,0.7,1.9,1.6,2.5
		c0.9,0.6,2.1,0.9,3.6,0.9c1.5,0,2.7-0.3,3.6-0.8c0.9-0.5,1.3-1.4,1.3-2.6c0-0.6-0.2-1.2-0.5-1.7c-0.3-0.5-0.9-0.9-1.7-1.2
		c-0.8-0.4-1.9-0.7-3.3-1c-1.8-0.4-3.3-0.9-4.6-1.5c-1.3-0.6-2.4-1.5-3.2-2.6c-0.8-1.1-1.2-2.5-1.2-4.2c0-1.5,0.3-2.8,1-3.9
		c0.7-1.1,1.8-2,3.2-2.6c1.4-0.6,3.2-0.9,5.3-0.9c2.8,0,5,0.6,6.5,1.8c1.6,1.2,2.5,3.1,2.7,5.6c0,0.2,0,0.4-0.1,0.5
		c-0.1,0.1-0.2,0.2-0.4,0.2h-3.4c-0.3,0-0.5-0.2-0.6-0.6c-0.2-1-0.7-1.7-1.5-2.2c-0.8-0.5-1.9-0.8-3.3-0.8c-1.4,0-2.5,0.3-3.3,0.8
		c-0.7,0.5-1.1,1.3-1.1,2.3c0,0.6,0.1,1.1,0.4,1.5c0.3,0.4,0.8,0.9,1.6,1.2c0.8,0.4,1.8,0.7,3.2,1c2,0.4,3.6,0.9,4.8,1.4
		c1.3,0.5,2.3,1.3,3.1,2.4c0.8,1.1,1.2,2.5,1.2,4.4c0,2.6-0.9,4.5-2.6,5.9c-1.7,1.4-4.3,2-7.6,2c-3,0-5.4-0.6-7-1.9
		C55.1,44,54.2,42,54,39.3z"/>
	<path class="st1" d="M76,20.9c-0.3-0.4-0.4-0.9-0.4-1.5s0.1-1,0.4-1.5c0.3-0.5,0.6-0.8,1.1-1.1c0.5-0.3,1-0.4,1.5-0.4
		c0.5,0,1,0.1,1.5,0.4c0.5,0.3,0.8,0.6,1.1,1.1c0.3,0.5,0.4,1,0.4,1.5s-0.1,1-0.4,1.5c-0.3,0.4-0.6,0.8-1.1,1.1
		c-0.5,0.3-1,0.4-1.5,0.4c-0.5,0-1-0.1-1.5-0.4C76.6,21.7,76.2,21.3,76,20.9z"/>
	<path class="st1" d="M103.9,44.5v0.7c0,0.6-0.2,1.1-0.7,1.3c-0.4,0.3-1,0.4-1.6,0.4c-1,0-1.9-0.3-2.6-0.9c-0.7-0.6-1-1.4-1-2.6V43
		h-0.3c-0.4,1.1-1.1,2.1-2.3,2.9c-1.1,0.8-2.5,1.2-4.3,1.2h-1c-2,0-3.5-0.5-4.6-1.5c-1.1-1-1.7-2.5-1.7-4.3c0-1.7,0.5-3,1.5-4
		c1-1,2.6-1.5,4.7-1.7l7.5-0.5v-1c0-0.9-0.1-1.6-0.4-2c-0.2-0.5-0.6-0.8-1.2-1c-0.6-0.2-1.4-0.3-2.4-0.3c-1.3,0-2.2,0.2-2.9,0.5
		c-0.6,0.3-1,0.9-1.1,1.6c0,0.3-0.2,0.4-0.6,0.4h-3.6c-0.2,0-0.3,0-0.4-0.1c-0.1-0.1-0.2-0.2-0.1-0.4c0.1-4,3-5.9,8.8-5.9
		c2.2,0,3.9,0.3,5.2,0.8c1.3,0.6,2.2,1.4,2.7,2.5c0.6,1.1,0.8,2.5,0.8,4.3v6.7c0,0.7,0.1,1.3,0.2,1.6c0.1,0.3,0.3,0.6,0.6,0.8
		c0.3,0.2,0.5,0.4,0.6,0.6S103.9,44.1,103.9,44.5z M96.8,41.5c0.5-0.6,0.7-1.3,0.7-2.2v-1.2l-6.2,0.5c-1.7,0.1-2.6,0.9-2.6,2.3
		c0,1.6,1.1,2.4,3.2,2.4h0.6c0.9,0,1.7-0.1,2.5-0.4S96.3,42.1,96.8,41.5z"/>
	<path class="st1" d="M124.5,30c0.6,1,0.9,2.2,0.9,3.5c0,0.9-0.2,1.6-0.5,2c-0.3,0.4-0.7,0.6-1.3,0.6h-2.2c-0.3,0-0.5-0.1-0.6-0.2
		c-0.2-0.1-0.2-0.3-0.2-0.6c-0.1-1.5-0.5-2.5-1.3-3.1c-0.8-0.6-1.8-0.9-3-0.9c-1.5,0-2.8,0.5-3.6,1.5c-0.9,1-1.3,2.5-1.3,4.5v8.8
		c0,0.2-0.1,0.3-0.2,0.4c-0.1,0.1-0.3,0.2-0.4,0.2H107c-0.2,0-0.3-0.1-0.4-0.2c-0.1-0.1-0.2-0.3-0.2-0.4V27.5c0-0.2,0.1-0.3,0.2-0.4
		s0.3-0.2,0.4-0.2h3.6c0.2,0,0.3,0.1,0.4,0.2c0.1,0.1,0.2,0.3,0.2,0.4l0.2,3.4h0.7c0.5-1.3,1.3-2.4,2.4-3.2c1.1-0.8,2.5-1.2,4.1-1.2
		c1.4,0,2.6,0.3,3.6,0.9C123.2,28.1,124,28.9,124.5,30z"/>
	<path class="st1" d="M146.6,27.5v17.8c0,2.3-0.5,4.1-1.6,5.4c-1,1.3-2.4,2.3-3.9,2.8c-1.6,0.5-3.3,0.8-5.2,0.8
		c-1.5,0-2.8-0.1-4.1-0.4c-1.3-0.3-2.4-0.7-3.2-1.3c-0.2-0.1-0.3-0.3-0.3-0.5c0-0.1,0-0.2,0.1-0.3l0.9-2.5c0.1-0.2,0.2-0.4,0.5-0.4
		c0.1,0,0.2,0,0.3,0c0.9,0.4,1.7,0.7,2.6,0.9c0.9,0.2,1.8,0.3,2.8,0.3c1.9,0,3.4-0.4,4.6-1.1c1.2-0.7,1.8-2,1.8-3.9v-3.5h-0.6
		c-0.4,1.2-1.1,2.1-2.3,2.8c-1.1,0.7-2.5,1-4,1c-1.6,0-3.1-0.4-4.4-1.2c-1.3-0.8-2.2-1.9-2.9-3.3c-0.7-1.4-1-3-1-4.7
		c0-1.8,0.4-3.5,1.1-5c0.8-1.5,1.8-2.6,3.2-3.5c1.4-0.8,2.9-1.2,4.6-1.2c1.3,0,2.5,0.3,3.6,0.8c1,0.5,1.9,1.2,2.6,2.1l0.1-1.9
		c0-0.2,0.1-0.3,0.2-0.4s0.2-0.2,0.4-0.2h3.5c0.2,0,0.3,0.1,0.4,0.2C146.5,27.2,146.6,27.4,146.6,27.5z M141,38.8
		c0.4-0.8,0.6-1.7,0.6-2.7c0-1-0.2-1.9-0.6-2.7c-0.4-0.8-1-1.4-1.8-1.8s-1.6-0.6-2.6-0.6c-1,0-1.8,0.2-2.6,0.6
		c-0.8,0.4-1.4,1-1.8,1.8c-0.4,0.8-0.6,1.6-0.6,2.7c0,1,0.2,1.9,0.6,2.7c0.4,0.8,1,1.4,1.8,1.8c0.8,0.4,1.6,0.6,2.6,0.6
		c1,0,1.8-0.2,2.6-0.6C139.9,40.2,140.5,39.6,141,38.8z"/>
	<path class="st1" d="M168.9,44.5v0.7c0,0.6-0.2,1.1-0.7,1.3s-1,0.4-1.6,0.4c-1,0-1.9-0.3-2.6-0.9c-0.7-0.6-1-1.4-1-2.6V43h-0.3
		c-0.4,1.1-1.1,2.1-2.3,2.9c-1.1,0.8-2.5,1.2-4.3,1.2h-1c-2,0-3.5-0.5-4.6-1.5c-1.1-1-1.7-2.5-1.7-4.3c0-1.7,0.5-3,1.5-4
		c1-1,2.6-1.5,4.7-1.7l7.5-0.5v-1c0-0.9-0.1-1.6-0.4-2c-0.2-0.5-0.6-0.8-1.2-1c-0.6-0.2-1.4-0.3-2.4-0.3c-1.3,0-2.2,0.2-2.9,0.5
		c-0.6,0.3-1,0.9-1.1,1.6c0,0.3-0.2,0.4-0.6,0.4h-3.6c-0.2,0-0.3,0-0.4-0.1c-0.1-0.1-0.2-0.2-0.1-0.4c0.1-4,3-5.9,8.8-5.9
		c2.2,0,3.9,0.3,5.2,0.8c1.3,0.6,2.2,1.4,2.7,2.5c0.6,1.1,0.8,2.5,0.8,4.3v6.7c0,0.7,0.1,1.3,0.2,1.6c0.1,0.3,0.3,0.6,0.6,0.8
		c0.3,0.2,0.5,0.4,0.6,0.6S168.9,44.1,168.9,44.5z M161.8,41.5c0.5-0.6,0.7-1.3,0.7-2.2v-1.2l-6.2,0.5c-1.7,0.1-2.6,0.9-2.6,2.3
		c0,1.6,1.1,2.4,3.2,2.4h0.6c0.9,0,1.7-0.1,2.5-0.4C160.8,42.5,161.4,42.1,161.8,41.5z"/>
	<path class="st1" d="M171.3,42c-0.9-1.6-1.3-3.3-1.3-5.2c0-1.9,0.4-3.6,1.3-5.2c0.9-1.6,2.1-2.8,3.6-3.7c1.5-0.9,3.3-1.3,5.2-1.3
		c1.9,0,3.6,0.4,5.2,1.3c1.5,0.9,2.7,2.1,3.6,3.7c0.9,1.6,1.3,3.3,1.3,5.2c0,1.9-0.4,3.6-1.3,5.2c-0.9,1.6-2.1,2.8-3.6,3.7
		c-1.5,0.9-3.3,1.3-5.2,1.3c-1.9,0-3.6-0.4-5.2-1.3C173.4,44.8,172.2,43.6,171.3,42z M184.6,39.7c0.4-0.9,0.7-1.8,0.7-2.9
		s-0.2-2.1-0.7-2.9c-0.4-0.9-1.1-1.5-1.9-2c-0.8-0.5-1.7-0.7-2.7-0.7c-1,0-1.9,0.2-2.7,0.7c-0.8,0.5-1.4,1.1-1.9,2
		c-0.4,0.9-0.7,1.8-0.7,2.9s0.2,2.1,0.7,2.9c0.4,0.9,1.1,1.5,1.9,2c0.8,0.5,1.7,0.7,2.7,0.7c1,0,1.9-0.2,2.7-0.7
		C183.5,41.2,184.2,40.6,184.6,39.7z"/>
	<path class="st1" d="M203,45.9v-3.4c0-0.2,0.1-0.3,0.2-0.4s0.3-0.2,0.4-0.2h6.4V24.6h-6.4c-0.2,0-0.3-0.1-0.4-0.2S203,24.1,203,24
		v-3.4c0-0.2,0.1-0.3,0.2-0.4c0.1-0.1,0.3-0.2,0.4-0.2h18c0.2,0,0.3,0.1,0.4,0.2c0.1,0.1,0.2,0.3,0.2,0.4V24c0,0.2-0.1,0.3-0.2,0.4
		c-0.1,0.1-0.3,0.2-0.4,0.2h-6.4v17.3h6.4c0.2,0,0.3,0.1,0.4,0.2c0.1,0.1,0.2,0.3,0.2,0.4v3.4c0,0.2-0.1,0.3-0.2,0.4
		c-0.1,0.1-0.3,0.2-0.4,0.2h-18c-0.2,0-0.3-0.1-0.4-0.2C203,46.2,203,46.1,203,45.9z"/>
	<path class="st1" d="M241.1,37.4c0.9,0.8,1.3,2,1.3,3.5c0,1.9-0.8,3.4-2.3,4.5c-1.6,1.1-3.8,1.6-6.8,1.6c-2.6,0-4.8-0.4-6.4-1.3
		c-1.6-0.9-2.5-2.2-2.7-4c0-0.2,0-0.3,0.1-0.4c0.1-0.1,0.3-0.2,0.4-0.2h3.6c0.3,0,0.5,0.1,0.6,0.4c0.2,0.5,0.6,1,1.4,1.2
		c0.7,0.3,1.7,0.4,3,0.4c2.8,0,4.2-0.8,4.2-2.3c0-0.5-0.2-0.9-0.5-1.2c-0.3-0.3-0.8-0.5-1.5-0.7c-0.6-0.2-1.5-0.3-2.7-0.5
		c-1.6-0.2-3-0.5-4.2-0.8c-1.1-0.3-2.1-0.9-2.9-1.7c-0.8-0.8-1.2-2-1.2-3.5c0-1.9,0.7-3.4,2.2-4.5c1.5-1.1,3.6-1.6,6.4-1.6
		c2.5,0,4.5,0.4,6.1,1.3c1.6,0.9,2.5,2.1,2.7,3.9c0,0.2,0,0.3-0.1,0.4c-0.1,0.1-0.3,0.2-0.4,0.2h-3.6c-0.3,0-0.5-0.1-0.6-0.4
		c-0.1-0.5-0.6-0.9-1.3-1.1c-0.8-0.3-1.7-0.4-2.8-0.4c-1.2,0-2.1,0.2-2.7,0.5c-0.6,0.3-1,0.9-1,1.7c0,0.5,0.2,0.9,0.5,1.3
		c0.3,0.3,0.8,0.6,1.4,0.7c0.6,0.2,1.4,0.3,2.4,0.4c1.8,0.2,3.2,0.5,4.4,0.8C239.2,36,240.2,36.6,241.1,37.4z"/>
	<path class="st1" d="M272.4,44.4v0.7c0,0.6-0.2,1.1-0.7,1.3c-0.4,0.3-1,0.4-1.6,0.4c-1,0-1.9-0.3-2.6-0.9c-0.7-0.6-1-1.4-1-2.6
		v-0.4h-0.3c-0.4,1.1-1.1,2.1-2.3,2.9c-1.1,0.8-2.5,1.2-4.3,1.2h-1c-2,0-3.5-0.5-4.6-1.5c-1.1-1-1.7-2.5-1.7-4.3c0-1.7,0.5-3,1.5-4
		c1-1,2.6-1.5,4.7-1.7L266,35v-1c0-0.9-0.1-1.6-0.4-2c-0.2-0.5-0.6-0.8-1.2-1c-0.6-0.2-1.4-0.3-2.4-0.3c-1.3,0-2.2,0.2-2.9,0.5
		c-0.6,0.3-1,0.9-1.1,1.6c0,0.3-0.2,0.4-0.6,0.4H254c-0.2,0-0.3,0-0.4-0.1c-0.1-0.1-0.2-0.2-0.1-0.4c0.1-4,3-5.9,8.8-5.9
		c2.2,0,3.9,0.3,5.2,0.8c1.3,0.6,2.2,1.4,2.7,2.5c0.6,1.1,0.8,2.5,0.8,4.3v6.7c0,0.7,0.1,1.3,0.2,1.6c0.1,0.3,0.3,0.6,0.6,0.8
		c0.3,0.2,0.5,0.4,0.6,0.6S272.4,44.1,272.4,44.4z M265.3,41.4c0.5-0.6,0.7-1.3,0.7-2.2v-1.2l-6.2,0.5c-1.7,0.1-2.6,0.9-2.6,2.3
		c0,1.6,1.1,2.4,3.2,2.4h0.6c0.9,0,1.7-0.1,2.5-0.4C264.3,42.5,264.9,42,265.3,41.4z"/>
	<path class="st1" d="M292.5,30.4c0.6,1.2,0.9,2.7,0.9,4.4v11.1c0,0.2-0.1,0.3-0.2,0.4c-0.1,0.1-0.3,0.2-0.4,0.2H289
		c-0.2,0-0.3-0.1-0.4-0.2c-0.1-0.1-0.2-0.3-0.2-0.4V35.7c0-1.4-0.4-2.5-1.1-3.4s-1.8-1.2-3.2-1.2c-1.4,0-2.4,0.4-3.2,1.2
		s-1.1,1.9-1.1,3.4v10.2c0,0.2-0.1,0.3-0.2,0.4c-0.1,0.1-0.3,0.2-0.4,0.2h-3.8c-0.2,0-0.3-0.1-0.4-0.2c-0.1-0.1-0.2-0.3-0.2-0.4
		V27.5c0-0.2,0.1-0.3,0.2-0.4c0.1-0.1,0.3-0.2,0.4-0.2h3.6c0.2,0,0.3,0.1,0.4,0.2c0.1,0.1,0.2,0.3,0.2,0.4l0.2,2.8h0.6
		c0.5-1.1,1.3-2,2.3-2.7c1-0.7,2.3-1.1,3.7-1.1c1.4,0,2.6,0.3,3.7,1S291.9,29.1,292.5,30.4z"/>
	<path class="st1" d="M315.6,19.4v26.5c0,0.2-0.1,0.3-0.2,0.4c-0.1,0.1-0.3,0.2-0.4,0.2h-3.3c-0.3,0-0.5-0.2-0.6-0.6l-0.3-3.1h-0.5
		c-0.4,1.2-1.2,2.2-2.3,3c-1.1,0.8-2.4,1.2-4,1.2c-1.7,0-3.2-0.4-4.5-1.3c-1.3-0.9-2.3-2.1-3-3.6c-0.7-1.5-1-3.3-1-5.2
		c0-2,0.4-3.8,1.1-5.3s1.8-2.8,3.3-3.7c1.4-0.9,3.1-1.3,5-1.3c1.4,0,2.5,0.2,3.4,0.6c0.9,0.4,1.7,1,2.2,1.7v-9.5
		c0-0.2,0.1-0.3,0.2-0.4c0.1-0.1,0.3-0.2,0.4-0.2h3.8c0.2,0,0.3,0.1,0.4,0.2C315.6,19.1,315.6,19.2,315.6,19.4z M310.2,39.7
		c0.4-0.8,0.6-1.8,0.6-3c0-1.1-0.2-2.1-0.6-3c-0.4-0.8-1-1.5-1.8-1.9c-0.8-0.5-1.7-0.7-2.7-0.7s-2,0.2-2.7,0.7
		c-0.8,0.5-1.4,1.1-1.8,2c-0.4,0.9-0.7,1.8-0.7,3c0,1.1,0.2,2.1,0.7,3c0.4,0.9,1,1.5,1.8,2c0.8,0.5,1.7,0.7,2.7,0.7s2-0.2,2.7-0.7
		C309.2,41.2,309.8,40.6,310.2,39.7z"/>
</g>
</svg>
