<?xml version="1.0" encoding="UTF-8"?><svg id="Layer_1" xmlns="http://www.w3.org/2000/svg" viewBox="0 0 18 16"><defs><style>.cls-1{fill:#ef3340;stroke-width:0px;}</style></defs><path class="cls-1" d="M7.94,15.56l-.09-.08L1.69,9.53c-1.08-1.04-1.69-2.51-1.69-4.04v-.12C0,2.79,1.76.58,4.19.1c1.39-.28,2.8.05,3.93.88.32.23.61.5.88.82.15-.18.31-.34.47-.49.13-.12.26-.23.4-.33h0C11.01.15,12.42-.18,13.81.09c2.43.48,4.19,2.7,4.19,5.27v.12c0,1.53-.61,3-1.69,4.04l-6.16,5.95-.09.08c-.29.28-.67.44-1.06.44s-.77-.15-1.06-.44h0ZM8.41,3.74s-.02-.03-.04-.04l-.63-.73h0c-.81-.95-2.04-1.38-3.23-1.15-1.64.33-2.82,1.81-2.82,3.55v.12c0,1.04.42,2.04,1.15,2.75l6.16,5.95,6.16-5.95c.73-.71,1.15-1.71,1.15-2.75v-.12c0-1.73-1.18-3.22-2.82-3.55-1.2-.24-2.43.2-3.23,1.14h0s0,0,0,0l-.63.73s-.02.03-.04.04c-.16.16-.37.26-.59.26s-.44-.09-.59-.26h0Z"/></svg>