<?xml version="1.0" encoding="utf-8"?>
<!-- Generator: Adobe Illustrator 28.2.0, SVG Export Plug-In . SVG Version: 6.00 Build 0)  -->
<svg version="1.1" id="Layer_1" xmlns="http://www.w3.org/2000/svg" xmlns:xlink="http://www.w3.org/1999/xlink" x="0px" y="0px"
	 viewBox="0 0 18 16" style="enable-background:new 0 0 18 16;" xml:space="preserve">
<style type="text/css">
	.st0{fill:#FFFFFF;}
</style>
<path class="st0" d="M7.9,15.6L7.9,15.6l-6.2-6C0.6,8.5,0,7,0,5.5V5.4c0-2.6,1.8-4.8,4.2-5.3C5.6-0.2,7,0.2,8.1,1
	C8.4,1.2,8.7,1.5,9,1.8c0.1-0.2,0.3-0.3,0.5-0.5C9.6,1.2,9.7,1.1,9.9,1l0,0c1.1-0.8,2.5-1.2,3.9-0.9C16.2,0.6,18,2.8,18,5.4v0.1
	c0,1.5-0.6,3-1.7,4l-6.2,6l-0.1,0.1C9.8,15.8,9.4,16,9,16S8.2,15.8,7.9,15.6L7.9,15.6z M8.4,3.7C8.4,3.7,8.4,3.7,8.4,3.7L7.7,3l0,0
	l0,0C6.9,2,5.7,1.6,4.5,1.8C2.9,2.1,1.7,3.6,1.7,5.4v0.1c0,1,0.4,2,1.2,2.8l6.2,6l6.2-6c0.7-0.7,1.2-1.7,1.2-2.8V5.4
	c0-1.7-1.2-3.2-2.8-3.5C12.3,1.6,11.1,2,10.3,3c0,0,0,0,0,0c0,0,0,0,0,0L9.6,3.7c0,0,0,0,0,0C9.4,3.9,9.2,4,9,4S8.6,3.9,8.4,3.7
	L8.4,3.7z"/>
</svg>
