<?xml version="1.0" encoding="utf-8"?>
<!-- Generator: Adobe Illustrator 28.2.0, SVG Export Plug-In . SVG Version: 6.00 Build 0)  -->
<svg version="1.1" id="Layer_1" xmlns="http://www.w3.org/2000/svg" xmlns:xlink="http://www.w3.org/1999/xlink" x="0px" y="0px"
	 viewBox="0 0 148.5 63" style="enable-background:new 0 0 148.5 63;" xml:space="preserve">
<style type="text/css">
	.st0{fill:#FFFFFF;}
	.st1{fill:#EF3340;}
</style>
<path class="st0" d="M53,49.6c-0.7,1.6-2,2.9-3.6,3.6c-3.6,1.6-7,0.6-9.2-1.6C38.8,50.1,38,48.2,38,46v-6.5c0-0.7,0.6-1.4,1.4-1.4
	h6.5c2.1,0,4.1,0.9,5.5,2.2C53.6,42.5,54.6,46,53,49.6z"/>
<path class="st0" d="M26.1,34.2h6.3c1,0,1.6-0.6,1.6-1.6v-6.4c0-2.1-0.8-4-2.2-5.5c-1.5-1.6-3.5-2.4-5.7-2.4c-1.3,0-2.6,0.3-3.8,0.9
	c-1.4,0.7-2.5,1.8-3.2,3.2c-1.6,3.3-1,7.1,1.5,9.5C22.1,33.4,24,34.2,26.1,34.2z M20.8,23.3c0.5-1,1.3-1.8,2.3-2.3
	c3.1-1.5,5.8-0.4,7.3,1.1c1.1,1.1,1.7,2.6,1.7,4.2v5.6c0,0.2-0.2,0.4-0.4,0.4h-5.6c-1.6,0-3.1-0.6-4.2-1.7
	C20.4,29.1,19.3,26.4,20.8,23.3z"/>
<path class="st1" d="M116.2,58.5c15,0,27.2-12.1,27.2-27s-12.2-27-27.2-27H31.7c-15,0-27.2,12.1-27.2,27s12.2,27,27.2,27H116.2z"/>
<g>
	<path class="st0" d="M27.7,44.8v-2.9c0-2.2,0.4-4,1.3-5.4c0.9-1.4,2-2.6,3.2-3.4c1.2-0.8,2.8-1.7,4.8-2.5c1.4-0.7,2.6-1.2,3.4-1.7
		c0.8-0.5,1.5-1,2-1.7c0.5-0.7,0.8-1.5,0.8-2.5c0-1.2-0.4-2.2-1.3-2.9c-0.8-0.7-2.1-1.1-3.8-1.1c-1.6,0-2.8,0.4-3.7,1.1
		c-0.9,0.7-1.4,1.9-1.5,3.4c0,0.2-0.1,0.4-0.2,0.5c-0.1,0.1-0.3,0.2-0.5,0.2h-3.9c-0.2,0-0.3-0.1-0.5-0.2c-0.1-0.1-0.2-0.3-0.2-0.5
		c0-2,0.4-3.7,1.3-5.1c0.8-1.4,2.1-2.5,3.6-3.2c1.6-0.7,3.5-1.1,5.6-1.1c2.1,0,3.9,0.3,5.4,1c1.5,0.7,2.7,1.7,3.6,3
		c0.8,1.3,1.3,2.9,1.3,4.8c0,1.8-0.4,3.4-1.2,4.6c-0.8,1.2-1.8,2.2-2.9,3c-1.1,0.7-2.6,1.5-4.5,2.4c-1.5,0.7-2.7,1.3-3.5,1.8
		c-0.8,0.5-1.6,1.1-2.1,1.9c-0.6,0.8-0.9,1.7-0.9,2.7h14.5c0.2,0,0.4,0.1,0.5,0.2c0.1,0.1,0.2,0.3,0.2,0.5v3.4
		c0,0.2-0.1,0.3-0.2,0.5c-0.1,0.1-0.3,0.2-0.5,0.2H28.4c-0.2,0-0.3-0.1-0.5-0.2C27.8,45.2,27.7,45,27.7,44.8z"/>
	<path class="st0" d="M51.7,39.9c-0.7-2.2-1.1-5.2-1.1-9.1c0-3.8,0.4-6.8,1.1-9c0.7-2.2,1.9-3.8,3.5-4.8c1.6-1,3.7-1.4,6.4-1.4
		c2.7,0,4.8,0.5,6.4,1.4c1.6,1,2.8,2.6,3.5,4.8c0.7,2.2,1.1,5.2,1.1,9c0,3.8-0.4,6.9-1.1,9.1c-0.7,2.2-1.9,3.8-3.5,4.8
		c-1.6,1-3.7,1.5-6.4,1.5c-2.7,0-4.8-0.5-6.4-1.5C53.6,43.7,52.5,42.1,51.7,39.9z M66.8,37.2c0.4-1.4,0.6-3.5,0.6-6.3
		c0-2.8-0.2-4.9-0.6-6.3c-0.4-1.4-1-2.4-1.8-2.9s-1.9-0.8-3.4-0.8c-1.4,0-2.6,0.3-3.4,0.8c-0.8,0.5-1.4,1.5-1.8,2.9
		c-0.4,1.4-0.6,3.5-0.6,6.3c0,2.8,0.2,4.9,0.6,6.3c0.4,1.4,1,2.4,1.8,2.9c0.8,0.5,1.9,0.8,3.4,0.8c1.4,0,2.6-0.3,3.4-0.8
		C65.8,39.6,66.4,38.6,66.8,37.2z"/>
	<path class="st0" d="M74.7,44.8v-2.9c0-2.2,0.4-4,1.3-5.4c0.9-1.4,2-2.6,3.2-3.4c1.2-0.8,2.8-1.7,4.8-2.5c1.4-0.7,2.6-1.2,3.4-1.7
		c0.8-0.5,1.5-1,2-1.7c0.5-0.7,0.8-1.5,0.8-2.5c0-1.2-0.4-2.2-1.3-2.9c-0.8-0.7-2.1-1.1-3.8-1.1c-1.6,0-2.8,0.4-3.7,1.1
		S80,23.5,80,25.1c0,0.2-0.1,0.4-0.2,0.5c-0.1,0.1-0.3,0.2-0.5,0.2h-3.9c-0.2,0-0.3-0.1-0.5-0.2c-0.1-0.1-0.2-0.3-0.2-0.5
		c0-2,0.4-3.7,1.3-5.1c0.8-1.4,2.1-2.5,3.6-3.2c1.6-0.7,3.5-1.1,5.6-1.1c2.1,0,3.9,0.3,5.4,1c1.5,0.7,2.7,1.7,3.6,3
		c0.8,1.3,1.3,2.9,1.3,4.8c0,1.8-0.4,3.4-1.2,4.6c-0.8,1.2-1.8,2.2-2.9,3c-1.1,0.7-2.6,1.5-4.5,2.4c-1.5,0.7-2.7,1.3-3.5,1.8
		c-0.8,0.5-1.6,1.1-2.1,1.9c-0.6,0.8-0.9,1.7-0.9,2.7h14.5c0.2,0,0.4,0.1,0.5,0.2c0.1,0.1,0.2,0.3,0.2,0.5v3.4
		c0,0.2-0.1,0.3-0.2,0.5c-0.1,0.1-0.3,0.2-0.5,0.2H75.4c-0.2,0-0.3-0.1-0.5-0.2C74.8,45.2,74.7,45,74.7,44.8z"/>
	<path class="st0" d="M120.2,35.1v3.2c0,0.2-0.1,0.3-0.2,0.5c-0.1,0.1-0.3,0.2-0.5,0.2h-3.1v5.9c0,0.2-0.1,0.3-0.2,0.5
		c-0.1,0.1-0.3,0.2-0.5,0.2h-4.2c-0.2,0-0.3-0.1-0.5-0.2c-0.1-0.1-0.2-0.3-0.2-0.5v-5.9H97.5c-0.2,0-0.3-0.1-0.5-0.2
		c-0.1-0.1-0.2-0.3-0.2-0.5v-3.5c0-0.2,0-0.3,0.1-0.4c0-0.1,0.1-0.2,0.2-0.4l13.5-17.5c0.1-0.2,0.3-0.3,0.4-0.3
		c0.1-0.1,0.3-0.1,0.4-0.1h4.4c0.2,0,0.4,0.1,0.5,0.2c0.1,0.1,0.2,0.3,0.2,0.5v17.7h3.1c0.2,0,0.4,0.1,0.5,0.2
		C120.1,34.7,120.2,34.9,120.2,35.1z M110.9,24l-8.1,10.4h8.1V24z"/>
</g>
</svg>
