<?xml version="1.0" encoding="utf-8"?>
<!-- Generator: Adobe Illustrator 28.2.0, SVG Export Plug-In . SVG Version: 6.00 Build 0)  -->
<svg version="1.1" id="Layer_1" xmlns="http://www.w3.org/2000/svg" xmlns:xlink="http://www.w3.org/1999/xlink" x="0px" y="0px"
	 viewBox="0 0 360 360" style="enable-background:new 0 0 360 360;" xml:space="preserve">
<style type="text/css">
	.st0{fill:#FFFFFF;}
	.st1{fill:#EF3340;}
</style>
<g>
	<path class="st0" d="M280,0.1c-44.2,0-80,35.8-80,80v30c0,21.4-7.5,41.1-20,56.5c-4,4.9-8.5,9.5-13.4,13.4
		c-15.4,12.5-35.1,20-56.6,20H80c-44.2,0-80,35.8-80,80s35.8,80,80,80s80-35.8,80-80v-30c0-21.4,7.5-41.1,20-56.6
		c4-4.9,8.5-9.5,13.4-13.4c15.4-12.5,35.1-20,56.6-20h30c44.2,0,80-35.8,80-80S324.2,0.1,280,0.1z"/>
	<path class="st0" d="M352.2,315.8c-7.1,16.2-20.2,29.3-36.4,36.4c-36,15.8-71.2,6.1-93.1-16.5c-14-14.4-22.6-34.1-22.6-55.8v-66.3
		c0-7.6,6.1-13.7,13.7-13.7H280c21.7,0,41.3,8.6,55.8,22.6C358.4,244.6,368,279.8,352.2,315.8L352.2,315.8z"/>
	<path class="st1" d="M7.8,44.2C14.9,28,28,14.9,44.2,7.8c36-15.8,71.2-6.2,93.2,16.5C151.4,38.7,160,58.3,160,80v66.3
		c0,7.6-6.1,13.7-13.7,13.7H80c-21.7,0-41.3-8.6-55.8-22.6C1.6,115.4-8,80.2,7.8,44.2z"/>
</g>
</svg>
