<?xml version="1.0" encoding="UTF-8"?><svg id="Layer_1" xmlns="http://www.w3.org/2000/svg" viewBox="0 0 81 81"><defs><style>.cls-1{fill:#26d07c;}.cls-1,.cls-2{stroke-width:0px;}.cls-2{fill:#fff;}</style></defs><circle class="cls-1" cx="40.5" cy="40.5" r="36"/><path class="cls-2" d="M65.5,40.53c0,12.96-10.2,24.95-24.97,24.97-14.77.02-25.11-12-25.03-25.15.08-12.96,10.3-24.86,25.01-24.85,14.77,0,25.01,12.01,24.99,25.03ZM60.59,43.22c-.96-.27-1.93-.56-2.9-.83-1.14-.31-1.82-1.06-2.16-2.15-.46-1.44-.92-2.88-1.38-4.32-.73-2.29-.08-3.64,2.14-4.5.66-.26,1.32-.52,2-.79-3.67-6.74-10.73-10.32-16.65-10.4.84,2.04.7,2.83-.81,4.51-.31.35-.63.69-.93,1.06-1.09,1.32-1.11,2.96-.04,4.3.36.45.76.86,1.13,1.3.68.81.78,1.6.31,2.37-.45.73-1.24.98-2.28.69-.65-.18-1.31-.36-1.94-.59-.98-.36-1.88-.21-2.76.31-1.57.92-1.63,2.68-.09,3.65.9.57,1.85,1.06,2.75,1.63,1.19.75,2.48,1.06,3.86,1.06,1.33,0,2.66-.03,3.99.01,2.26.07,4.36,1.75,4.88,3.84.64,2.55-.18,4.99-2.3,6.12-2.07,1.11-3.35,2.68-3.98,4.94-.43,1.55-1.57,2.56-3.16,2.96-1.44.36-2.82-.7-2.86-2.19-.02-.83-.03-1.67,0-2.5.06-1.38-.45-2.42-1.68-3.11-1.04-.58-1.45-1.52-1.45-2.67,0-1.04,0-2.09,0-3.13,0-2.47-.96-3.75-3.33-4.45-1.75-.51-3.49-1.04-5.24-1.54-1.7-.49-2.92-1.54-3.76-3.08-.23-.43-.48-.85-.75-1.32-2.03,5.03-1.28,13.79,4.13,19.71,5.63,6.16,14.4,8.4,22.21,5.55,7.49-2.74,12.31-9.51,13.05-16.42Z"/></svg>