<?xml version="1.0" encoding="utf-8"?>
<!-- Generator: Adobe Illustrator 28.2.0, SVG Export Plug-In . SVG Version: 6.00 Build 0)  -->
<svg version="1.1" id="Layer_1" xmlns="http://www.w3.org/2000/svg" xmlns:xlink="http://www.w3.org/1999/xlink" x="0px" y="0px"
	 viewBox="0 0 81 81" style="enable-background:new 0 0 81 81;" xml:space="preserve">
<style type="text/css">
	.st0{fill:#EF3340;}
	.st1{fill:#FFFFFF;}
</style>
<circle class="st0" cx="40.5" cy="40.5" r="36"/>
<path class="st1" d="M65.5,40.5c0,13-10.2,24.9-25,25c-14.8,0-25.1-12-25-25.1c0.1-13,10.3-24.9,25-24.9
	C55.3,15.5,65.5,27.5,65.5,40.5z M60.6,43.2c-1-0.3-1.9-0.6-2.9-0.8c-1.1-0.3-1.8-1.1-2.2-2.2c-0.5-1.4-0.9-2.9-1.4-4.3
	c-0.7-2.3-0.1-3.6,2.1-4.5c0.7-0.3,1.3-0.5,2-0.8c-3.7-6.7-10.7-10.3-16.7-10.4c0.8,2,0.7,2.8-0.8,4.5c-0.3,0.4-0.6,0.7-0.9,1.1
	c-1.1,1.3-1.1,3,0,4.3c0.4,0.4,0.8,0.9,1.1,1.3c0.7,0.8,0.8,1.6,0.3,2.4c-0.4,0.7-1.2,1-2.3,0.7c-0.7-0.2-1.3-0.4-1.9-0.6
	c-1-0.4-1.9-0.2-2.8,0.3c-1.6,0.9-1.6,2.7-0.1,3.6c0.9,0.6,1.9,1.1,2.8,1.6c1.2,0.7,2.5,1.1,3.9,1.1c1.3,0,2.7,0,4,0
	c2.3,0.1,4.4,1.7,4.9,3.8c0.6,2.5-0.2,5-2.3,6.1c-2.1,1.1-3.3,2.7-4,4.9c-0.4,1.5-1.6,2.6-3.2,3c-1.4,0.4-2.8-0.7-2.9-2.2
	c0-0.8,0-1.7,0-2.5c0.1-1.4-0.4-2.4-1.7-3.1c-1-0.6-1.4-1.5-1.5-2.7c0-1,0-2.1,0-3.1c0-2.5-1-3.8-3.3-4.4c-1.7-0.5-3.5-1-5.2-1.5
	c-1.7-0.5-2.9-1.5-3.8-3.1c-0.2-0.4-0.5-0.8-0.7-1.3c-2,5-1.3,13.8,4.1,19.7c5.6,6.2,14.4,8.4,22.2,5.5C55,56.9,59.8,50.1,60.6,43.2
	z"/>
</svg>
