<?xml version="1.0" encoding="utf-8"?>
<!-- Generator: Adobe Illustrator 28.2.0, SVG Export Plug-In . SVG Version: 6.00 Build 0)  -->
<svg version="1.1" id="Layer_1" xmlns="http://www.w3.org/2000/svg" xmlns:xlink="http://www.w3.org/1999/xlink" x="0px" y="0px"
	 viewBox="0 0 81 76.5" style="enable-background:new 0 0 81 76.5;" xml:space="preserve">
<style type="text/css">
	.st0{fill:#FED141;}
</style>
<g>
	<path class="st0" d="M74.9,15.2c-1.6-3.9-4.5-7.1-8.2-8.9c-8.1-3.8-16-1.5-21,4c-3.2,3.5-5.1,8.3-5.1,13.6c0-5.3-1.9-10-5.1-13.6
		c-4.9-5.5-12.9-7.8-21-4c-3.7,1.7-6.6,4.9-8.2,8.9C3,23.4,4.7,31.4,9,36.8l18,21.4L38.5,71c1.2,1.3,3.2,1.3,4.4,0l11.4-13
		l16.9-20.1C76.3,32.5,78.4,24,74.9,15.2z"/>
	<path d="M40.6,73L40.6,73c-1.1,0-2.1-0.5-2.9-1.3L26.4,58.9l-18-21.5c-5.1-6.2-6.1-14.6-2.9-22.6c1.7-4.2,4.8-7.5,8.7-9.4
		c7.9-3.8,16.4-2.1,22.1,4.2c2,2.2,3.5,4.8,4.3,7.7c0.9-2.8,2.4-5.4,4.3-7.7c5.7-6.4,14.2-8,22.1-4.2c3.9,1.9,7,5.2,8.7,9.4l0,0
		c3.4,8.5,1.9,17.6-3.9,23.7L55,58.5L43.6,71.7C42.8,72.5,41.7,73,40.6,73z M22.7,5.5c-2.5,0-5.1,0.6-7.7,1.8
		c-3.4,1.6-6.2,4.6-7.7,8.3c-3,7.3-2,14.9,2.6,20.6l18,21.4l11.3,12.8c0.4,0.4,0.9,0.6,1.4,0.6l0,0c0.5,0,1.1-0.2,1.4-0.7l11.5-13
		l16.9-20.1c5.3-5.6,6.7-13.9,3.5-21.6l0,0c-1.5-3.7-4.3-6.7-7.7-8.3c-7.1-3.4-14.7-1.9-19.8,3.8c-3.1,3.5-4.8,8-4.8,12.9h-2
		c0-4.8-1.7-9.4-4.8-12.9C31.5,7.4,27.2,5.5,22.7,5.5z"/>
</g>
</svg>
