<?xml version="1.0" encoding="utf-8"?>
<!-- Generator: Adobe Illustrator 28.2.0, SVG Export Plug-In . SVG Version: 6.00 Build 0)  -->
<svg version="1.1" id="Layer_1" xmlns="http://www.w3.org/2000/svg" xmlns:xlink="http://www.w3.org/1999/xlink" x="0px" y="0px"
	 viewBox="0 0 81 76.5" style="enable-background:new 0 0 81 76.5;" xml:space="preserve">
<style type="text/css">
	.st0{fill:#E1E66D;stroke:#000000;stroke-width:2;stroke-miterlimit:10;}
</style>
<path class="st0" d="M74.8,15.2c-1.6-3.9-4.5-7.1-8.2-8.9c-8.1-3.8-16-1.5-21,4c-3.2,3.5-5.1,8.3-5.1,13.6c0-5.3-1.9-10-5.1-13.6
	c-4.9-5.5-12.9-7.8-21-4c-3.7,1.7-6.6,4.9-8.2,8.9C2.9,23.4,4.6,31.4,9,36.8l18,21.4L38.3,71c1.2,1.3,3.2,1.3,4.4,0L54.2,58L71,37.9
	C76.1,32.5,78.3,24,74.8,15.2z"/>
</svg>
