<?xml version="1.0" encoding="utf-8"?>
<!-- Generator: Adobe Illustrator 28.2.0, SVG Export Plug-In . SVG Version: 6.00 Build 0)  -->
<svg version="1.1" id="Layer_1" xmlns="http://www.w3.org/2000/svg" xmlns:xlink="http://www.w3.org/1999/xlink" x="0px" y="0px"
	 viewBox="0 0 81 81" style="enable-background:new 0 0 81 81;" xml:space="preserve">
<style type="text/css">
	.st0{fill:#EF3340;}
</style>
<g>
	<polygon class="st0" points="40.6,24.9 55.5,4.5 51.6,29.5 76.5,25.7 56.1,40.5 76.5,55.5 51.5,51.5 55.4,76.5 40.5,56.1 
		25.6,76.5 29.5,51.5 4.6,55.3 25,40.5 4.6,25.5 29.6,29.5 25.7,4.5 	"/>
	<path d="M55.4,77.5c-0.3,0-0.6-0.1-0.8-0.4l-14-19.3L26.4,77.1c-0.3,0.4-0.8,0.5-1.2,0.3c-0.4-0.2-0.7-0.6-0.6-1.1l3.7-23.6
		L4.7,56.3c-0.5,0.1-0.9-0.2-1.1-0.6c-0.2-0.4,0-0.9,0.3-1.2l19.3-14.1L4,26.3c-0.4-0.3-0.5-0.8-0.3-1.2c0.2-0.4,0.6-0.7,1.1-0.6
		l23.6,3.7L24.8,4.6c-0.1-0.5,0.2-0.9,0.6-1.1c0.4-0.2,0.9,0,1.2,0.3l14,19.3L54.7,3.9c0.3-0.4,0.8-0.5,1.2-0.3
		c0.4,0.2,0.7,0.6,0.6,1.1l-3.7,23.6l23.6-3.6c0.5-0.1,0.9,0.2,1.1,0.6c0.2,0.4,0,0.9-0.3,1.2L57.8,40.5l19.2,14.1
		c0.4,0.3,0.5,0.8,0.3,1.2c-0.2,0.4-0.6,0.7-1.1,0.6l-23.6-3.7l3.6,23.6c0.1,0.5-0.2,0.9-0.6,1.1C55.6,77.5,55.5,77.5,55.4,77.5z
		 M40.5,55.1C40.5,55.1,40.5,55.1,40.5,55.1c0.3,0,0.6,0.2,0.8,0.4l12.4,17.1l-3.2-20.9c0-0.3,0.1-0.6,0.3-0.9
		c0.2-0.2,0.5-0.3,0.9-0.3l20.9,3.3l-17-12.5c-0.3-0.2-0.4-0.5-0.4-0.8c0-0.3,0.2-0.6,0.4-0.8l17.1-12.4l-20.9,3.2
		c-0.3,0-0.6-0.1-0.9-0.3c-0.2-0.2-0.3-0.5-0.3-0.9l3.3-20.9L41.4,25.5c-0.2,0.3-0.5,0.4-0.8,0.4c0,0,0,0,0,0
		c-0.3,0-0.6-0.2-0.8-0.4L27.4,8.4l3.2,20.9c0,0.3-0.1,0.6-0.3,0.9c-0.2,0.2-0.5,0.3-0.9,0.3L8.5,27.1l17,12.5
		c0.3,0.2,0.4,0.5,0.4,0.8c0,0.3-0.2,0.6-0.4,0.8L8.5,53.7l20.9-3.2c0.3,0,0.6,0.1,0.9,0.3c0.2,0.2,0.3,0.5,0.3,0.9l-3.3,20.9
		l12.5-17.1C39.9,55.2,40.2,55.1,40.5,55.1z"/>
</g>
</svg>
