<?xml version="1.0" encoding="utf-8"?>
<!-- Generator: Adobe Illustrator 28.2.0, SVG Export Plug-In . SVG Version: 6.00 Build 0)  -->
<svg version="1.1" id="Layer_1" xmlns="http://www.w3.org/2000/svg" xmlns:xlink="http://www.w3.org/1999/xlink" x="0px" y="0px"
	 viewBox="0 0 72 81" style="enable-background:new 0 0 72 81;" xml:space="preserve">
<style type="text/css">
	.st0{fill:#EF3340;}
	.st1{fill:#FFFFFF;}
</style>
<g>
	<path class="st0" d="M27.1,9.9c5.7-2.2,12.1-2.2,17.8,0c12.7,4.9,18.9,15.7,18.7,26.5c-0.1,6.9-2.8,13.7-8.1,18.9l-16.2,16
		c-1.8,1.8-4.8,1.8-6.7,0l-16.2-16c-5.3-5.2-8-12.1-8.1-18.9C8.2,25.7,14.4,14.8,27.1,9.9z"/>
	<path class="st1" d="M36,8.3c3,0,6,0.5,8.9,1.6c12.7,4.9,18.9,15.7,18.7,26.5c-0.1,6.9-2.8,13.7-8.1,18.9l-16.2,16
		c-0.9,0.9-2.1,1.4-3.3,1.4c-1.2,0-2.4-0.5-3.3-1.4l-16.2-16c-5.3-5.2-8-12.1-8.1-18.9C8.2,25.7,14.4,14.8,27.1,9.9
		C30,8.8,33,8.3,36,8.3 M36,4.5L36,4.5c-3.6,0-7,0.6-10.3,1.9C19,9,13.4,13.3,9.7,18.9c-3.5,5.2-5.3,11.3-5.2,17.6
		c0.1,8.1,3.4,15.8,9.2,21.5l16.2,16c1.6,1.6,3.8,2.5,6.1,2.5c2.3,0,4.4-0.9,6.1-2.5l16.2-16c5.8-5.8,9.1-13.4,9.2-21.5
		c0.1-6.3-1.7-12.4-5.2-17.6C58.6,13.3,53,9,46.3,6.4C43,5.1,39.6,4.5,36,4.5L36,4.5z"/>
</g>
<path class="st1" d="M26.2,39.5c0.3,0.5,0.4,1.1,0.4,1.9v4.7c0,0.1,0,0.1-0.1,0.2c0,0-0.1,0.1-0.2,0.1h-1.6c-0.1,0-0.1,0-0.2-0.1
	c0,0-0.1-0.1-0.1-0.2v-4.3c0-0.6-0.2-1.1-0.5-1.4c-0.3-0.3-0.8-0.5-1.4-0.5c-0.6,0-1,0.2-1.4,0.5c-0.3,0.3-0.5,0.8-0.5,1.4v4.3
	c0,0.1,0,0.1-0.1,0.2c0,0-0.1,0.1-0.2,0.1h-1.6c-0.1,0-0.1,0-0.2-0.1c0,0-0.1-0.1-0.1-0.2V34.9c0-0.1,0-0.1,0.1-0.2s0.1-0.1,0.2-0.1
	h1.6c0.1,0,0.1,0,0.2,0.1c0,0,0.1,0.1,0.1,0.2v4.6H21c0.2-0.5,0.5-0.9,1-1.2c0.4-0.3,1-0.5,1.6-0.5c0.6,0,1.1,0.1,1.6,0.4
	C25.6,38.6,25.9,39,26.2,39.5z"/>
<path class="st1" d="M36,42.7c-0.1,0.1-0.3,0.1-0.5,0.1l-5.5,0c0,0.7,0.3,1.2,0.8,1.5c0.5,0.4,1.1,0.5,1.9,0.5c0.4,0,0.7,0,1.1-0.1
	c0.3-0.1,0.6-0.2,0.9-0.3c0.1-0.1,0.2-0.1,0.2-0.1c0.1,0,0.1,0,0.2,0.1s0.2,0.1,0.3,0.3c0.2,0.2,0.3,0.4,0.3,0.5
	c0,0.1-0.1,0.2-0.2,0.3c-0.3,0.3-0.7,0.6-1.3,0.7c-0.5,0.2-1.1,0.3-1.7,0.3c-0.9,0-1.7-0.2-2.3-0.5c-0.7-0.4-1.2-0.9-1.6-1.5
	c-0.4-0.7-0.6-1.4-0.6-2.3c0-0.8,0.2-1.6,0.5-2.2c0.4-0.7,0.9-1.2,1.5-1.5c0.7-0.4,1.4-0.5,2.2-0.5c0.8,0,1.6,0.2,2.2,0.5
	c0.6,0.3,1.1,0.8,1.4,1.4c0.3,0.6,0.5,1.3,0.5,2.1c0,0.2,0,0.4-0.1,0.5C36.2,42.6,36.1,42.7,36,42.7z M30,41.4h4.3
	c-0.1-0.6-0.3-1-0.7-1.3c-0.4-0.3-0.9-0.4-1.5-0.4c-0.6,0-1.1,0.1-1.5,0.4C30.4,40.4,30.1,40.9,30,41.4z"/>
<path class="st1" d="M54.8,42.7c-0.1,0.1-0.3,0.1-0.5,0.1l-5.5,0c0,0.7,0.3,1.2,0.8,1.5c0.5,0.4,1.1,0.5,1.9,0.5
	c0.4,0,0.7,0,1.1-0.1c0.3-0.1,0.6-0.2,0.9-0.3c0.1-0.1,0.2-0.1,0.2-0.1c0.1,0,0.1,0,0.2,0.1s0.2,0.1,0.3,0.3
	c0.2,0.2,0.3,0.4,0.3,0.5c0,0.1-0.1,0.2-0.2,0.3c-0.3,0.3-0.7,0.6-1.3,0.7c-0.5,0.2-1.1,0.3-1.7,0.3c-0.9,0-1.7-0.2-2.3-0.5
	c-0.7-0.4-1.2-0.9-1.6-1.5c-0.4-0.7-0.6-1.4-0.6-2.3c0-0.8,0.2-1.6,0.5-2.2c0.4-0.7,0.9-1.2,1.5-1.5c0.7-0.4,1.4-0.5,2.2-0.5
	c0.8,0,1.6,0.2,2.2,0.5c0.6,0.3,1.1,0.8,1.4,1.4c0.3,0.6,0.5,1.3,0.5,2.1c0,0.2,0,0.4-0.1,0.5C55,42.6,54.9,42.7,54.8,42.7z
	 M48.8,41.4h4.3c-0.1-0.6-0.3-1-0.7-1.3c-0.4-0.3-0.9-0.4-1.5-0.4c-0.6,0-1.1,0.1-1.5,0.4C49.2,40.4,48.9,40.9,48.8,41.4z"/>
<path class="st1" d="M45.1,39.6c0.2,0.4,0.4,0.9,0.4,1.5c0,0.4-0.1,0.7-0.2,0.8c-0.1,0.2-0.3,0.2-0.6,0.2h-0.9c-0.1,0-0.2,0-0.3-0.1
	c-0.1-0.1-0.1-0.1-0.1-0.2c0-0.6-0.2-1.1-0.5-1.3s-0.8-0.4-1.3-0.4c-0.7,0-1.2,0.2-1.5,0.6c-0.4,0.4-0.6,1-0.6,1.9v3.7
	c0,0.1,0,0.1-0.1,0.2c0,0-0.1,0.1-0.2,0.1h-1.6c-0.1,0-0.1,0-0.2-0.1s-0.1-0.1-0.1-0.2v-7.7c0-0.1,0-0.1,0.1-0.2
	c0,0,0.1-0.1,0.2-0.1h1.5c0.1,0,0.1,0,0.2,0.1c0,0,0.1,0.1,0.1,0.2l0.1,1.4h0.3c0.2-0.6,0.5-1,1-1.3c0.5-0.3,1.1-0.5,1.7-0.5
	c0.6,0,1.1,0.1,1.5,0.4C44.6,38.8,44.9,39.1,45.1,39.6z"/>
<g>
	<path class="st1" d="M36.4,25.9c0.3,0.7,0.5,1.4,0.5,2.3c0,0.8-0.2,1.6-0.4,2.2c-0.3,0.7-0.7,1.2-1.3,1.6c-0.6,0.4-1.2,0.6-1.9,0.6
		c-0.7,0-1.3-0.2-1.7-0.5c-0.5-0.3-0.8-0.8-1-1.3h-0.2l-0.1,1.3c0,0.2-0.1,0.3-0.2,0.3h-1.4c-0.1,0-0.1,0-0.2-0.1
		c0,0-0.1-0.1-0.1-0.2V20.7c0-0.1,0-0.1,0.1-0.2c0,0,0.1-0.1,0.2-0.1h1.6c0.1,0,0.1,0,0.2,0.1c0,0,0.1,0.1,0.1,0.2v4
		c0.2-0.3,0.6-0.5,1-0.7c0.4-0.2,0.9-0.3,1.5-0.3c0.8,0,1.5,0.2,2.2,0.6C35.6,24.7,36.1,25.3,36.4,25.9z M34.5,29.4
		c0.2-0.4,0.3-0.8,0.3-1.3s-0.1-0.9-0.3-1.3c-0.2-0.4-0.5-0.6-0.8-0.8c-0.3-0.2-0.7-0.3-1.2-0.3c-0.5,0-0.8,0.1-1.2,0.3
		c-0.3,0.2-0.6,0.5-0.8,0.8c-0.2,0.4-0.3,0.8-0.3,1.3c0,0.5,0.1,0.9,0.3,1.3c0.2,0.4,0.4,0.6,0.8,0.8c0.3,0.2,0.7,0.3,1.2,0.3
		c0.5,0,0.8-0.1,1.2-0.3S34.3,29.8,34.5,29.4z"/>
	<path class="st1" d="M46,28.7c-0.1,0.1-0.3,0.1-0.5,0.1l-5.6,0c0,0.7,0.3,1.2,0.8,1.5c0.5,0.4,1.1,0.5,1.9,0.5c0.4,0,0.7,0,1.1-0.1
		c0.3-0.1,0.6-0.2,0.9-0.3c0.1-0.1,0.2-0.1,0.2-0.1c0.1,0,0.1,0,0.2,0.1c0.1,0.1,0.2,0.1,0.3,0.3c0.2,0.2,0.3,0.4,0.3,0.5
		c0,0.1-0.1,0.2-0.2,0.3c-0.3,0.3-0.7,0.6-1.3,0.7c-0.5,0.2-1.1,0.3-1.8,0.3c-0.9,0-1.7-0.2-2.4-0.6s-1.2-0.9-1.6-1.5
		c-0.4-0.7-0.6-1.4-0.6-2.3c0-0.9,0.2-1.6,0.5-2.3c0.4-0.7,0.9-1.2,1.5-1.5c0.7-0.4,1.4-0.5,2.3-0.5c0.8,0,1.6,0.2,2.2,0.5
		c0.6,0.4,1.1,0.8,1.4,1.5c0.3,0.6,0.5,1.3,0.5,2.1c0,0.2,0,0.4-0.1,0.5C46.2,28.5,46.1,28.6,46,28.7z M40,27.3h4.4
		c-0.1-0.6-0.3-1-0.7-1.3c-0.4-0.3-0.9-0.4-1.5-0.4c-0.6,0-1.1,0.1-1.5,0.4C40.3,26.3,40.1,26.8,40,27.3z"/>
</g>
</svg>
