<?xml version="1.0" encoding="utf-8"?>
<!-- Generator: Adobe Illustrator 28.2.0, SVG Export Plug-In . SVG Version: 6.00 Build 0)  -->
<svg version="1.1" id="Layer_1" xmlns="http://www.w3.org/2000/svg" xmlns:xlink="http://www.w3.org/1999/xlink" x="0px" y="0px"
	 viewBox="0 0 72 85.5" style="enable-background:new 0 0 72 85.5;" xml:space="preserve">
<style type="text/css">
	.st0{fill:#EF3340;}
	.st1{fill:#FFFFFF;}
</style>
<path class="st0" d="M46.2,6.5c-6.5-2.6-13.8-2.6-20.3,0C11.5,12.2,4.3,25.1,4.5,37.9c0.1,8.1,3.2,16.3,9.2,22.5l18.5,19
	c2.1,2.2,5.5,2.2,7.6,0l18.5-19c6-6.2,9.1-14.3,9.2-22.5C67.7,25.1,60.6,12.2,46.2,6.5z M36,45c-5.2,0-9.3-4.3-9.3-9.6
	s4.2-9.6,9.3-9.6c5.2,0,9.3,4.3,9.3,9.6S41.2,45,36,45z"/>
<ellipse class="st1" cx="36" cy="35.4" rx="9.3" ry="9.6"/>
</svg>
