<?xml version="1.0" encoding="utf-8"?>
<!-- Generator: Adobe Illustrator 28.2.0, SVG Export Plug-In . SVG Version: 6.00 Build 0)  -->
<svg version="1.1" id="Layer_1" xmlns="http://www.w3.org/2000/svg" xmlns:xlink="http://www.w3.org/1999/xlink" x="0px" y="0px"
	 viewBox="0 0 72 85.5" style="enable-background:new 0 0 72 85.5;" xml:space="preserve">
<style type="text/css">
	.st0{fill:#EF3340;}
	.st1{fill:#FFFFFF;}
</style>
<g>
	<path class="st0" d="M26,6.7c6.5-2.6,13.8-2.6,20.4,0C60.8,12.5,68,25.3,67.8,38c-0.1,8.1-3.2,16.2-9.3,22.4L40,79.4
		c-2.1,2.2-5.5,2.2-7.7,0L13.8,60.4C7.7,54.2,4.6,46.2,4.5,38C4.3,25.3,11.5,12.5,26,6.7z"/>
</g>
<g>
	<path class="st1" d="M36.2,17.1L36.2,17.1c2,0,4,0.4,5.9,1.1c9.9,3.9,13.4,12.5,13.3,19.2c-0.1,5.2-2.1,10.1-5.7,13.7L36.1,65
		L22.6,51.1c-3.6-3.7-5.6-8.5-5.7-13.7c-0.1-6.7,3.3-15.3,13.3-19.3C32.1,17.4,34.1,17.1,36.2,17.1 M36.2,12.1
		c-2.6,0-5.3,0.5-7.8,1.5c-11.1,4.4-16.6,14.2-16.4,24c0.1,6.2,2.4,12.4,7.1,17.1l14.2,14.5c0.8,0.8,1.9,1.2,2.9,1.2
		c1.1,0,2.1-0.4,2.9-1.2l14.2-14.5c4.6-4.7,7-10.9,7.1-17.1c0.1-9.7-5.3-19.6-16.4-24C41.5,12.5,38.8,12.1,36.2,12.1L36.2,12.1z"/>
</g>
<path class="st1" d="M36.2,45.4c-5.3,0-9.7-4.4-9.7-9.8s4.3-9.8,9.7-9.8c5.3,0,9.7,4.4,9.7,9.8S41.5,45.4,36.2,45.4z M36.2,30.8
	c-2.6,0-4.7,2.1-4.7,4.8c0,2.6,2.1,4.8,4.7,4.8c2.6,0,4.7-2.1,4.7-4.8C40.8,33,38.7,30.8,36.2,30.8z"/>
</svg>
