<?xml version="1.0" encoding="utf-8"?>
<!-- Generator: Adobe Illustrator 28.2.0, SVG Export Plug-In . SVG Version: 6.00 Build 0)  -->
<svg version="1.1" id="Layer_1" xmlns="http://www.w3.org/2000/svg" xmlns:xlink="http://www.w3.org/1999/xlink" x="0px" y="0px"
	 viewBox="0 0 14 16" style="enable-background:new 0 0 14 16;" xml:space="preserve">
<style type="text/css">
	.st0{fill:#FFFFFF;}
</style>
<path class="st0" d="M9.2,0.4c-1.4-0.5-3-0.5-4.3,0C1.7,1.6,0.2,4.3,0.3,7c0,1.7,0.7,3.4,2,4.7l4,4c0.5,0.5,1.2,0.5,1.6,0l4-4
	c1.3-1.3,2-3,2-4.7C13.8,4.3,12.3,1.6,9.2,0.4z M7,8.5c-1.1,0-2-0.9-2-2s0.9-2,2-2c1.1,0,2,0.9,2,2S8.1,8.5,7,8.5z"/>
</svg>
