<?xml version="1.0" encoding="utf-8"?>
<!-- Generator: Adobe Illustrator 28.2.0, SVG Export Plug-In . SVG Version: 6.00 Build 0)  -->
<svg version="1.1" id="Layer_1" xmlns="http://www.w3.org/2000/svg" xmlns:xlink="http://www.w3.org/1999/xlink" x="0px" y="0px"
	 viewBox="0 0 14 16" style="enable-background:new 0 0 14 16;" xml:space="preserve">
<path d="M7,1.5L7,1.5c0.6,0,1.1,0.1,1.6,0.3c2.7,1.1,3.6,3.4,3.6,5.2c0,1.4-0.6,2.7-1.5,3.7L7,14.4l-3.7-3.7c-1-1-1.5-2.3-1.5-3.7
	c0-1.8,0.9-4.1,3.6-5.2C5.9,1.6,6.4,1.5,7,1.5 M7,0C6.3,0,5.5,0.1,4.8,0.4C1.7,1.6,0.2,4.3,0.3,7c0,1.7,0.7,3.4,2,4.7l4,4
	C6.4,15.9,6.7,16,7,16c0.3,0,0.6-0.1,0.8-0.3l4-4c1.3-1.3,2-3,2-4.7c0-2.7-1.5-5.4-4.6-6.6C8.5,0.1,7.7,0,7,0L7,0z"/>
<path d="M7,9.2C5.5,9.2,4.2,8,4.2,6.5S5.5,3.7,7,3.7S9.7,5,9.7,6.5S8.5,9.2,7,9.2z M7,5.2c-0.7,0-1.2,0.6-1.2,1.2S6.3,7.7,7,7.7
	s1.2-0.6,1.2-1.2S7.7,5.2,7,5.2z"/>
</svg>
