<?xml version="1.0" encoding="utf-8"?>
<!-- Generator: Adobe Illustrator 28.2.0, SVG Export Plug-In . SVG Version: 6.00 Build 0)  -->
<svg version="1.1" id="Layer_1" xmlns="http://www.w3.org/2000/svg" xmlns:xlink="http://www.w3.org/1999/xlink" x="0px" y="0px"
	 viewBox="0 0 81 81" style="enable-background:new 0 0 81 81;" xml:space="preserve">
<style type="text/css">
	.st0{fill:#43B776;}
	.st1{fill:#FFFFFF;}
</style>
<g>
	<path class="st0" d="M59.3,32.5c-0.7,0.1-1.1-0.8-0.6-1.3c1.5-1.5,2.7-3.4,3.4-5.3c2.2-5.7,0.9-12.7-4.9-17.6
		c-2.4-2.1-5.6-3.2-8.8-3.2c-7.6,0.1-13.1,4.6-15.1,10.4c-0.7,2-1,4.1-0.8,6.3c0.1,0.7-0.8,1.1-1.3,0.6c-1.5-1.5-3.4-2.7-5.3-3.4
		c-5.7-2.2-12.7-0.9-17.6,4.9c-2.1,2.4-3.2,5.6-3.2,8.8c0.1,7.6,4.6,13.1,10.4,15.1c2,0.7,4.1,1,6.3,0.8c0.7-0.1,1.1,0.8,0.6,1.3
		c-1.5,1.5-2.7,3.4-3.4,5.3c-2.2,5.7-0.9,12.7,4.9,17.6c2.4,2.1,5.6,3.2,8.8,3.2c7.6-0.1,13.1-4.6,15.1-10.4c0.7-2,1-4.1,0.8-6.3
		c-0.1-0.7,0.8-1.1,1.3-0.6c1.5,1.5,3.4,2.7,5.3,3.4c5.7,2.2,12.7,0.9,17.6-4.9c2.1-2.4,3.2-5.6,3.2-8.8
		c-0.1-7.6-4.6-13.1-10.4-15.1C63.5,32.6,61.4,32.4,59.3,32.5z"/>
	<path class="st1" d="M48.5,5.1c3.2,0,6.3,1.1,8.7,3.2c5.8,5,7,11.9,4.9,17.6c-0.8,2-1.9,3.8-3.4,5.3c-0.5,0.5-0.1,1.3,0.5,1.3
		c0,0,0,0,0.1,0c0.4,0,0.8-0.1,1.3-0.1c1.7,0,3.4,0.3,5,0.8c5.8,2,10.3,7.4,10.4,15.1c0,3.2-1.1,6.4-3.2,8.8
		c-3.5,4-7.9,5.9-12.2,5.9c-1.9,0-3.7-0.3-5.4-1c-2-0.8-3.8-1.9-5.3-3.4c-0.2-0.2-0.3-0.2-0.5-0.2c-0.4,0-0.8,0.3-0.8,0.8
		c0.2,2.1-0.1,4.3-0.8,6.3c-2,5.8-7.4,10.3-15.1,10.4c0,0-0.1,0-0.1,0c-3.2,0-6.3-1.1-8.7-3.2c-5.8-5-7-11.9-4.9-17.6
		c0.8-2,1.9-3.8,3.4-5.3c0.5-0.5,0.1-1.3-0.5-1.3c0,0,0,0-0.1,0c-0.4,0-0.8,0.1-1.3,0.1c-1.7,0-3.4-0.3-5-0.8
		c-5.8-2-10.3-7.4-10.4-15.1c0-3.2,1.1-6.4,3.2-8.8c3.5-4,7.9-5.9,12.2-5.9c1.9,0,3.7,0.3,5.4,1c2,0.8,3.8,1.9,5.3,3.4
		c0.2,0.2,0.3,0.2,0.5,0.2c0.4,0,0.8-0.3,0.8-0.8c-0.2-2.1,0.1-4.3,0.8-6.3c2-5.8,7.4-10.3,15.1-10.4C48.4,5.1,48.5,5.1,48.5,5.1
		 M48.5,0L48.5,0l-0.2,0c-9.1,0.1-16.9,5.5-19.8,13.8c-0.1,0.2-0.1,0.4-0.2,0.6c-0.2-0.1-0.4-0.2-0.6-0.2c-2.3-0.9-4.8-1.3-7.2-1.3
		c-6.1,0-11.8,2.7-16,7.6C1.5,23.9,0,28.2,0,32.6c0.1,9.1,5.5,16.9,13.8,19.8c0.2,0.1,0.4,0.1,0.6,0.2c-0.1,0.2-0.2,0.4-0.2,0.6
		c-3.1,8.2-0.6,17.4,6.3,23.3c3.3,2.9,7.6,4.4,12,4.4l0.2,0c9.1-0.1,16.9-5.5,19.8-13.8c0.1-0.2,0.1-0.4,0.2-0.6
		c0.2,0.1,0.4,0.2,0.6,0.2c2.3,0.9,4.8,1.3,7.2,1.3c6.1,0,11.8-2.7,16-7.6c2.9-3.4,4.5-7.7,4.4-12.2c-0.1-9.1-5.5-16.9-13.8-19.8
		c-0.2-0.1-0.4-0.1-0.6-0.2c0.1-0.2,0.2-0.4,0.2-0.6c3.1-8.2,0.6-17.4-6.3-23.3C57.2,1.6,52.9,0,48.5,0L48.5,0z"/>
</g>
</svg>
