<?xml version="1.0" encoding="utf-8"?>
<!-- Generator: Adobe Illustrator 28.2.0, SVG Export Plug-In . SVG Version: 6.00 Build 0)  -->
<svg version="1.1" id="Layer_1" xmlns="http://www.w3.org/2000/svg" xmlns:xlink="http://www.w3.org/1999/xlink" x="0px" y="0px"
	 viewBox="0 0 20 16" style="enable-background:new 0 0 20 16;" xml:space="preserve">
<style type="text/css">
	.st0{fill:#EF3340;}
</style>
<path class="st0" d="M10,16c-1.6,0-3.3,0-4.9,0c-0.8,0-1.1-0.4-1-1.2c0.2-2,1.5-3.3,3.4-3.8C7.6,11,7.9,11,8.2,11c1.2,0,2.3,0,3.5,0
	c2.1,0,3.8,1.3,4.2,3.4c0,0.2,0.1,0.4,0.1,0.6c0,0.7-0.3,1-1,1C13.3,16,11.6,16,10,16z M14.4,14.5c0-0.1-0.1-0.2-0.1-0.3
	c-0.4-1-1.3-1.7-2.5-1.7c-1.2,0-2.4,0-3.6,0c-0.8,0-1.5,0.3-2.1,1c-0.3,0.3-0.4,0.6-0.5,1C8.5,14.5,11.4,14.5,14.4,14.5z M7,7
	c0-1.6,1.4-3,3-3c1.6,0,3,1.4,3,3c0,1.6-1.4,3-3,3C8.3,10,7,8.6,7,7z M11.5,7c0-0.8-0.7-1.5-1.5-1.5C9.1,5.5,8.5,6.2,8.5,7
	c0,0.8,0.7,1.5,1.5,1.5C10.8,8.5,11.5,7.8,11.5,7z M4.5,0C3.1,0,2,1.2,2,2.5C2,3.9,3.1,5,4.5,5C5.8,5,7,3.8,7,2.5
	C6.9,1.1,5.8,0,4.5,0z M15.4,5c1.3,0,2.5-1.1,2.5-2.5c0-1.4-1.1-2.5-2.5-2.5c-1.3,0-2.5,1.1-2.5,2.5C12.9,3.8,14,5,15.4,5z M7.3,10
	C6.5,9.3,6,8.2,6,7C6,6.8,6,6.5,6,6.3C5.6,6.1,5.1,6,4.6,6C4.2,6,3.8,6,3.4,6c-0.4-0.1-0.7-0.2-1-0.5C1.1,4.4,1.2,2.4,1.6,0.9
	c0.1-0.4,0-0.8-0.5-0.9C0.7-0.1,0.4,0.2,0.3,0.6C0,1.7-0.1,2.9,0,4.1c0.1,0.5,0.2,1,0.4,1.5C0.5,5.8,0.6,6,0.7,6.2
	c0.2,0.3,0.1,0.7,0,1C0.6,7.4,0.5,7.6,0.4,7.8C0.1,8.3,0,8.8,0,9.3C0,9.7,0.3,10,0.6,10C0.6,10,7.3,10,7.3,10z M19.3,10
	c0.4,0,0.7-0.3,0.7-0.7c0-0.5-0.1-1.1-0.4-1.5c-0.1-0.2-0.3-0.4-0.4-0.6c-0.1-0.3-0.1-0.7,0-1c0.1-0.2,0.2-0.4,0.3-0.5
	c0.2-0.5,0.3-1,0.4-1.5c0.2-1.2,0-2.4-0.2-3.5c-0.1-0.4-0.4-0.7-0.8-0.6c-0.4,0.1-0.5,0.5-0.5,0.9c0.3,1.5,0.5,3.5-0.8,4.6
	c-0.3,0.2-0.6,0.4-1,0.5c-0.4,0.1-0.8,0-1.2,0c-0.5,0-1,0.1-1.4,0.3C14,6.5,14,6.8,14,7c0,1.2-0.5,2.3-1.4,3
	C12.6,10,19.3,10,19.3,10z"/>
</svg>
