<?xml version="1.0" encoding="utf-8"?>
<!-- Generator: Adobe Illustrator 28.2.0, SVG Export Plug-In . SVG Version: 6.00 Build 0)  -->
<svg version="1.1" id="Layer_1" xmlns="http://www.w3.org/2000/svg" xmlns:xlink="http://www.w3.org/1999/xlink" x="0px" y="0px"
	 viewBox="0 0 20 16" style="enable-background:new 0 0 20 16;" xml:space="preserve">
<style type="text/css">
	.st0{fill:#EF3340;}
</style>
<path class="st0" d="M7,7c0-1.7,1.3-3,3-3s3,1.3,3,3s-1.3,3-3,3S7,8.7,7,7z M4.5,5C5.9,5,7,3.9,7,2.5C7,1.1,5.9,0,4.5,0S2,1.1,2,2.5
	C2,3.9,3.1,5,4.5,5z M15.4,5c1.4,0,2.5-1.1,2.5-2.5c0-1.4-1.1-2.5-2.5-2.5s-2.5,1.1-2.5,2.5C12.9,3.9,14,5,15.4,5z M7.3,10
	C6.5,9.3,6,8.2,6,7C6,6.8,6,6.5,6,6.3C5.6,6.1,5.1,6,4.6,6C4.2,6,3.8,6.1,3.4,6c-0.4-0.1-0.7-0.2-1-0.5C1.1,4.4,1.2,2.4,1.6,0.9
	c0.1-0.4,0-0.8-0.5-0.9C0.7-0.1,0.4,0.2,0.3,0.6C0,1.7-0.1,2.9,0,4.1c0.1,0.5,0.2,1,0.4,1.5C0.5,5.8,0.6,6,0.7,6.2
	c0.2,0.3,0.1,0.7,0,1C0.6,7.4,0.5,7.6,0.4,7.8C0.1,8.3,0,8.8,0,9.3C0,9.7,0.3,10,0.6,10C0.6,10,7.3,10,7.3,10z M11.8,11H8.1
	C5.8,11,4,12.9,4,15.2C4,15.6,4.3,16,4.8,16h10.3c0.5,0,0.8-0.4,0.8-0.8C16,12.9,14.1,11,11.8,11z M19.3,10c0.4,0,0.7-0.3,0.7-0.7
	c0-0.5-0.1-1.1-0.4-1.5c-0.1-0.2-0.3-0.4-0.4-0.6c-0.1-0.3-0.1-0.7,0-1c0.1-0.2,0.2-0.4,0.3-0.5c0.2-0.5,0.3-1,0.4-1.5
	c0.2-1.2,0-2.4-0.2-3.5c-0.1-0.4-0.4-0.7-0.8-0.6c-0.4,0.1-0.5,0.5-0.5,0.9c0.3,1.5,0.5,3.5-0.8,4.6c-0.3,0.2-0.6,0.4-1,0.5
	c-0.4,0.1-0.8,0-1.2,0c-0.5,0-1,0.1-1.4,0.3C14,6.5,14,6.8,14,7c0,1.2-0.5,2.3-1.4,3C12.6,10,19.3,10,19.3,10z"/>
</svg>
