<?xml version="1.0" encoding="utf-8"?>
<!-- Generator: Adobe Illustrator 28.2.0, SVG Export Plug-In . SVG Version: 6.00 Build 0)  -->
<svg version="1.1" id="Layer_1" xmlns="http://www.w3.org/2000/svg" xmlns:xlink="http://www.w3.org/1999/xlink" x="0px" y="0px"
	 viewBox="0 0 99 81" style="enable-background:new 0 0 99 81;" xml:space="preserve">
<style type="text/css">
	.st0{fill:#685BC7;}
	.st1{fill:#FFFFFF;}
</style>
<g>
	<path class="st0" d="M68.9,64.5C68.9,64.5,69,64.4,68.9,64.5c0.1-0.1,0.1-0.1,0.1-0.1c0.1-0.1,0.2-0.1,0.3-0.2c0,0,0,0,0.1,0
		c3.2-1.9,6.9-3,10.8-3.1c0,0,0,0,0,0s0,0,0,0c0,0,0,0,0,0c0.1,0,0.1,0,0.2,0c0.1,0,0.1,0,0.2,0c0,0,0,0,0,0c0,0,0,0,0,0
		c0,0,0,0,0,0c3.5,0,6.8,0.9,9.8,2.5c1.4,0.8,2.8,1.7,4,2.7v-5.4v-5V18.7c-3.9-3.3-8.8-5.2-14.1-5.2c-4.1,0-7.9,1.1-11.2,3.2
		c0,0-0.1,0-0.1,0.1l0.1-0.1c0,0-0.1,0-0.1,0.1c-1.3,0.8-2.8,1.5-4.3,2c-2.2,0.7-4.5,1.1-6.9,1.1c0,0,0,0-0.1,0s0,0-0.1,0
		c-2.4,0-4.7-0.4-6.9-1.1c-1.5-0.5-2.9-1.2-4.3-2c0,0-0.1,0-0.1-0.1l0.1,0.1c0,0-0.1,0-0.1-0.1c-3.3-2-7.1-3.2-11.2-3.2
		c-4.8,0-9.2,1.6-12.8,4.2c0,0-0.1,0.1-0.1,0.1c-0.4,0.3-0.8,0.6-1.1,0.9h0v37.2v5v5.4h0c1.2-1.1,2.6-2,4-2.7c0,0,0,0,0,0
		c0,0,0.1,0,0.1,0c0,0,0,0,0,0c3-1.6,6.4-2.4,10-2.4c4.1,0,7.9,1.1,11.1,3.1c0.1,0.1,0.2,0.1,0.3,0.2l-0.3-0.2
		c0.1,0.1,0.2,0.1,0.3,0.2c1.3,0.8,2.7,1.4,4.2,1.9c0,0,0,0,0,0c2.2,0.7,4.5,1.1,6.9,1.1s4.7-0.4,6.9-1.1c0,0,0,0,0,0
		C66.3,65.9,67.6,65.2,68.9,64.5C68.9,64.5,69,64.4,68.9,64.5c0.1,0,0.1-0.1,0.1-0.1c0.1-0.1,0.2-0.1,0.3-0.2c0,0,0,0,0.1,0"/>
	<g>
		<path class="st1" d="M42.6,28.5c-1.1-0.3-1.7-0.4-2.8-0.6c0,0,0,0-0.1,0c-0.1,0-0.2,0-0.3,0.1c-0.1,0.1-0.1,0.2-0.1,0.3l0,3.9
			l0,3.4c-1.1-0.1-2.3-0.2-3.4-0.2c-0.8,0-1.6,0-2.4,0.1v0l0-7.3c0-0.1-0.1-0.2-0.1-0.3c-0.1-0.1-0.2-0.1-0.3-0.1c0,0,0,0-0.1,0
			c-1.1,0.1-1.7,0.2-2.8,0.5c-0.2,0-0.3,0.2-0.3,0.4v19.4c0,0.1,0.1,0.3,0.2,0.3c0.1,0.1,0.2,0.1,0.3,0.1c0,0,0.1,0,0.1,0
			c1.1-0.3,1.6-0.4,2.7-0.5c0.2,0,0.4-0.2,0.4-0.4l0-7.9c0.8-0.1,1.6-0.1,2.4-0.1c1.1,0,2.2,0.1,3.4,0.2l0,3.8l0,4.2
			c0,0.2,0.1,0.4,0.4,0.4c1.1,0.2,1.6,0.3,2.7,0.6c0,0,0.1,0,0.1,0c0.1,0,0.2,0,0.3-0.1c0.1-0.1,0.2-0.2,0.2-0.3l0-8.3l0-11.1
			C42.9,28.8,42.8,28.6,42.6,28.5z"/>
		<path class="st1" d="M56.8,33c-3.4-0.3-6.5-1.1-9.5-2.6c-0.1,0-0.1,0-0.2,0c-0.1,0-0.2,0-0.2,0.1c-0.1,0.1-0.2,0.2-0.2,0.4l0,9.7
			l0,9.7c0,0.2,0.1,0.3,0.2,0.4c3.1,1.5,6.3,2.4,9.8,2.6c0,0,0,0,0,0c0.1,0,0.2,0,0.3-0.1c0.1-0.1,0.1-0.2,0.1-0.3l0-3.2
			c0-0.2-0.2-0.4-0.4-0.4c-2.4-0.2-4.5-0.6-6.7-1.3l0-4.3c2,0.7,4,1.1,6.2,1.3c0,0,0,0,0,0c0.1,0,0.2,0,0.3-0.1
			c0.1-0.1,0.1-0.2,0.1-0.3l0-1.6l0-1.6c0-0.2-0.2-0.4-0.4-0.4c-2.2-0.2-4.2-0.6-6.2-1.3l0-3.7c2.2,0.7,4.3,1.1,6.7,1.3c0,0,0,0,0,0
			c0.1,0,0.2,0,0.3-0.1c0.1-0.1,0.1-0.2,0.1-0.3l0-0.4l0-2.9C57.1,33.2,57,33,56.8,33z"/>
		<path class="st1" d="M71.2,46.2c-0.7-1.4-1.4-2.8-2.2-4.2c1.4-1.7,2.2-4,2.3-6.5c0-1.6-0.4-2.8-1.1-3.6c-0.5-0.5-1.2-0.8-2-0.8h0
			c-0.6,0-1.3,0.1-2,0.4c-1.4,0.5-3,1-4.7,1.2c-0.2,0-0.4,0.2-0.4,0.4l0,19.4c0,0.1,0.1,0.2,0.1,0.3c0.1,0.1,0.2,0.1,0.3,0.1
			c0,0,0,0,0.1,0c1.1-0.2,1.7-0.3,2.8-0.6c0.2,0,0.3-0.2,0.3-0.4l0-7.7c0.2,0,0.3-0.1,0.5-0.2c0.2-0.1,0.4-0.1,0.5-0.2
			c1.2,2.4,2.2,4.4,3.1,6.2c0,0.1,0.1,0.2,0.2,0.2c0,0,0.1,0,0.1,0c0.1,0,0.1,0,0.2,0c0.9-0.5,1.9-0.9,2.8-1.2
			c0.1,0,0.2-0.1,0.3-0.2c0-0.1,0-0.2,0-0.4C72,47.8,71.6,46.9,71.2,46.2z M68.2,31.5c0.1,0,0.1,0,0.2,0
			C68.3,31.5,68.2,31.5,68.2,31.5C68.1,31.5,68.2,31.5,68.2,31.5z M64.6,40.2l0-0.4l0-3.8c0.6-0.2,0.9-0.3,1.5-0.5c0,0,0,0,0,0
			c0.3-0.1,0.6-0.2,0.9-0.2c0.2,0,0.6,0,0.8,0.3c0.2,0.2,0.3,0.5,0.2,0.9c-0.1,0.7-0.4,2.6-2.1,3.2C65.3,40,65,40.1,64.6,40.2z"/>
		<path class="st1" d="M85.9,32.5C85.9,32.5,85.9,32.5,85.9,32.5c0.2,0,0.3,0,0.4-0.1c0.1-0.1,0.2-0.2,0.2-0.3v-3.2
			c0-0.2-0.1-0.4-0.3-0.4c-2.2-0.5-4.2-0.8-6.4-0.8v0.4l0-0.4c-1.3,0-2.6,0.1-3.9,0.3c-0.2,0-0.4,0.2-0.4,0.4l0,9.7l0,9.7
			c0,0.1,0.1,0.2,0.1,0.3c0.1,0.1,0.2,0.1,0.3,0.1c0,0,0,0,0.1,0c1.3-0.2,2.6-0.3,3.8-0.3c2.1,0,4.1,0.2,6.2,0.7c0,0,0.1,0,0.1,0
			c0.1,0,0.2,0,0.3-0.1c0.1-0.1,0.2-0.2,0.2-0.3v-3.2c0-0.2-0.1-0.4-0.3-0.4c-2.3-0.5-4.4-0.8-6.7-0.8c-0.1,0-0.2,0-0.2,0l0-4.3
			c0.1,0,0.1,0,0.2,0c2.1,0,4.1,0.2,6.1,0.7c0,0,0.1,0,0.1,0c0.1,0,0.2,0,0.3-0.1c0.1-0.1,0.2-0.2,0.2-0.3l0-3.2
			c0-0.2-0.1-0.4-0.3-0.4c-2.1-0.5-4.2-0.7-6.3-0.7c-0.1,0-0.1,0-0.2,0l0-1l0-2.7c0.1,0,0.2,0,0.2,0C81.6,31.7,83.7,32,85.9,32.5z
			 M79.3,44.3c0.1,0,0.1,0,0.2,0C79.4,44.3,79.3,44.3,79.3,44.3C79.3,44.3,79.3,44.3,79.3,44.3z M79.3,35.9
			C79.3,35.9,79.3,35.9,79.3,35.9C79.3,35.9,79.3,35.9,79.3,35.9C79.2,35.9,79.3,35.9,79.3,35.9z"/>
	</g>
	<path class="st0" d="M19.5,12c0-4.1-3.4-7.5-7.5-7.5S4.5,7.9,4.5,12c0,2.8,1.5,5.2,3.8,6.5v57.2c0,0.5,0.4,0.9,0.8,0.9h5.8
		c0.5,0,0.8-0.4,0.8-0.9V18.5C18,17.2,19.5,14.8,19.5,12z"/>
</g>
</svg>
