<?xml version="1.0" encoding="utf-8"?>
<!-- Generator: Adobe Illustrator 28.2.0, SVG Export Plug-In . SVG Version: 6.00 Build 0)  -->
<svg version="1.1" id="Layer_1" xmlns="http://www.w3.org/2000/svg" xmlns:xlink="http://www.w3.org/1999/xlink" x="0px" y="0px"
	 viewBox="0 0 81 81" style="enable-background:new 0 0 81 81;" xml:space="preserve">
<style type="text/css">
	.st0{fill:#EF3340;}
	.st1{fill:#FFFFFF;}
</style>
<g>
	<path class="st0" d="M71.4,51.5L49.5,41l22-7.7l-2.3-6.5l-22,7.7l10.5-22l-6.2-3L41,31.5l-7.7-22l-6.5,2.3l7.7,22l-22-10.5l-3,6.2
		l22,10.5l-22,7.7l2.3,6.5l22-7.7l-10.5,22l6.2,3l10.5-22l7.7,22l6.5-2.3l-7.7-22l22,10.5L71.4,51.5z M39,43.6
		c-1.7-0.8-2.4-2.9-1.6-4.6c0.8-1.7,2.9-2.4,4.6-1.6s2.4,2.9,1.6,4.6C42.8,43.7,40.7,44.4,39,43.6z"/>
	<path class="st1" d="M51.5,9.5l6.2,3l-10.5,22l22-7.7l2.3,6.5l-22,7.7l22,10.5l-3,6.2l-22-10.5l7.7,22l-6.5,2.3l-7.7-22l-10.5,22
		l-6.2-3l10.5-22l-22,7.7l-2.3-6.5l22-7.7l-22-10.5l3-6.2l22,10.5l-7.7-22l6.5-2.3l7.7,22L51.5,9.5 M40.3,43.9
		c1.4,0.1,2.7-0.6,3.3-1.9c0.8-1.7,0.1-3.8-1.6-4.6c-0.4-0.2-0.9-0.3-1.3-0.3C39.3,37,38,37.7,37.4,39c-0.8,1.7-0.1,3.8,1.6,4.6
		C39.4,43.8,39.9,43.9,40.3,43.9 M51.8,4.5c-2-0.1-3.9,1-4.8,2.8l-5.3,11L38,7.9c-0.7-2-2.5-3.2-4.5-3.4c-0.6,0-1.3,0-2,0.3
		l-6.5,2.3c-1.3,0.4-2.3,1.4-2.9,2.6c-0.6,1.2-0.7,2.6-0.2,3.8L25.7,24l-11-5.3c-0.6-0.3-1.2-0.5-1.9-0.5c-2-0.1-3.9,1-4.8,2.8
		l-3,6.2c-0.6,1.2-0.7,2.6-0.2,3.8c0.4,1.3,1.4,2.3,2.6,2.9l11,5.3L7.9,43c-1.3,0.4-2.3,1.4-2.9,2.6c-0.6,1.2-0.7,2.6-0.2,3.8
		l2.3,6.5c0.7,2,2.5,3.2,4.5,3.4c0.6,0,1.3,0,2-0.3L24,55.3l-5.3,11c-0.6,1.2-0.7,2.6-0.2,3.8c0.4,1.3,1.4,2.3,2.6,2.9l6.2,3
		c0.6,0.3,1.2,0.5,1.9,0.5c2,0.1,3.9-1,4.8-2.8l5.3-11L43,73.1c0.7,2,2.5,3.2,4.5,3.4c0.6,0,1.3,0,2-0.3l6.5-2.3
		c1.3-0.4,2.3-1.4,2.9-2.6c0.6-1.2,0.7-2.6,0.2-3.8L55.3,57l11,5.3c0.6,0.3,1.2,0.5,1.9,0.5c2,0.1,3.9-1,4.8-2.8l3-6.2
		c0.6-1.2,0.7-2.6,0.2-3.8c-0.4-1.3-1.4-2.3-2.6-2.9l-11-5.3L73.1,38c1.3-0.4,2.3-1.4,2.9-2.6c0.6-1.2,0.7-2.6,0.2-3.8l-2.3-6.5
		c-0.7-2-2.5-3.2-4.5-3.4c-0.6,0-1.3,0-2,0.3L57,25.7l5.3-11c0.6-1.2,0.7-2.6,0.2-3.8C62,9.6,61.1,8.6,59.9,8l-6.2-3
		C53.1,4.7,52.5,4.6,51.8,4.5L51.8,4.5z"/>
</g>
</svg>
