<?xml version="1.0" encoding="utf-8"?>
<!-- Generator: Adobe Illustrator 28.2.0, SVG Export Plug-In . SVG Version: 6.00 Build 0)  -->
<svg version="1.1" id="Layer_1" xmlns="http://www.w3.org/2000/svg" xmlns:xlink="http://www.w3.org/1999/xlink" x="0px" y="0px"
	 viewBox="0 0 90 90" style="enable-background:new 0 0 90 90;" xml:space="preserve">
<style type="text/css">
	.st0{fill:#F04C54;}
	.st1{fill:#FFFFFF;}
</style>
<g>
	<circle class="st0" cx="45" cy="45" r="36"/>
	<path class="st1" d="M45,9c19.9,0,36,16.1,36,36S64.9,81,45,81S9,64.9,9,45S25.1,9,45,9 M45,4C22.4,4,4,22.4,4,45s18.4,41,41,41
		s41-18.4,41-41S67.6,4,45,4L45,4z"/>
	<path class="st1" d="M65.4,32.9c-1-2.4-2.7-4.3-4.9-5.3C55.7,25.3,51,26.7,48,30c-1.9,2.1-3,5-3,8.1c0-3.2-1.2-6-3-8.1
		c-2.9-3.3-7.6-4.7-12.5-2.4c-2.2,1-3.9,2.9-4.9,5.3c-2,4.9-1,9.7,1.6,12.9L37,58.7l6.7,7.7c0.7,0.8,1.9,0.8,2.6,0l6.8-7.8l10-12
		C66.2,43.3,67.5,38.1,65.4,32.9z"/>
</g>
</svg>
