<?xml version="1.0" encoding="utf-8"?>
<!-- Generator: Adobe Illustrator 28.2.0, SVG Export Plug-In . SVG Version: 6.00 Build 0)  -->
<svg version="1.1" id="Layer_1" xmlns="http://www.w3.org/2000/svg" xmlns:xlink="http://www.w3.org/1999/xlink" x="0px" y="0px"
	 viewBox="0 0 153 81" style="enable-background:new 0 0 153 81;" xml:space="preserve">
<style type="text/css">
	.st0{fill:#B397F7;}
</style>
<path class="st0" d="M148.5,21c-12.4,0-18.6-3.1-24.7-6.2c-6-3-11.7-5.8-23.3-5.8s-17.3,2.8-23.3,5.8c-6.1,3-12.3,6.2-24.7,6.2
	c-12.4,0-18.6-3.1-24.7-6.2c-6-3-11.7-5.8-23.3-5.8V6c12.4,0,18.6,3.1,24.7,6.2c6,3,11.7,5.8,23.3,5.8c11.6,0,17.3-2.8,23.3-5.8
	c6.1-3,12.3-6.2,24.7-6.2s18.6,3.1,24.7,6.2c6,3,11.7,5.8,23.3,5.8V21z"/>
<path class="st0" d="M148.5,34.5c-12.4,0-18.6-3.1-24.7-6.2c-6-3-11.7-5.8-23.3-5.8s-17.3,2.8-23.3,5.8c-6.1,3-12.3,6.2-24.7,6.2
	c-12.4,0-18.6-3.1-24.7-6.2c-6-3-11.7-5.8-23.3-5.8v-3c12.4,0,18.6,3.1,24.7,6.2c6,3,11.7,5.8,23.3,5.8c11.6,0,17.3-2.8,23.3-5.8
	c6.1-3,12.3-6.2,24.7-6.2s18.6,3.1,24.7,6.2c6,3,11.7,5.8,23.3,5.8V34.5z"/>
<path class="st0" d="M148.5,48c-12.4,0-18.6-3.1-24.7-6.2c-6-3-11.7-5.8-23.3-5.8s-17.3,2.8-23.3,5.8c-6.1,3-12.3,6.2-24.7,6.2
	c-12.4,0-18.6-3.1-24.7-6.2c-6-3-11.7-5.8-23.3-5.8v-3c12.4,0,18.6,3.1,24.7,6.2c6,3,11.7,5.8,23.3,5.8c11.6,0,17.3-2.8,23.3-5.8
	c6.1-3,12.3-6.2,24.7-6.2s18.6,3.1,24.7,6.2c6,3,11.7,5.8,23.3,5.8V48z"/>
<path class="st0" d="M148.5,61.5c-12.4,0-18.6-3.1-24.7-6.2c-6-3-11.7-5.8-23.3-5.8s-17.3,2.8-23.3,5.8c-6.1,3-12.3,6.2-24.7,6.2
	c-12.4,0-18.6-3.1-24.7-6.2c-6-3-11.7-5.8-23.3-5.8v-3c12.4,0,18.6,3.1,24.7,6.2c6,3,11.7,5.8,23.3,5.8c11.6,0,17.3-2.8,23.3-5.8
	c6.1-3,12.3-6.2,24.7-6.2s18.6,3.1,24.7,6.2c6,3,11.7,5.8,23.3,5.8V61.5z"/>
<path class="st0" d="M148.5,75c-12.4,0-18.6-3.1-24.7-6.2c-6-3-11.7-5.8-23.3-5.8s-17.3,2.8-23.3,5.8c-6.1,3-12.3,6.2-24.7,6.2
	c-12.4,0-18.6-3.1-24.7-6.2c-6-3-11.7-5.8-23.3-5.8v-3c12.4,0,18.6,3.1,24.7,6.2c6,3,11.7,5.8,23.3,5.8c11.6,0,17.3-2.8,23.3-5.8
	c6.1-3,12.3-6.2,24.7-6.2s18.6,3.1,24.7,6.2c6,3,11.7,5.8,23.3,5.8V75z"/>
</svg>
