<?xml version="1.0" encoding="utf-8"?>
<!-- Generator: Adobe Illustrator 28.2.0, SVG Export Plug-In . SVG Version: 6.00 Build 0)  -->
<svg version="1.1" id="Layer_1" xmlns="http://www.w3.org/2000/svg" xmlns:xlink="http://www.w3.org/1999/xlink" x="0px" y="0px"
	 viewBox="0 0 81 76.5" style="enable-background:new 0 0 81 76.5;" xml:space="preserve">
<style type="text/css">
	.st0{fill:#FFB25B;}
</style>
<g>
	<path class="st0" d="M74.9,15.2c-1.6-3.9-4.5-7.1-8.2-8.9c-8.1-3.8-16-1.5-21,4c-3.2,3.5-5.1,8.3-5.1,13.6c0-5.3-1.9-10-5.1-13.6
		c-4.9-5.5-12.9-7.8-21-4c-3.7,1.7-6.6,4.9-8.2,8.9C3,23.4,4.7,31.4,9,36.8l18,21.4L38.5,71c1.2,1.3,3.2,1.3,4.4,0l11.4-13
		l16.9-20.1C76.3,32.5,78.4,24,74.9,15.2z"/>
</g>
</svg>
