<?xml version="1.0" encoding="utf-8"?>
<!-- Generator: Adobe Illustrator 28.2.0, SVG Export Plug-In . SVG Version: 6.00 Build 0)  -->
<svg version="1.1" id="Layer_1" xmlns="http://www.w3.org/2000/svg" xmlns:xlink="http://www.w3.org/1999/xlink" x="0px" y="0px"
	 viewBox="0 0 945 202.5" style="enable-background:new 0 0 945 202.5;" xml:space="preserve">
<style type="text/css">
	.st0{fill:#1C1F2A;}
</style>
<g>
	<path class="st0" d="M131.2,92.8c5.1,10.4,7.6,22.3,7.6,35.6c0,12.8-2.3,24.4-6.9,34.7c-4.6,10.4-11.2,18.5-19.8,24.4
		c-8.6,5.9-18.5,8.9-29.8,8.9c-10.7,0-19.7-2.6-27-7.8c-7.3-5.2-12.4-11.9-15.4-20.1h-3.3l-2,20.6c-0.3,2.6-1.5,4-3.8,4H8.6
		c-1.1,0-2.1-0.4-2.8-1.1c-0.8-0.8-1.1-1.7-1.1-2.8V11.8c0-1.2,0.4-2.2,1.1-2.9c0.8-0.7,1.7-1.1,2.8-1.1H34c1.2,0,2.2,0.4,2.9,1.1
		c0.7,0.7,1.1,1.7,1.1,2.9v63.3c3.7-4.7,8.7-8.5,14.9-11.3c6.2-2.9,13.9-4.3,23-4.3c12.8,0,24,3,33.5,8.9S126.1,82.4,131.2,92.8z
		 M101.9,147.8c2.9-5.7,4.4-12.3,4.4-19.9c0-7.6-1.5-14.2-4.4-19.9c-2.9-5.7-7-10.1-12.2-13.1c-5.3-3-11.4-4.6-18.3-4.6
		c-7,0-13.1,1.5-18.3,4.6c-5.3,3-9.3,7.4-12.2,13c-2.9,5.6-4.3,12.3-4.3,20c0,7.7,1.4,14.3,4.3,20c2.9,5.6,6.9,10,12.2,13.1
		c5.3,3.1,11.4,4.6,18.3,4.6c7,0,13.1-1.5,18.3-4.6C94.9,157.9,99,153.5,101.9,147.8z"/>
	<path class="st0" d="M282.4,135.8c-1.7,0.9-4.3,1.4-7.6,1.4l-86.7-0.1c0.7,10.4,4.8,18.5,12.3,24.2c7.5,5.7,17.3,8.6,29.5,8.6
		c5.8,0,11.3-0.7,16.5-2c5.2-1.3,9.9-3.1,14-5.4c1.5-0.8,2.8-1.2,3.8-1.2c1.1,0,2.3,0.4,3.4,1.3c1.1,0.8,2.5,2.2,4,4.2
		c2.9,3.6,4.4,6.4,4.4,8.5c0,1.7-1,3.4-2.9,5.3c-4.9,4.9-11.5,8.7-19.7,11.7c-8.2,2.9-17.3,4.4-27.3,4.4c-13.9,0-26.1-2.9-36.7-8.7
		c-10.6-5.8-18.8-13.9-24.6-24.2c-5.8-10.4-8.7-22.3-8.7-35.8c0-13.4,2.8-25.3,8.4-35.6c5.6-10.3,13.5-18.4,23.7-24.1
		c10.2-5.7,21.9-8.6,35.1-8.6c13.1,0,24.4,2.8,33.9,8.3c9.5,5.5,16.8,13.1,21.8,22.9s7.5,20.9,7.5,33.4c0,3.2-0.3,5.7-0.9,7.5
		C285.3,133.5,284.1,134.9,282.4,135.8z M189.3,114.7h67.9c-1.2-8.8-4.8-15.5-10.7-20.1c-5.9-4.6-13.5-6.8-22.9-6.8
		c-9.3,0-16.9,2.3-22.8,6.9C194.8,99.3,190.9,105.9,189.3,114.7z"/>
	<path class="st0" d="M490,85.5c4,8.3,6,18.2,6,29.5v74.3c0,1.1-0.4,2.1-1.1,2.8c-0.7,0.7-1.7,1.1-2.9,1.1h-25.4
		c-1.1,0-2.1-0.4-2.9-1.1c-0.7-0.7-1.1-1.7-1.1-2.8v-67.9c0-9.5-2.5-17-7.6-22.5c-5.1-5.5-12.2-8.3-21.4-8.3
		c-9.1,0-16.2,2.8-21.3,8.3c-5.1,5.5-7.7,13-7.7,22.5v67.9c0,1.1-0.4,2.1-1.1,2.8c-0.7,0.7-1.7,1.1-2.9,1.1h-25.4
		c-1.1,0-2.1-0.4-2.9-1.1s-1.1-1.7-1.1-2.8v-177c0-1.2,0.4-2.2,1.1-2.9c0.8-0.7,1.7-1.1,2.9-1.1h25.4c1.2,0,2.2,0.4,2.9,1.1
		c0.7,0.7,1.1,1.7,1.1,2.9v73.1h4.1c3.4-7.5,8.5-13.6,15.3-18.4c6.8-4.8,15.1-7.1,24.8-7.1c9.3,0,17.5,2.2,24.6,6.6
		C480.5,70.8,486,77.1,490,85.5z"/>
	<path class="st0" d="M643.2,135.9c-1.7,0.9-4.3,1.4-7.6,1.4l-86.8-0.1c0.7,10.4,4.8,18.5,12.3,24.2c7.5,5.7,17.4,8.6,29.6,8.6
		c5.8,0,11.4-0.7,16.6-2c5.2-1.3,9.9-3.1,14.1-5.4c1.5-0.8,2.8-1.2,3.8-1.2c1.1,0,2.3,0.4,3.4,1.3c1.1,0.8,2.5,2.2,4,4.2
		c2.9,3.6,4.4,6.4,4.4,8.5c0,1.7-1,3.4-2.9,5.3c-4.9,4.8-11.5,8.7-19.7,11.6c-8.2,2.9-17.3,4.4-27.3,4.4c-13.9,0-26.1-2.9-36.7-8.7
		c-10.6-5.8-18.8-13.8-24.7-24.2c-5.8-10.4-8.7-22.3-8.7-35.7c0-13.4,2.8-25.2,8.4-35.5c5.6-10.3,13.5-18.3,23.7-24
		c10.2-5.7,21.9-8.6,35.2-8.6c13.1,0,24.4,2.8,33.9,8.3c9.5,5.5,16.8,13.1,21.9,22.9c5,9.7,7.6,20.9,7.6,33.4c0,3.2-0.3,5.7-0.9,7.5
		C646,133.6,644.9,135,643.2,135.9z M549.9,114.9h68c-1.2-8.8-4.8-15.5-10.7-20.1c-5.9-4.6-13.6-6.8-22.9-6.7
		c-9.3,0-16.9,2.3-22.9,6.9C555.4,99.5,551.6,106.1,549.9,114.9z"/>
	<path class="st0" d="M937.5,135.9c-1.7,0.9-4.3,1.4-7.6,1.4l-86.8-0.1c0.7,10.4,4.8,18.5,12.3,24.2c7.5,5.7,17.4,8.6,29.6,8.6
		c5.8,0,11.4-0.7,16.6-2c5.2-1.3,9.9-3.1,14-5.4c1.5-0.8,2.8-1.2,3.8-1.2c1.1,0,2.3,0.4,3.4,1.3c1.1,0.8,2.5,2.2,4,4.2
		c2.9,3.6,4.4,6.4,4.4,8.5c0,1.7-1,3.4-2.9,5.3c-4.9,4.8-11.5,8.7-19.7,11.6c-8.2,2.9-17.3,4.4-27.3,4.4c-13.9,0-26.1-2.9-36.7-8.7
		c-10.6-5.8-18.8-13.8-24.7-24.2c-5.8-10.4-8.7-22.3-8.7-35.7c0-13.4,2.8-25.2,8.4-35.5c5.6-10.3,13.5-18.3,23.7-24
		c10.2-5.7,21.9-8.6,35.2-8.6c13.1,0,24.4,2.8,33.9,8.3c9.5,5.5,16.8,13.1,21.9,22.9c5,9.7,7.6,20.9,7.6,33.4c0,3.2-0.3,5.7-0.9,7.5
		C940.4,133.6,939.2,135,937.5,135.9z M844.3,114.9h68c-1.2-8.8-4.8-15.5-10.7-20.1c-5.9-4.6-13.6-6.8-22.9-6.7
		c-9.3,0-16.9,2.3-22.9,6.9C849.8,99.5,845.9,106.1,844.3,114.9z"/>
	<path class="st0" d="M786.6,85.7c3.8,7,5.7,14.7,5.7,23.2c0,6.1-1,10.5-3,13c-2,2.5-5,3.8-8.8,3.8h-14.6c-1.8,0-3.1-0.4-4.1-1.2
		c-1-0.8-1.6-2.1-1.6-3.7c-0.4-9.7-3.2-16.6-8.5-20.7c-5.3-4.1-11.9-6.2-19.7-6.2c-10.3,0-18.3,3.3-24.2,9.8
		c-5.9,6.6-8.8,16.4-8.8,29.6v58.5c0,1.1-0.4,2.1-1.1,2.8c-0.7,0.7-1.7,1.1-2.9,1.1h-25.3c-1.1,0-2.1-0.4-2.8-1.1
		c-0.7-0.7-1.1-1.7-1.1-2.8v-122c0-1.2,0.4-2.2,1.1-2.9c0.7-0.7,1.7-1,2.8-1h24.2c1.1,0,2,0.4,2.7,1c0.7,0.7,1.1,1.7,1.2,2.9
		l1.1,22.3h4.6c3.2-8.7,8.5-15.7,16-21s16.5-7.9,27-7.9c9.1,0,17.2,2,24.1,6C777.5,73.3,782.9,78.8,786.6,85.7z"/>
</g>
</svg>
