<?xml version="1.0" encoding="utf-8"?>
<!-- Generator: Adobe Illustrator 28.2.0, SVG Export Plug-In . SVG Version: 6.00 Build 0)  -->
<svg version="1.1" id="Layer_1" xmlns="http://www.w3.org/2000/svg" xmlns:xlink="http://www.w3.org/1999/xlink" x="0px" y="0px"
	 viewBox="0 0 279 67.5" style="enable-background:new 0 0 279 67.5;" xml:space="preserve">
<style type="text/css">
	.st0{fill:#B397F7;}
	.st1{fill:#231F20;}
</style>
<g>
	<path class="st0" d="M266.7,63h-234C16.6,63,3.5,49.9,3.5,33.8v0c0-16.2,13.1-29.2,29.2-29.2h209.9c17.7,0,32.1,14.4,32.1,32.1V55
		C274.8,59.4,271.2,63,266.7,63z"/>
	<path class="st1" d="M266.7,64h-234C16.1,64,2.5,50.4,2.5,33.8S16.1,3.5,32.7,3.5h209.9c18.3,0,33.1,14.9,33.1,33.1V55
		C275.8,60,271.7,64,266.7,64z M32.7,5.5C17.2,5.5,4.5,18.2,4.5,33.8S17.2,62,32.7,62h234c3.9,0,7-3.2,7-7V36.6
		c0-17.2-14-31.1-31.1-31.1H32.7z"/>
</g>
<g>
	<path d="M31.8,44V29.4H27c-0.1,0-0.2,0-0.3-0.1c-0.1-0.1-0.1-0.2-0.1-0.3v-2.8c0-0.1,0-0.2,0.1-0.3c0.1-0.1,0.2-0.1,0.3-0.1h13.5
		c0.1,0,0.2,0,0.3,0.1S41,26,41,26.2v2.8c0,0.1,0,0.2-0.1,0.3c-0.1,0.1-0.2,0.1-0.3,0.1h-4.7V44c0,0.1,0,0.2-0.1,0.3
		s-0.2,0.1-0.3,0.1h-3.2c-0.1,0-0.2,0-0.3-0.1C31.8,44.2,31.8,44.1,31.8,44z"/>
	<path d="M57.5,44.2c0,0.1,0,0.2-0.1,0.2c-0.1,0.1-0.2,0.1-0.3,0.1H54c-0.1,0-0.2,0-0.3-0.1c-0.1-0.1-0.1-0.1-0.2-0.2l-2.8-5.6h0h-3
		V44c0,0.1,0,0.2-0.1,0.3s-0.2,0.1-0.3,0.1H44c-0.1,0-0.2,0-0.3-0.1c-0.1-0.1-0.1-0.2-0.1-0.3V26.2c0-0.1,0-0.2,0.1-0.3
		c0.1-0.1,0.2-0.1,0.3-0.1h6.6c2.4,0,4.2,0.5,5.3,1.6c1.1,1.1,1.7,2.7,1.7,4.7c0,2.9-1.1,4.8-3.2,5.7l3.1,6.1
		C57.5,44,57.5,44.1,57.5,44.2z M50.5,34.9c1.1,0,1.9-0.2,2.4-0.6s0.8-1.1,0.8-2.1c0-1-0.3-1.7-0.8-2.1c-0.5-0.4-1.3-0.6-2.4-0.6
		h-2.8v5.5H50.5z"/>
	<path d="M60.1,44v-2.8c0-0.1,0-0.2,0.1-0.3s0.2-0.1,0.3-0.1h4.3V29.4h-4.3c-0.1,0-0.2,0-0.3-0.1c-0.1-0.1-0.1-0.2-0.1-0.3v-2.8
		c0-0.1,0-0.2,0.1-0.3s0.2-0.1,0.3-0.1h12.7c0.1,0,0.2,0,0.3,0.1s0.1,0.2,0.1,0.3v2.8c0,0.1,0,0.2-0.1,0.3c-0.1,0.1-0.2,0.1-0.3,0.1
		h-4.3v11.5h4.3c0.1,0,0.2,0,0.3,0.1s0.1,0.2,0.1,0.3V44c0,0.1,0,0.2-0.1,0.3s-0.2,0.1-0.3,0.1H60.5c-0.1,0-0.2,0-0.3-0.1
		S60.1,44.1,60.1,44z"/>
	<path d="M90.5,32.1c0,2.1-0.6,3.7-1.7,4.7c-1.1,1.1-2.9,1.6-5.3,1.6h-3V44c0,0.1,0,0.2-0.1,0.3c-0.1,0.1-0.2,0.1-0.3,0.1H77
		c-0.1,0-0.2,0-0.3-0.1s-0.1-0.2-0.1-0.3V26.2c0-0.1,0-0.2,0.1-0.3s0.2-0.1,0.3-0.1h6.6c2.4,0,4.2,0.5,5.3,1.6
		C89.9,28.4,90.5,30,90.5,32.1z M86.6,32.1c0-1-0.3-1.7-0.8-2.1c-0.5-0.4-1.3-0.6-2.4-0.6h-2.8v5.5h2.8c1.1,0,1.9-0.2,2.4-0.6
		S86.6,33.1,86.6,32.1z"/>
	<path d="M121.9,26.2V44c0,0.1,0,0.2-0.1,0.3s-0.2,0.1-0.3,0.1h-3.2c-0.1,0-0.2,0-0.3-0.1s-0.1-0.2-0.1-0.3v-6.9h-5.3V44
		c0,0.1,0,0.2-0.1,0.3s-0.2,0.1-0.3,0.1h-3.2c-0.1,0-0.2,0-0.3-0.1c-0.1-0.1-0.1-0.2-0.1-0.3V26.2c0-0.1,0-0.2,0.1-0.3
		c0.1-0.1,0.2-0.1,0.3-0.1h3.2c0.1,0,0.2,0,0.3,0.1s0.1,0.2,0.1,0.3v7.3h5.3v-7.3c0-0.1,0-0.2,0.1-0.3s0.2-0.1,0.3-0.1h3.2
		c0.1,0,0.2,0,0.3,0.1S121.9,26,121.9,26.2z"/>
	<path d="M124.8,44v-2.8c0-0.1,0-0.2,0.1-0.3s0.2-0.1,0.3-0.1h4.3V29.4h-4.3c-0.1,0-0.2,0-0.3-0.1c-0.1-0.1-0.1-0.2-0.1-0.3v-2.8
		c0-0.1,0-0.2,0.1-0.3s0.2-0.1,0.3-0.1h12.7c0.1,0,0.2,0,0.3,0.1s0.1,0.2,0.1,0.3v2.8c0,0.1,0,0.2-0.1,0.3c-0.1,0.1-0.2,0.1-0.3,0.1
		h-4.3v11.5h4.3c0.1,0,0.2,0,0.3,0.1s0.1,0.2,0.1,0.3V44c0,0.1,0,0.2-0.1,0.3s-0.2,0.1-0.3,0.1h-12.7c-0.1,0-0.2,0-0.3-0.1
		S124.8,44.1,124.8,44z"/>
	<path d="M155,34.7v2.4c0,1.8-0.2,3.3-0.7,4.4c-0.5,1.1-1.3,2-2.3,2.5s-2.4,0.8-4,0.8c-1.8,0-3.2-0.3-4.3-1
		c-1.1-0.7-1.9-1.7-2.3-3.1c-0.5-1.4-0.7-3.3-0.7-5.5c0-2.3,0.2-4.1,0.7-5.5c0.5-1.4,1.3-2.5,2.3-3.1s2.5-1,4.3-1
		c1.5,0,2.7,0.2,3.7,0.6c1,0.4,1.8,1.1,2.3,2.1c0.5,1,0.8,2.3,0.9,3.9c0,0.3-0.1,0.4-0.4,0.4h-2.9c-0.3,0-0.4-0.1-0.5-0.4
		c-0.1-1.1-0.5-1.9-1-2.3c-0.5-0.4-1.2-0.6-2.2-0.6c-0.8,0-1.4,0.2-1.9,0.5c-0.5,0.3-0.8,0.9-1.1,1.7s-0.4,2-0.4,3.6
		c0,1.6,0.1,2.7,0.4,3.6c0.2,0.8,0.6,1.4,1.1,1.7c0.5,0.3,1.2,0.5,2,0.5c0.7,0,1.3-0.1,1.7-0.3c0.4-0.2,0.8-0.5,1-1s0.3-1.2,0.3-2.1
		v-0.1h-3.5c-0.1,0-0.2,0-0.3-0.1c-0.1-0.1-0.1-0.2-0.1-0.3v-2.3c0-0.1,0-0.2,0.1-0.3c0.1-0.1,0.2-0.1,0.3-0.1h7
		c0.1,0,0.2,0,0.3,0.1S155,34.6,155,34.7z"/>
	<path d="M171.3,26.2V44c0,0.1,0,0.2-0.1,0.3s-0.2,0.1-0.3,0.1h-3.2c-0.1,0-0.2,0-0.3-0.1s-0.1-0.2-0.1-0.3v-6.9H162V44
		c0,0.1,0,0.2-0.1,0.3s-0.2,0.1-0.3,0.1h-3.2c-0.1,0-0.2,0-0.3-0.1c-0.1-0.1-0.1-0.2-0.1-0.3V26.2c0-0.1,0-0.2,0.1-0.3
		c0.1-0.1,0.2-0.1,0.3-0.1h3.2c0.1,0,0.2,0,0.3,0.1s0.1,0.2,0.1,0.3v7.3h5.3v-7.3c0-0.1,0-0.2,0.1-0.3s0.2-0.1,0.3-0.1h3.2
		c0.1,0,0.2,0,0.3,0.1S171.3,26,171.3,26.2z"/>
	<path d="M175,44V26.2c0-0.1,0-0.2,0.1-0.3s0.2-0.1,0.3-0.1h3.2c0.1,0,0.2,0,0.3,0.1s0.1,0.2,0.1,0.3v14.7h8.4c0.1,0,0.2,0,0.3,0.1
		s0.1,0.2,0.1,0.3V44c0,0.1,0,0.2-0.1,0.3s-0.2,0.1-0.3,0.1h-12c-0.1,0-0.2,0-0.3-0.1S175,44.1,175,44z"/>
	<path d="M190.7,44v-2.8c0-0.1,0-0.2,0.1-0.3s0.2-0.1,0.3-0.1h4.3V29.4h-4.3c-0.1,0-0.2,0-0.3-0.1c-0.1-0.1-0.1-0.2-0.1-0.3v-2.8
		c0-0.1,0-0.2,0.1-0.3s0.2-0.1,0.3-0.1h12.7c0.1,0,0.2,0,0.3,0.1s0.1,0.2,0.1,0.3v2.8c0,0.1,0,0.2-0.1,0.3c-0.1,0.1-0.2,0.1-0.3,0.1
		h-4.3v11.5h4.3c0.1,0,0.2,0,0.3,0.1s0.1,0.2,0.1,0.3V44c0,0.1,0,0.2-0.1,0.3s-0.2,0.1-0.3,0.1h-12.7c-0.1,0-0.2,0-0.3-0.1
		S190.7,44.1,190.7,44z"/>
	<path d="M220.9,34.7v2.4c0,1.8-0.2,3.3-0.7,4.4c-0.5,1.1-1.3,2-2.3,2.5s-2.4,0.8-4,0.8c-1.8,0-3.2-0.3-4.3-1
		c-1.1-0.7-1.9-1.7-2.3-3.1c-0.5-1.4-0.7-3.3-0.7-5.5c0-2.3,0.2-4.1,0.7-5.5c0.5-1.4,1.3-2.5,2.3-3.1s2.5-1,4.3-1
		c1.5,0,2.7,0.2,3.7,0.6c1,0.4,1.8,1.1,2.3,2.1c0.5,1,0.8,2.3,0.9,3.9c0,0.3-0.1,0.4-0.4,0.4h-2.9c-0.3,0-0.4-0.1-0.5-0.4
		c-0.1-1.1-0.5-1.9-1-2.3c-0.5-0.4-1.2-0.6-2.2-0.6c-0.8,0-1.4,0.2-1.9,0.5c-0.5,0.3-0.8,0.9-1.1,1.7s-0.4,2-0.4,3.6
		c0,1.6,0.1,2.7,0.4,3.6c0.2,0.8,0.6,1.4,1.1,1.7c0.5,0.3,1.2,0.5,2,0.5c0.7,0,1.3-0.1,1.7-0.3c0.4-0.2,0.8-0.5,1-1s0.3-1.2,0.3-2.1
		v-0.1h-3.5c-0.1,0-0.2,0-0.3-0.1c-0.1-0.1-0.1-0.2-0.1-0.3v-2.3c0-0.1,0-0.2,0.1-0.3c0.1-0.1,0.2-0.1,0.3-0.1h7
		c0.1,0,0.2,0,0.3,0.1S220.9,34.6,220.9,34.7z"/>
	<path d="M237.2,26.2V44c0,0.1,0,0.2-0.1,0.3s-0.2,0.1-0.3,0.1h-3.2c-0.1,0-0.2,0-0.3-0.1s-0.1-0.2-0.1-0.3v-6.9h-5.3V44
		c0,0.1,0,0.2-0.1,0.3s-0.2,0.1-0.3,0.1h-3.2c-0.1,0-0.2,0-0.3-0.1c-0.1-0.1-0.1-0.2-0.1-0.3V26.2c0-0.1,0-0.2,0.1-0.3
		c0.1-0.1,0.2-0.1,0.3-0.1h3.2c0.1,0,0.2,0,0.3,0.1s0.1,0.2,0.1,0.3v7.3h5.3v-7.3c0-0.1,0-0.2,0.1-0.3s0.2-0.1,0.3-0.1h3.2
		c0.1,0,0.2,0,0.3,0.1S237.2,26,237.2,26.2z"/>
	<path d="M245,44V29.4h-4.7c-0.1,0-0.2,0-0.3-0.1c-0.1-0.1-0.1-0.2-0.1-0.3v-2.8c0-0.1,0-0.2,0.1-0.3s0.2-0.1,0.3-0.1h13.5
		c0.1,0,0.2,0,0.3,0.1s0.1,0.2,0.1,0.3v2.8c0,0.1,0,0.2-0.1,0.3c-0.1,0.1-0.2,0.1-0.3,0.1h-4.7V44c0,0.1,0,0.2-0.1,0.3
		s-0.2,0.1-0.3,0.1h-3.2c-0.1,0-0.2,0-0.3-0.1S245,44.1,245,44z"/>
</g>
</svg>
