<?xml version="1.0" encoding="utf-8"?>
<!-- Generator: Adobe Illustrator 28.2.0, SVG Export Plug-In . SVG Version: 6.00 Build 0)  -->
<svg version="1.1" id="Layer_1" xmlns="http://www.w3.org/2000/svg" xmlns:xlink="http://www.w3.org/1999/xlink" x="0px" y="0px"
	 viewBox="0 0 297 67.5" style="enable-background:new 0 0 297 67.5;" xml:space="preserve">
<style type="text/css">
	.st0{fill:#4EBB78;}
</style>
<g>
	<path class="st0" d="M283.8,63.1H32.5c-15.5,0-28-12.5-28-28v-2.6c0-15.5,12.5-28,28-28h228.3c17,0,30.7,13.8,30.7,30.7v20.2
		C291.5,59.6,288.1,63.1,283.8,63.1z"/>
	<path d="M283.8,64.1H32.5c-16,0-29-13-29-29v-2.6c0-16,13-29,29-29h228.3c17.5,0,31.7,14.2,31.7,31.7v20.2
		C292.5,60.2,288.6,64.1,283.8,64.1z M32.5,5.4c-14.9,0-27,12.1-27,27v2.6c0,14.9,12.1,27,27,27h251.3c3.7,0,6.7-3,6.7-6.7V35.2
		c0-16.4-13.3-29.7-29.7-29.7H32.5z"/>
</g>
<g>
	<path d="M41.4,25.3v17.8c0,0.1,0,0.2-0.1,0.3c-0.1,0.1-0.2,0.1-0.3,0.1h-3.6c-0.3,0-0.4-0.1-0.5-0.3l-5-11.6v11.4
		c0,0.1,0,0.2-0.1,0.3c-0.1,0.1-0.2,0.1-0.3,0.1h-2.8c-0.1,0-0.2,0-0.3-0.1c-0.1-0.1-0.1-0.2-0.1-0.3V25.3c0-0.1,0-0.2,0.1-0.3
		c0.1-0.1,0.2-0.1,0.3-0.1h3.5c0.3,0,0.4,0.1,0.5,0.3l5,11.6V25.3c0-0.1,0-0.2,0.1-0.3c0.1-0.1,0.2-0.1,0.3-0.1H41
		c0.1,0,0.2,0,0.3,0.1C41.4,25,41.4,25.1,41.4,25.3z"/>
	<path d="M45,43.1V25.3c0-0.1,0-0.2,0.1-0.3c0.1-0.1,0.2-0.1,0.3-0.1h12c0.1,0,0.2,0,0.3,0.1c0.1,0.1,0.1,0.2,0.1,0.3V28
		c0,0.1,0,0.2-0.1,0.3c-0.1,0.1-0.2,0.1-0.3,0.1h-8.3v3.9h7.7c0.1,0,0.2,0,0.3,0.1c0.1,0.1,0.1,0.2,0.1,0.3v2.8c0,0.1,0,0.2-0.1,0.3
		c-0.1,0.1-0.2,0.1-0.3,0.1h-7.7v4h8.4c0.1,0,0.2,0,0.3,0.1c0.1,0.1,0.1,0.2,0.1,0.3v2.8c0,0.1,0,0.2-0.1,0.3
		c-0.1,0.1-0.2,0.1-0.3,0.1h-12c-0.1,0-0.2,0-0.3-0.1C45,43.3,45,43.2,45,43.1z"/>
	<path d="M75.7,25.3l-2,17.9c0,0.1-0.1,0.2-0.2,0.2c-0.1,0.1-0.2,0.1-0.3,0.1h-3.6c-0.1,0-0.2,0-0.3-0.1c-0.1-0.1-0.1-0.1-0.2-0.2
		l-1.1-8l-1.1,8c0,0.1-0.1,0.2-0.2,0.2c-0.1,0.1-0.2,0.1-0.3,0.1h-3.6c-0.1,0-0.2,0-0.3-0.1c-0.1-0.1-0.2-0.1-0.2-0.2l-2-17.9
		c0-0.2,0-0.3,0-0.4c0.1-0.1,0.1-0.1,0.3-0.1h2.9c0.1,0,0.2,0,0.3,0.1C64,25,64,25.1,64,25.2l1,13l1.7-11.3c0-0.2,0.2-0.3,0.5-0.3
		h1.6c0.3,0,0.4,0.1,0.5,0.3l1.7,11.3l1-13c0-0.1,0.1-0.2,0.1-0.3c0.1-0.1,0.2-0.1,0.3-0.1h2.9c0.1,0,0.2,0,0.3,0.1
		C75.7,25,75.7,25.2,75.7,25.3z"/>
	<path d="M94.8,43.1V25.3c0-0.1,0-0.2,0.1-0.3c0.1-0.1,0.2-0.1,0.3-0.1h6.2c2.8,0,4.8,0.8,5.9,2.5c1.2,1.6,1.7,3.9,1.7,6.9
		s-0.6,5.2-1.7,6.9c-1.2,1.6-3.1,2.5-5.9,2.5h-6.2c-0.1,0-0.2,0-0.3-0.1C94.9,43.3,94.8,43.2,94.8,43.1z M104.7,37.3
		c0.2-0.8,0.3-1.9,0.3-3.2c0-1.3-0.1-2.4-0.3-3.2c-0.2-0.8-0.6-1.4-1.1-1.9c-0.5-0.4-1.3-0.7-2.3-0.7h-2.4v11.5h2.4
		c1,0,1.8-0.2,2.3-0.7C104.1,38.8,104.5,38.2,104.7,37.3z"/>
	<path d="M112,43.1V25.3c0-0.1,0-0.2,0.1-0.3c0.1-0.1,0.2-0.1,0.3-0.1h12c0.1,0,0.2,0,0.3,0.1c0.1,0.1,0.1,0.2,0.1,0.3V28
		c0,0.1,0,0.2-0.1,0.3c-0.1,0.1-0.2,0.1-0.3,0.1H116v3.9h7.7c0.1,0,0.2,0,0.3,0.1s0.1,0.2,0.1,0.3v2.8c0,0.1,0,0.2-0.1,0.3
		s-0.2,0.1-0.3,0.1H116v4h8.4c0.1,0,0.2,0,0.3,0.1c0.1,0.1,0.1,0.2,0.1,0.3v2.8c0,0.1,0,0.2-0.1,0.3c-0.1,0.1-0.2,0.1-0.3,0.1h-12
		c-0.1,0-0.2,0-0.3-0.1C112,43.3,112,43.2,112,43.1z"/>
	<path d="M127.4,38.2c0-0.1,0-0.3,0.1-0.3s0.2-0.1,0.3-0.1h3c0.2,0,0.4,0.1,0.4,0.4c0.2,0.8,0.5,1.3,1.1,1.7
		c0.6,0.4,1.3,0.5,2.3,0.5c0.9,0,1.7-0.2,2.3-0.5c0.6-0.3,0.9-0.9,0.9-1.6c0-0.4-0.1-0.7-0.3-1c-0.2-0.3-0.5-0.6-1-0.8
		c-0.5-0.2-1.2-0.5-2.2-0.6c-1.9-0.4-3.5-1-4.6-1.9c-1.2-0.9-1.8-2.2-1.8-3.9c0-1.1,0.3-2,0.8-2.8c0.5-0.8,1.3-1.4,2.3-1.9
		c1-0.4,2.3-0.7,3.8-0.7c2,0,3.5,0.4,4.6,1.3c1.1,0.8,1.7,2.2,1.9,4.1c0,0.1,0,0.3-0.1,0.3c-0.1,0.1-0.2,0.1-0.3,0.1H138
		c-0.2,0-0.3-0.1-0.4-0.4c-0.1-0.6-0.5-1.1-1-1.4c-0.5-0.3-1.2-0.5-2.1-0.5c-0.9,0-1.6,0.2-2.1,0.5c-0.5,0.3-0.7,0.8-0.7,1.4
		c0,0.4,0.1,0.7,0.3,1c0.2,0.3,0.5,0.5,1,0.8c0.5,0.2,1.2,0.5,2.2,0.6c1.3,0.3,2.5,0.6,3.3,1c0.9,0.4,1.6,0.9,2.2,1.7
		c0.6,0.8,0.9,1.8,0.9,3.1c0,1.8-0.6,3.3-1.9,4.2c-1.2,1-3,1.4-5.4,1.4c-2.2,0-3.8-0.4-5-1.3C128.3,41.7,127.6,40.2,127.4,38.2z"/>
	<path d="M148.8,43.1V28.4h-4.7c-0.1,0-0.2,0-0.3-0.1c-0.1-0.1-0.1-0.2-0.1-0.3v-2.8c0-0.1,0-0.2,0.1-0.3c0.1-0.1,0.2-0.1,0.3-0.1
		h13.5c0.1,0,0.2,0,0.3,0.1c0.1,0.1,0.1,0.2,0.1,0.3V28c0,0.1,0,0.2-0.1,0.3c-0.1,0.1-0.2,0.1-0.3,0.1h-4.7v14.7
		c0,0.1,0,0.2-0.1,0.3c-0.1,0.1-0.2,0.1-0.3,0.1h-3.2c-0.1,0-0.2,0-0.3-0.1C148.9,43.3,148.8,43.2,148.8,43.1z"/>
	<path d="M160.6,43.1v-2.8c0-0.1,0-0.2,0.1-0.3c0.1-0.1,0.2-0.1,0.3-0.1h4.3V28.4h-4.3c-0.1,0-0.2,0-0.3-0.1
		c-0.1-0.1-0.1-0.2-0.1-0.3v-2.8c0-0.1,0-0.2,0.1-0.3c0.1-0.1,0.2-0.1,0.3-0.1h12.7c0.1,0,0.2,0,0.3,0.1c0.1,0.1,0.1,0.2,0.1,0.3V28
		c0,0.1,0,0.2-0.1,0.3c-0.1,0.1-0.2,0.1-0.3,0.1h-4.3v11.5h4.3c0.1,0,0.2,0,0.3,0.1c0.1,0.1,0.1,0.2,0.1,0.3v2.8
		c0,0.1,0,0.2-0.1,0.3c-0.1,0.1-0.2,0.1-0.3,0.1h-12.7c-0.1,0-0.2,0-0.3-0.1C160.7,43.3,160.6,43.2,160.6,43.1z"/>
	<path d="M190.3,25.3v17.8c0,0.1,0,0.2-0.1,0.3c-0.1,0.1-0.2,0.1-0.3,0.1h-3.6c-0.3,0-0.4-0.1-0.5-0.3l-5-11.6v11.4
		c0,0.1,0,0.2-0.1,0.3c-0.1,0.1-0.2,0.1-0.3,0.1h-2.8c-0.1,0-0.2,0-0.3-0.1c-0.1-0.1-0.1-0.2-0.1-0.3V25.3c0-0.1,0-0.2,0.1-0.3
		c0.1-0.1,0.2-0.1,0.3-0.1h3.5c0.3,0,0.4,0.1,0.5,0.3l5,11.6V25.3c0-0.1,0-0.2,0.1-0.3c0.1-0.1,0.2-0.1,0.3-0.1h2.8
		c0.1,0,0.2,0,0.3,0.1C190.2,25,190.3,25.1,190.3,25.3z"/>
	<path d="M207.7,43.5h-3.3c-0.3,0-0.4-0.1-0.5-0.3l-0.7-3.1h-5.7l-0.7,3.1c0,0.2-0.2,0.3-0.5,0.3h-3.3c-0.2,0-0.4-0.1-0.4-0.3
		c0,0,0-0.1,0-0.2l4.6-17.9c0-0.1,0.1-0.2,0.2-0.3c0.1-0.1,0.2-0.1,0.3-0.1h5.1c0.1,0,0.2,0,0.3,0.1c0.1,0.1,0.1,0.1,0.2,0.3L208,43
		c0,0.1,0,0.1,0,0.2C208,43.4,207.9,43.5,207.7,43.5z M202.4,36.6l-1.8-7.6h-0.4l-1.8,7.6H202.4z"/>
	<path d="M213.3,43.1V28.4h-4.7c-0.1,0-0.2,0-0.3-0.1c-0.1-0.1-0.1-0.2-0.1-0.3v-2.8c0-0.1,0-0.2,0.1-0.3c0.1-0.1,0.2-0.1,0.3-0.1
		h13.5c0.1,0,0.2,0,0.3,0.1c0.1,0.1,0.1,0.2,0.1,0.3V28c0,0.1,0,0.2-0.1,0.3c-0.1,0.1-0.2,0.1-0.3,0.1h-4.7v14.7
		c0,0.1,0,0.2-0.1,0.3c-0.1,0.1-0.2,0.1-0.3,0.1h-3.2c-0.1,0-0.2,0-0.3-0.1C213.4,43.3,213.3,43.2,213.3,43.1z"/>
	<path d="M225.1,43.1v-2.8c0-0.1,0-0.2,0.1-0.3c0.1-0.1,0.2-0.1,0.3-0.1h4.3V28.4h-4.3c-0.1,0-0.2,0-0.3-0.1
		c-0.1-0.1-0.1-0.2-0.1-0.3v-2.8c0-0.1,0-0.2,0.1-0.3c0.1-0.1,0.2-0.1,0.3-0.1h12.7c0.1,0,0.2,0,0.3,0.1c0.1,0.1,0.1,0.2,0.1,0.3V28
		c0,0.1,0,0.2-0.1,0.3c-0.1,0.1-0.2,0.1-0.3,0.1h-4.3v11.5h4.3c0.1,0,0.2,0,0.3,0.1c0.1,0.1,0.1,0.2,0.1,0.3v2.8
		c0,0.1,0,0.2-0.1,0.3c-0.1,0.1-0.2,0.1-0.3,0.1h-12.7c-0.1,0-0.2,0-0.3-0.1C225.2,43.3,225.1,43.2,225.1,43.1z"/>
	<path d="M241.6,39.8c-0.5-1.4-0.7-3.3-0.7-5.5c0-2.3,0.2-4.1,0.7-5.5c0.5-1.4,1.2-2.5,2.3-3.1c1-0.7,2.4-1,4.1-1
		c1.7,0,3.1,0.3,4.1,1c1,0.7,1.8,1.7,2.3,3.1c0.5,1.4,0.7,3.3,0.7,5.5c0,2.3-0.2,4.1-0.7,5.5c-0.5,1.4-1.2,2.5-2.3,3.1
		c-1,0.7-2.4,1-4.1,1c-1.7,0-3.1-0.3-4.1-1C242.8,42.2,242.1,41.2,241.6,39.8z M250.8,37.8c0.2-0.8,0.4-2,0.4-3.6s-0.1-2.7-0.4-3.6
		c-0.2-0.8-0.6-1.4-1-1.7c-0.5-0.3-1-0.5-1.8-0.5c-0.7,0-1.3,0.2-1.8,0.5c-0.5,0.3-0.8,0.9-1,1.7c-0.2,0.8-0.4,2-0.4,3.6
		s0.1,2.7,0.4,3.6c0.2,0.8,0.6,1.4,1,1.7c0.5,0.3,1,0.5,1.8,0.5c0.7,0,1.3-0.2,1.8-0.5C250.3,39.2,250.6,38.6,250.8,37.8z"/>
	<path d="M271.3,25.3v17.8c0,0.1,0,0.2-0.1,0.3c-0.1,0.1-0.2,0.1-0.3,0.1h-3.6c-0.3,0-0.4-0.1-0.5-0.3l-5-11.6v11.4
		c0,0.1,0,0.2-0.1,0.3c-0.1,0.1-0.2,0.1-0.3,0.1h-2.8c-0.1,0-0.2,0-0.3-0.1c-0.1-0.1-0.1-0.2-0.1-0.3V25.3c0-0.1,0-0.2,0.1-0.3
		c0.1-0.1,0.2-0.1,0.3-0.1h3.5c0.3,0,0.4,0.1,0.5,0.3l5,11.6V25.3c0-0.1,0-0.2,0.1-0.3c0.1-0.1,0.2-0.1,0.3-0.1h2.8
		c0.1,0,0.2,0,0.3,0.1C271.2,25,271.3,25.1,271.3,25.3z"/>
</g>
</svg>
