<?xml version="1.0" encoding="utf-8"?>
<!-- Generator: Adobe Illustrator 28.2.0, SVG Export Plug-In . SVG Version: 6.00 Build 0)  -->
<svg version="1.1" id="Layer_1" xmlns="http://www.w3.org/2000/svg" xmlns:xlink="http://www.w3.org/1999/xlink" x="0px" y="0px"
	 viewBox="0 0 270.1 67.5" style="enable-background:new 0 0 270.1 67.5;" xml:space="preserve">
<style type="text/css">
	.st0{fill:#FED141;}
</style>
<g>
	<path class="st0" d="M257.3,62.2H34.5c-16.6,0-30-11.2-30-27.7v0c0-16.6,13.4-30,30-30h198.1c18.2,0,32.9,14.7,32.9,32.9V54
		C265.5,58.5,261.8,62.2,257.3,62.2z"/>
	<path d="M257.3,63.2H34.5c-17.7,0-31-12.4-31-28.7c0-17.1,13.9-31,31-31h198.1c18.7,0,33.9,15.2,33.9,33.9V54
		C266.5,59.1,262.4,63.2,257.3,63.2z M34.5,5.5c-16,0-29,13-29,29c0,15.5,12.2,26.7,29,26.7h222.8c4,0,7.2-3.2,7.2-7.2V37.4
		c0-17.6-14.3-31.9-31.9-31.9H34.5z"/>
</g>
<g>
	<path d="M27.2,43.1V24.9c0-0.1,0-0.2,0.1-0.3c0.1-0.1,0.2-0.1,0.3-0.1h12.3c0.1,0,0.2,0,0.3,0.1c0.1,0.1,0.1,0.2,0.1,0.3v2.8
		c0,0.1,0,0.2-0.1,0.3c-0.1,0.1-0.2,0.1-0.3,0.1h-8.5v5.4h7.9c0.1,0,0.2,0,0.3,0.1s0.1,0.2,0.1,0.3v2.8c0,0.1,0,0.2-0.1,0.3
		s-0.2,0.1-0.3,0.1h-7.9v6c0,0.1,0,0.2-0.1,0.3c-0.1,0.1-0.2,0.1-0.3,0.1h-3.3c-0.1,0-0.2,0-0.3-0.1C27.2,43.3,27.2,43.2,27.2,43.1z
		"/>
	<path d="M43.5,43.1V24.9c0-0.1,0-0.2,0.1-0.3c0.1-0.1,0.2-0.1,0.3-0.1h12.3c0.1,0,0.2,0,0.3,0.1c0.1,0.1,0.1,0.2,0.1,0.3v2.8
		c0,0.1,0,0.2-0.1,0.3s-0.2,0.1-0.3,0.1h-8.5v4h7.9c0.1,0,0.2,0,0.3,0.1c0.1,0.1,0.1,0.2,0.1,0.3v2.8c0,0.1,0,0.2-0.1,0.3
		c-0.1,0.1-0.2,0.1-0.3,0.1h-7.9v4.1h8.6c0.1,0,0.2,0,0.3,0.1s0.1,0.2,0.1,0.3v2.8c0,0.1,0,0.2-0.1,0.3s-0.2,0.1-0.3,0.1H43.9
		c-0.1,0-0.2,0-0.3-0.1S43.5,43.2,43.5,43.1z"/>
	<path d="M74.6,43.5h-3.4c-0.3,0-0.4-0.1-0.5-0.3L70,40h-5.8l-0.7,3.2c0,0.2-0.2,0.3-0.5,0.3h-3.4c-0.2,0-0.4-0.1-0.4-0.3
		c0,0,0-0.1,0-0.2L64,24.8c0-0.1,0.1-0.2,0.2-0.3c0.1-0.1,0.2-0.1,0.3-0.1h5.2c0.1,0,0.2,0,0.3,0.1c0.1,0.1,0.1,0.1,0.2,0.3
		l4.8,18.3c0,0.1,0,0.1,0,0.2C74.9,43.4,74.8,43.5,74.6,43.5z M69.1,36.5l-1.8-7.8h-0.5L65,36.5H69.1z"/>
	<path d="M80.4,43.1v-15h-4.8c-0.1,0-0.2,0-0.3-0.1c-0.1-0.1-0.1-0.2-0.1-0.3v-2.8c0-0.1,0-0.2,0.1-0.3c0.1-0.1,0.2-0.1,0.3-0.1
		h13.8c0.1,0,0.2,0,0.3,0.1c0.1,0.1,0.1,0.2,0.1,0.3v2.8c0,0.1,0,0.2-0.1,0.3c-0.1,0.1-0.2,0.1-0.3,0.1h-4.8v15c0,0.1,0,0.2-0.1,0.3
		c-0.1,0.1-0.2,0.1-0.3,0.1h-3.3c-0.1,0-0.2,0-0.3-0.1S80.4,43.2,80.4,43.1z"/>
	<path d="M92.4,37V24.9c0-0.1,0-0.2,0.1-0.3c0.1-0.1,0.2-0.1,0.3-0.1h3.3c0.1,0,0.2,0,0.3,0.1c0.1,0.1,0.1,0.2,0.1,0.3v11.8
		c0,1.1,0.2,1.9,0.7,2.5c0.5,0.6,1.2,0.9,2.1,0.9s1.7-0.3,2.1-0.9c0.5-0.6,0.7-1.4,0.7-2.5V24.9c0-0.1,0-0.2,0.1-0.3
		c0.1-0.1,0.2-0.1,0.3-0.1h3.3c0.1,0,0.2,0,0.3,0.1c0.1,0.1,0.1,0.2,0.1,0.3V37c0,2.3-0.6,4.1-1.8,5.3c-1.2,1.2-2.9,1.7-5.2,1.7
		s-4-0.6-5.2-1.7C93,41.1,92.4,39.3,92.4,37z"/>
	<path d="M124.1,43.3c0,0.1,0,0.2-0.1,0.2c-0.1,0.1-0.2,0.1-0.3,0.1h-3.2c-0.1,0-0.2,0-0.3-0.1c-0.1-0.1-0.1-0.1-0.2-0.2l-2.9-5.8h0
		h-3v5.7c0,0.1,0,0.2-0.1,0.3s-0.2,0.1-0.3,0.1h-3.3c-0.1,0-0.2,0-0.3-0.1s-0.1-0.2-0.1-0.3V24.9c0-0.1,0-0.2,0.1-0.3
		c0.1-0.1,0.2-0.1,0.3-0.1h6.8c2.5,0,4.3,0.6,5.4,1.6c1.1,1.1,1.7,2.7,1.7,4.9c0,3-1.1,4.9-3.3,5.9L124,43
		C124.1,43.1,124.1,43.2,124.1,43.3z M116.9,33.8c1.1,0,1.9-0.2,2.5-0.6c0.5-0.4,0.8-1.2,0.8-2.2c0-1-0.3-1.8-0.8-2.2
		c-0.5-0.4-1.4-0.6-2.5-0.6H114v5.7H116.9z"/>
	<path d="M127.1,43.1V24.9c0-0.1,0-0.2,0.1-0.3c0.1-0.1,0.2-0.1,0.3-0.1h12.3c0.1,0,0.2,0,0.3,0.1c0.1,0.1,0.1,0.2,0.1,0.3v2.8
		c0,0.1,0,0.2-0.1,0.3s-0.2,0.1-0.3,0.1h-8.5v4h7.9c0.1,0,0.2,0,0.3,0.1c0.1,0.1,0.1,0.2,0.1,0.3v2.8c0,0.1,0,0.2-0.1,0.3
		c-0.1,0.1-0.2,0.1-0.3,0.1h-7.9v4.1h8.6c0.1,0,0.2,0,0.3,0.1s0.1,0.2,0.1,0.3v2.8c0,0.1,0,0.2-0.1,0.3s-0.2,0.1-0.3,0.1h-12.3
		c-0.1,0-0.2,0-0.3-0.1S127.1,43.2,127.1,43.1z"/>
	<path d="M143.6,43.1V24.9c0-0.1,0-0.2,0.1-0.3c0.1-0.1,0.2-0.1,0.3-0.1h6.3c2.9,0,4.9,0.8,6.1,2.5c1.2,1.7,1.8,4,1.8,7
		s-0.6,5.4-1.8,7c-1.2,1.7-3.2,2.5-6.1,2.5H144c-0.1,0-0.2,0-0.3-0.1S143.6,43.2,143.6,43.1z M153.7,37.2c0.2-0.8,0.3-1.9,0.3-3.3
		c0-1.3-0.1-2.4-0.3-3.3s-0.6-1.5-1.1-1.9c-0.6-0.5-1.3-0.7-2.4-0.7h-2.4v11.8h2.4c1,0,1.8-0.2,2.4-0.7
		C153.1,38.7,153.5,38.1,153.7,37.2z"/>
	<path d="M183.1,43.1v-15h-4.8c-0.1,0-0.2,0-0.3-0.1c-0.1-0.1-0.1-0.2-0.1-0.3v-2.8c0-0.1,0-0.2,0.1-0.3c0.1-0.1,0.2-0.1,0.3-0.1
		h13.8c0.1,0,0.2,0,0.3,0.1c0.1,0.1,0.1,0.2,0.1,0.3v2.8c0,0.1,0,0.2-0.1,0.3s-0.2,0.1-0.3,0.1h-4.8v15c0,0.1,0,0.2-0.1,0.3
		s-0.2,0.1-0.3,0.1h-3.3c-0.1,0-0.2,0-0.3-0.1C183.1,43.3,183.1,43.2,183.1,43.1z"/>
	<path d="M209.5,43.3c0,0.1,0,0.2-0.1,0.2c-0.1,0.1-0.2,0.1-0.3,0.1h-3.2c-0.1,0-0.2,0-0.3-0.1c-0.1-0.1-0.1-0.1-0.2-0.2l-2.9-5.8h0
		h-3v5.7c0,0.1,0,0.2-0.1,0.3s-0.2,0.1-0.3,0.1h-3.3c-0.1,0-0.2,0-0.3-0.1c-0.1-0.1-0.1-0.2-0.1-0.3V24.9c0-0.1,0-0.2,0.1-0.3
		c0.1-0.1,0.2-0.1,0.3-0.1h6.8c2.5,0,4.3,0.6,5.4,1.6c1.1,1.1,1.7,2.7,1.7,4.9c0,3-1.1,4.9-3.3,5.9l3.1,6.3
		C209.4,43.1,209.5,43.2,209.5,43.3z M202.3,33.8c1.1,0,1.9-0.2,2.5-0.6c0.5-0.4,0.8-1.2,0.8-2.2c0-1-0.3-1.8-0.8-2.2
		c-0.5-0.4-1.4-0.6-2.5-0.6h-2.9v5.7H202.3z"/>
	<path d="M212.1,43.1v-2.8c0-0.1,0-0.2,0.1-0.3c0.1-0.1,0.2-0.1,0.3-0.1h4.4V28.1h-4.4c-0.1,0-0.2,0-0.3-0.1
		c-0.1-0.1-0.1-0.2-0.1-0.3v-2.8c0-0.1,0-0.2,0.1-0.3c0.1-0.1,0.2-0.1,0.3-0.1h13c0.1,0,0.2,0,0.3,0.1c0.1,0.1,0.1,0.2,0.1,0.3v2.8
		c0,0.1,0,0.2-0.1,0.3c-0.1,0.1-0.2,0.1-0.3,0.1h-4.4v11.8h4.4c0.1,0,0.2,0,0.3,0.1c0.1,0.1,0.1,0.2,0.1,0.3v2.8
		c0,0.1,0,0.2-0.1,0.3c-0.1,0.1-0.2,0.1-0.3,0.1h-13c-0.1,0-0.2,0-0.3-0.1C212.1,43.3,212.1,43.2,212.1,43.1z"/>
	<path d="M243.2,30.9c0,2.1-0.6,3.7-1.7,4.9c-1.1,1.1-2.9,1.7-5.4,1.7h-3v5.7c0,0.1,0,0.2-0.1,0.3c-0.1,0.1-0.2,0.1-0.3,0.1h-3.3
		c-0.1,0-0.2,0-0.3-0.1c-0.1-0.1-0.1-0.2-0.1-0.3V24.9c0-0.1,0-0.2,0.1-0.3c0.1-0.1,0.2-0.1,0.3-0.1h6.8c2.5,0,4.3,0.6,5.4,1.6
		C242.6,27.2,243.2,28.8,243.2,30.9z M239.2,30.9c0-1-0.3-1.8-0.8-2.2c-0.5-0.4-1.4-0.6-2.5-0.6h-2.9v5.7h2.9c1.1,0,1.9-0.2,2.5-0.6
		C238.9,32.7,239.2,32,239.2,30.9z"/>
</g>
</svg>
