<?xml version="1.0" encoding="utf-8"?>
<!-- Generator: Adobe Illustrator 28.2.0, SVG Export Plug-In . SVG Version: 6.00 Build 0)  -->
<svg version="1.1" id="Layer_1" xmlns="http://www.w3.org/2000/svg" xmlns:xlink="http://www.w3.org/1999/xlink" x="0px" y="0px"
	 viewBox="0 0 16 16" style="enable-background:new 0 0 16 16;" xml:space="preserve">
<style type="text/css">
	.st0{fill:#FFFFFF;}
</style>
<g>
	<path class="st0" d="M16,8c0,4.1-3.3,8-8,8c-4.7,0-8-3.8-8-8c0-4.1,3.3-8,8-8C12.7,0,16,3.8,16,8z M1.8,6.1
		c-0.6,1.7-0.4,4.5,1.5,6.5c1.8,1.9,4.7,2.5,7.2,1.4c2.2-0.9,3.7-3.1,3.9-5.1c-0.3-0.1-0.6-0.2-0.9-0.3c-0.4-0.1-0.6-0.3-0.7-0.7
		c-0.2-0.5-0.3-1-0.5-1.5c-0.2-0.6,0-1.1,0.6-1.3c0.2-0.1,0.5-0.2,0.7-0.3c-0.7-1.7-3.8-3.6-5.3-3.3c0.3,0.5,0.2,1-0.2,1.4
		C8,3,7.9,3.1,7.8,3.3c-0.4,0.5-0.4,1,0,1.5C7.9,4.8,8.1,5,8.2,5.1c0.2,0.3,0.2,0.5,0.1,0.8C8.1,6.1,7.9,6.2,7.5,6.1
		C7.3,6,7.1,6,6.9,5.9C6.6,5.8,6.3,5.8,6,6C5.5,6.3,5.5,6.8,6,7.1c0.3,0.2,0.7,0.4,1,0.6C7.2,7.9,7.5,7.9,7.7,8c0.6,0,1.1,0,1.7,0
		c0.7,0,1.4,0.5,1.6,1.2c0.2,0.8-0.1,1.6-0.7,2c-0.7,0.3-1.1,0.8-1.3,1.6c-0.1,0.5-0.5,0.8-1,1C7.5,13.8,7,13.5,7,13
		c0-0.3,0-0.5,0-0.8c0-0.5-0.1-0.8-0.5-1C6.1,11,6,10.7,6,10.4C6,10,6,9.7,6,9.3c0-0.7-0.3-1.1-1-1.3C4.6,7.9,4.2,7.7,3.8,7.6
		C2.9,7.4,2.2,7,1.8,6.1C1.9,6.1,1.8,6.1,1.8,6.1z"/>
</g>
</svg>
