<?xml version="1.0" encoding="utf-8"?>
<!-- Generator: Adobe Illustrator 28.2.0, SVG Export Plug-In . SVG Version: 6.00 Build 0)  -->
<svg version="1.1" id="Layer_1" xmlns="http://www.w3.org/2000/svg" xmlns:xlink="http://www.w3.org/1999/xlink" x="0px" y="0px"
	 viewBox="0 0 16 16" style="enable-background:new 0 0 16 16;" xml:space="preserve">
<style type="text/css">
	.st0{fill:#FFFFFF;}
</style>
<g>
	<path class="st0" d="M7.7,16C3.4,15.9-0.2,12.3,0,7.6C0.2,2.9,4.2-0.2,8.3,0c4.2,0.2,7.9,3.7,7.7,8.4C15.7,13.1,11.8,16.2,7.7,16z
		 M7,12.7c0,0.2,0,0.4,0,0.6c0,0.5,0.5,0.9,1,0.7c0.5-0.2,0.9-0.6,1-1.1c0.1-0.7,0.5-1.2,1.1-1.5c0.7-0.4,1-0.9,1-1.7
		C11,8.8,10.3,8,9.5,8c-0.3,0-0.6,0-1,0c-1,0.1-1.8-0.4-2.6-1c-0.3-0.2-0.3-0.7,0-1c0.3-0.2,0.6-0.3,1-0.2C7.1,6,7.4,6,7.6,6.1
		c0.3,0.1,0.5,0,0.7-0.3c0.1-0.2,0.1-0.5-0.1-0.7C8.1,5,8,4.8,7.8,4.7c-0.4-0.4-0.4-0.9,0-1.4C8,3.1,8.1,3,8.3,2.8
		c0.2-0.3,0.3-0.7,0.2-1.1C8.4,1.6,8.3,1.5,8.1,1.5c-0.4,0-0.8,0-1.2,0.1c-2.5,0.5-4.1,1.9-5,4.3c0,0.1,0,0.2,0,0.3
		c0.3,0.7,0.8,1.2,1.6,1.4C4,7.7,4.5,7.8,5,8C5.7,8.2,6,8.6,6,9.3c0,0.4,0,0.7,0,1.1c0,0.4,0.1,0.7,0.5,0.9c0.4,0.2,0.5,0.5,0.5,1
		C7,12.4,7,12.5,7,12.7z M14.5,8.9c0.2-1.5-0.1-2.8-0.8-4.1c-0.3,0.1-0.5,0.2-0.8,0.3c-0.5,0.2-0.8,0.7-0.6,1.3
		c0.2,0.5,0.3,1.1,0.5,1.6c0.1,0.2,0.3,0.5,0.5,0.6C13.6,8.7,14,8.8,14.5,8.9z"/>
</g>
</svg>
