<?xml version="1.0" encoding="utf-8"?>
<!-- Generator: Adobe Illustrator 28.2.0, SVG Export Plug-In . SVG Version: 6.00 Build 0)  -->
<svg version="1.1" id="Layer_1" xmlns="http://www.w3.org/2000/svg" xmlns:xlink="http://www.w3.org/1999/xlink" x="0px" y="0px"
	 viewBox="0 0 90 90" style="enable-background:new 0 0 90 90;" xml:space="preserve">
<style type="text/css">
	.st0{fill:#EF3340;}
	.st1{fill:#FFFFFF;}
</style>
<g>
	<polygon class="st0" points="45,29.5 59.9,9 56.1,34 81,30.1 60.6,45 81.1,59.9 56.1,56.1 60,81 45.1,60.6 30.2,81.1 34,56.1 
		9.1,60 29.5,45.1 9,30.2 34,34 30.1,9.1 	"/>
	<path class="st1" d="M59.9,9l-3.9,25l25-3.9L60.6,45l20.4,14.9l-25-3.9L60,81L45.1,60.6L30.2,81.1l3.9-25L9.1,60l20.4-14.9L9,30.2
		L34,34l-3.9-25L45,29.5L59.9,9 M59.9,4c-1.6,0-3.1,0.7-4,2.1L45,21L34.1,6.1c-1-1.3-2.5-2-4-2c-0.6,0-1.3,0.1-1.9,0.4
		c-2.1,0.9-3.4,3.1-3,5.4L28,28L9.8,25.2c-0.3,0-0.5-0.1-0.8-0.1c-2,0-3.8,1.2-4.6,3.1c-0.9,2.1-0.2,4.6,1.7,5.9L21,45.1L6.1,56
		c-1.9,1.4-2.5,3.8-1.7,6C5.2,63.8,7.1,65,9.1,65c0.3,0,0.5,0,0.8-0.1L28,62.1l-2.8,18.2c-0.4,2.3,0.9,4.5,3,5.4
		c0.6,0.3,1.3,0.4,1.9,0.4c1.6,0,3.1-0.7,4-2.1l10.9-14.9L56,84c1,1.3,2.5,2,4,2c0.6,0,1.3-0.1,1.9-0.4c2.1-0.9,3.4-3.1,3-5.4
		L62.1,62l18.2,2.8c0.3,0,0.5,0.1,0.8,0.1c2,0,3.8-1.2,4.6-3.1c0.9-2.1,0.2-4.6-1.7-5.9L69.1,45L84,34.1c1.9-1.4,2.5-3.8,1.7-6
		c-0.8-1.9-2.6-3.1-4.6-3.1c-0.3,0-0.5,0-0.8,0.1L62,28l2.8-18.2c0.4-2.3-0.9-4.5-3-5.4C61.2,4.1,60.6,4,59.9,4L59.9,4z"/>
</g>
</svg>
