<?xml version="1.0" encoding="utf-8"?>
<!-- Generator: Adobe Illustrator 28.2.0, SVG Export Plug-In . SVG Version: 6.00 Build 0)  -->
<svg version="1.1" id="Layer_1" xmlns="http://www.w3.org/2000/svg" xmlns:xlink="http://www.w3.org/1999/xlink" x="0px" y="0px"
	 viewBox="0 0 175.5 67.5" style="enable-background:new 0 0 175.5 67.5;" xml:space="preserve">
<style type="text/css">
	.st0{fill:#FFFFFF;}
	.st1{fill:#685BC7;}
</style>
<path class="st0" d="M53,45.1c-0.7,1.6-2,2.9-3.6,3.6c-3.6,1.6-7,0.6-9.2-1.6c-1.4-1.4-2.2-3.4-2.2-5.5V35c0-0.7,0.6-1.4,1.4-1.4
	h6.5c2.1,0,4.1,0.9,5.5,2.2C53.6,38,54.6,41.5,53,45.1z"/>
<path class="st0" d="M26.1,29.7h6.3c1,0,1.6-0.6,1.6-1.6v-6.4c0-2.1-0.8-4-2.2-5.5c-1.5-1.6-3.5-2.4-5.7-2.4c-1.3,0-2.6,0.3-3.8,0.9
	c-1.4,0.7-2.5,1.8-3.2,3.2c-1.6,3.3-1,7.1,1.5,9.5C22.1,28.9,24,29.7,26.1,29.7z M20.8,18.8c0.5-1,1.3-1.8,2.3-2.3
	c3.1-1.5,5.8-0.4,7.3,1.1c1.1,1.1,1.7,2.6,1.7,4.2v5.6c0,0.2-0.2,0.4-0.4,0.4h-5.6c-1.6,0-3.1-0.6-4.2-1.7
	C20.4,24.6,19.3,21.9,20.8,18.8z"/>
<g>
	<path class="st1" d="M171,33.8c0-16.2-12.9-29.2-28.7-29.2H33.2C17.4,4.5,4.5,17.6,4.5,33.8S17.4,63,33.2,63h109.1h20.3
		c4.6,0,8.4-3.8,8.4-8.5V33.8z"/>
</g>
<g>
	<path class="st0" d="M45.7,31.7c0.7,1.4,1,3,1,4.7c0,1.7-0.3,3.2-0.9,4.6c-0.6,1.4-1.5,2.5-2.6,3.2c-1.1,0.8-2.5,1.2-3.9,1.2
		c-1.4,0-2.6-0.3-3.6-1c-1-0.7-1.6-1.6-2-2.7h-0.4l-0.3,2.7c0,0.4-0.2,0.5-0.5,0.5h-2.9c-0.2,0-0.3,0-0.4-0.1
		c-0.1-0.1-0.1-0.2-0.1-0.4V21c0-0.2,0-0.3,0.1-0.4c0.1-0.1,0.2-0.1,0.4-0.1h3.4c0.2,0,0.3,0,0.4,0.1c0.1,0.1,0.1,0.2,0.1,0.4v8.4
		c0.5-0.6,1.1-1.1,2-1.5s1.8-0.6,3-0.6c1.7,0,3.2,0.4,4.4,1.2C44,29.3,45,30.4,45.7,31.7z M41.8,39c0.4-0.8,0.6-1.6,0.6-2.6
		c0-1-0.2-1.9-0.6-2.6c-0.4-0.8-0.9-1.3-1.6-1.7c-0.7-0.4-1.5-0.6-2.4-0.6S36,31.6,35.3,32c-0.7,0.4-1.2,1-1.6,1.7
		c-0.4,0.7-0.6,1.6-0.6,2.6s0.2,1.9,0.6,2.6c0.4,0.7,0.9,1.3,1.6,1.7c0.7,0.4,1.5,0.6,2.4,0.6s1.7-0.2,2.4-0.6
		C40.8,40.4,41.4,39.8,41.8,39z"/>
	<path class="st0" d="M64.8,37.4c-0.2,0.1-0.6,0.2-1,0.2l-11.5,0c0.1,1.4,0.6,2.5,1.6,3.2c1,0.8,2.3,1.1,3.9,1.1
		c0.8,0,1.5-0.1,2.2-0.3c0.7-0.2,1.3-0.4,1.9-0.7c0.2-0.1,0.4-0.2,0.5-0.2c0.2,0,0.3,0.1,0.5,0.2c0.2,0.1,0.3,0.3,0.5,0.6
		c0.4,0.5,0.6,0.9,0.6,1.1c0,0.2-0.1,0.5-0.4,0.7c-0.7,0.6-1.5,1.2-2.6,1.5c-1.1,0.4-2.3,0.6-3.6,0.6c-1.8,0-3.5-0.4-4.9-1.1
		c-1.4-0.8-2.5-1.8-3.3-3.2c-0.8-1.4-1.2-3-1.2-4.7c0-1.8,0.4-3.4,1.1-4.7c0.7-1.4,1.8-2.4,3.1-3.2c1.4-0.8,2.9-1.1,4.7-1.1
		c1.7,0,3.2,0.4,4.5,1.1c1.3,0.7,2.2,1.7,2.9,3c0.7,1.3,1,2.8,1,4.4c0,0.4,0,0.8-0.1,1C65.2,37.1,65,37.3,64.8,37.4z M52.5,34.6h9
		c-0.2-1.2-0.6-2.1-1.4-2.7c-0.8-0.6-1.8-0.9-3-0.9c-1.2,0-2.2,0.3-3,0.9C53.2,32.6,52.7,33.5,52.5,34.6z"/>
	<path class="st0" d="M94.9,30.7c0.5,1.1,0.8,2.4,0.8,3.9v9.9c0,0.2,0,0.3-0.1,0.4S95.3,45,95.1,45h-3.4c-0.2,0-0.3,0-0.4-0.1
		c-0.1-0.1-0.1-0.2-0.1-0.4v-9c0-1.3-0.3-2.3-1-3c-0.7-0.7-1.6-1.1-2.8-1.1c-1.2,0-2.1,0.4-2.8,1.1c-0.7,0.7-1,1.7-1,3v9
		c0,0.2,0,0.3-0.1,0.4S83.2,45,83,45h-3.4c-0.2,0-0.3,0-0.4-0.1s-0.1-0.2-0.1-0.4V21c0-0.2,0-0.3,0.1-0.4c0.1-0.1,0.2-0.1,0.4-0.1
		H83c0.2,0,0.3,0,0.4,0.1c0.1,0.1,0.1,0.2,0.1,0.4v9.7h0.5c0.4-1,1.1-1.8,2-2.4c0.9-0.6,2-0.9,3.3-0.9c1.2,0,2.3,0.3,3.3,0.9
		C93.6,28.8,94.3,29.6,94.9,30.7z"/>
	<path class="st0" d="M114.6,37.4c-0.2,0.1-0.6,0.2-1,0.2l-11.5,0c0.1,1.4,0.6,2.5,1.6,3.2c1,0.8,2.3,1.1,3.9,1.1
		c0.8,0,1.5-0.1,2.2-0.3c0.7-0.2,1.3-0.4,1.9-0.7c0.2-0.1,0.4-0.2,0.5-0.2c0.2,0,0.3,0.1,0.5,0.2c0.2,0.1,0.3,0.3,0.5,0.6
		c0.4,0.5,0.6,0.9,0.6,1.1c0,0.2-0.1,0.5-0.4,0.7c-0.7,0.6-1.5,1.2-2.6,1.5s-2.3,0.6-3.6,0.6c-1.8,0-3.5-0.4-4.9-1.1
		c-1.4-0.8-2.5-1.8-3.3-3.2s-1.2-3-1.2-4.7c0-1.8,0.4-3.4,1.1-4.7c0.7-1.4,1.8-2.4,3.1-3.2c1.4-0.8,2.9-1.1,4.7-1.1
		c1.7,0,3.2,0.4,4.5,1.1c1.3,0.7,2.2,1.7,2.9,3c0.7,1.3,1,2.8,1,4.4c0,0.4,0,0.8-0.1,1C114.9,37.1,114.8,37.3,114.6,37.4z
		 M102.2,34.6h9c-0.2-1.2-0.6-2.1-1.4-2.7c-0.8-0.6-1.8-0.9-3-0.9c-1.2,0-2.2,0.3-3,0.9C102.9,32.6,102.4,33.5,102.2,34.6z"/>
	<path class="st0" d="M133.7,30.3c0.5,0.9,0.8,2,0.8,3.1c0,0.8-0.1,1.4-0.4,1.7c-0.3,0.3-0.7,0.5-1.2,0.5h-1.9
		c-0.2,0-0.4-0.1-0.6-0.2c-0.1-0.1-0.2-0.3-0.2-0.5c0-1.3-0.4-2.2-1.1-2.8c-0.7-0.5-1.6-0.8-2.6-0.8c-1.4,0-2.4,0.4-3.2,1.3
		c-0.8,0.9-1.2,2.2-1.2,4v7.8c0,0.2,0,0.3-0.1,0.4s-0.2,0.1-0.4,0.1h-3.4c-0.2,0-0.3,0-0.4-0.1s-0.1-0.2-0.1-0.4V28.2
		c0-0.2,0-0.3,0.1-0.4c0.1-0.1,0.2-0.1,0.4-0.1h3.2c0.2,0,0.3,0,0.4,0.1c0.1,0.1,0.1,0.2,0.2,0.4l0.1,3h0.6c0.4-1.2,1.1-2.1,2.1-2.8
		c1-0.7,2.2-1.1,3.6-1.1c1.2,0,2.3,0.3,3.2,0.8C132.4,28.7,133.2,29.4,133.7,30.3z"/>
	<path class="st0" d="M152.4,37.4c-0.2,0.1-0.6,0.2-1,0.2l-11.5,0c0.1,1.4,0.6,2.5,1.6,3.2c1,0.8,2.3,1.1,3.9,1.1
		c0.8,0,1.5-0.1,2.2-0.3c0.7-0.2,1.3-0.4,1.9-0.7c0.2-0.1,0.4-0.2,0.5-0.2c0.2,0,0.3,0.1,0.5,0.2c0.2,0.1,0.3,0.3,0.5,0.6
		c0.4,0.5,0.6,0.9,0.6,1.1c0,0.2-0.1,0.5-0.4,0.7c-0.7,0.6-1.5,1.2-2.6,1.5c-1.1,0.4-2.3,0.6-3.6,0.6c-1.8,0-3.5-0.4-4.9-1.1
		c-1.4-0.8-2.5-1.8-3.3-3.2c-0.8-1.4-1.2-3-1.2-4.7c0-1.8,0.4-3.4,1.1-4.7c0.7-1.4,1.8-2.4,3.1-3.2c1.4-0.8,2.9-1.1,4.7-1.1
		c1.7,0,3.2,0.4,4.5,1.1c1.3,0.7,2.2,1.7,2.9,3c0.7,1.3,1,2.8,1,4.4c0,0.4,0,0.8-0.1,1C152.8,37.1,152.7,37.3,152.4,37.4z
		 M140.1,34.6h9c-0.2-1.2-0.6-2.1-1.4-2.7c-0.8-0.6-1.8-0.9-3-0.9c-1.2,0-2.2,0.3-3,0.9C140.8,32.6,140.3,33.5,140.1,34.6z"/>
</g>
</svg>
