<?xml version="1.0" encoding="utf-8"?>
<!-- Generator: Adobe Illustrator 28.2.0, SVG Export Plug-In . SVG Version: 6.00 Build 0)  -->
<svg version="1.1" id="Layer_1" xmlns="http://www.w3.org/2000/svg" xmlns:xlink="http://www.w3.org/1999/xlink" x="0px" y="0px"
	 viewBox="0 0 72 72" style="enable-background:new 0 0 72 72;" xml:space="preserve">
<style type="text/css">
	.st0{fill:#FED241;}
	.st1{fill:#FFFFFF;}
</style>
<g>
	<circle class="st0" cx="36" cy="36" r="31.5"/>
</g>
<g>
	<path class="st1" d="M28.1,15.3c0.2,0.1,0.6,0.2,0.9,0.5c2.2,1.5,4.4,3,6.5,4.5c0.4,0.3,0.6,0.3,1,0c2.2-1.5,4.3-3,6.5-4.5
		c1.2-0.8,2.1-0.5,2.4,1c0.5,2.5,1,5,1.4,7.6c0.1,0.6,0.4,0.9,1,1c2.6,0.4,5.1,0.9,7.7,1.4c1.3,0.2,1.6,1.1,0.9,2.2
		c-1.5,2.2-3.1,4.5-4.6,6.7c-0.3,0.4-0.3,0.6,0,1c1.5,2.1,3,4.3,4.5,6.5c0.9,1.3,0.6,2.1-1,2.4c-2.5,0.5-5,1-7.5,1.4
		c-0.7,0.1-1,0.4-1.1,1.1c-0.4,2.6-0.9,5.1-1.4,7.6c-0.2,1.3-1.1,1.7-2.2,0.9c-1.5-1-3-2-4.4-3.1c-0.7-0.5-1.5-1-2.2-1.6
		c-0.3-0.2-0.6-0.2-0.9,0c-2.2,1.5-4.3,3-6.5,4.5c-1.3,0.9-2.1,0.5-2.4-1c-0.5-2.5-1-5-1.4-7.5c-0.1-0.7-0.4-0.9-1-1
		c-2.6-0.4-5.1-0.9-7.6-1.4c-1.3-0.3-1.7-1.1-0.9-2.3c1.5-2.2,3-4.4,4.5-6.5c0.3-0.4,0.3-0.7,0-1.1c-1.5-2.1-3-4.3-4.5-6.5
		c-0.8-1.2-0.5-2.1,1-2.4c2.5-0.5,5.1-1,7.6-1.4c0.6-0.1,0.9-0.3,1-0.9c0.4-2.6,0.9-5.2,1.4-7.8C26.8,15.8,27.3,15.3,28.1,15.3z
		 M46.4,36c0-5.8-4.6-10.4-10.4-10.4c-5.8,0-10.4,4.6-10.4,10.4c0,5.8,4.6,10.4,10.4,10.4C41.8,46.4,46.4,41.8,46.4,36z"/>
	<path class="st1" d="M43.8,36c0,4.2-3.6,7.8-7.8,7.7c-4.3,0-7.7-3.5-7.7-7.8c0-4.2,3.6-7.8,7.8-7.7C40.3,28.3,43.8,31.8,43.8,36z"
		/>
</g>
</svg>
