<?xml version="1.0" encoding="utf-8"?>
<!-- Generator: Adobe Illustrator 28.2.0, SVG Export Plug-In . SVG Version: 6.00 Build 0)  -->
<svg version="1.1" id="Layer_1" xmlns="http://www.w3.org/2000/svg" xmlns:xlink="http://www.w3.org/1999/xlink" x="0px" y="0px"
	 viewBox="0 0 72 72" style="enable-background:new 0 0 72 72;" xml:space="preserve">
<style type="text/css">
	.st0{fill:#26D07C;}
</style>
<circle class="st0" cx="36" cy="36" r="31.5"/>
<path d="M36,2.5C17.5,2.5,2.5,17.5,2.5,36c0,18.5,15,33.5,33.5,33.5c18.5,0,33.5-15,33.5-33.5C69.5,17.5,54.5,2.5,36,2.5z M6.6,38
	h11.7c0.1,3.9,0.8,7.8,2.2,11.5H9.8C8,46,6.9,42.1,6.6,38z M38,17.5V9.4c1.7,2,3.9,4.7,5.9,8.1H38z M46,21.5
	c1.8,3.7,3.1,7.9,3.6,12.5H38V21.5H46z M34,17.5h-5.8c2-3.4,4.1-6.1,5.8-8.1V17.5z M34,21.5V34H22.4c0.5-4.6,1.9-8.8,3.6-12.5H34z
	 M18.4,34H6.6c0.3-4.5,1.6-8.8,3.7-12.5h11.3C20,25.3,18.8,29.5,18.4,34z M22.3,38H34v11.5h-9.2C23.2,45.8,22.4,41.9,22.3,38z
	 M34,53.5v9.4c-3-3-5.4-6.2-7.2-9.4H34z M38,53.5h7.2c-1.8,3.2-4.2,6.4-7.2,9.4V53.5z M38,49.5V38h11.7c-0.1,3.9-1,7.8-2.5,11.5H38z
	 M53.7,38h11.7c-0.3,4.1-1.4,8-3.2,11.5H51.5C52.9,45.8,53.6,41.9,53.7,38z M53.6,34c-0.4-4.5-1.6-8.7-3.2-12.5h11.3
	c2.1,3.7,3.4,8,3.7,12.5H53.6z M59,17.5H48.5c-2.4-4.4-5.1-8-7.3-10.5C48.3,8.3,54.6,12.1,59,17.5z M30.8,7
	c-2.2,2.5-4.9,6.1-7.3,10.5H13C17.4,12.1,23.7,8.3,30.8,7z M12.3,53.5h10c2,3.9,4.7,7.8,8.2,11.5C23,63.5,16.6,59.4,12.3,53.5z
	 M41.6,65c3.5-3.7,6.2-7.5,8.2-11.5h10C55.4,59.4,49,63.5,41.6,65z"/>
</svg>
