<?xml version="1.0" encoding="utf-8"?>
<!-- Generator: Adobe Illustrator 28.2.0, SVG Export Plug-In . SVG Version: 6.00 Build 0)  -->
<svg version="1.1" id="Layer_1" xmlns="http://www.w3.org/2000/svg" xmlns:xlink="http://www.w3.org/1999/xlink" x="0px" y="0px"
	 viewBox="0 0 72 72" style="enable-background:new 0 0 72 72;" xml:space="preserve">
<style type="text/css">
	.st0{fill:#EF3340;}
	.st1{fill:#FFFFFF;}
</style>
<g>
	<g>
		<circle class="st0" cx="36" cy="36" r="31.5"/>
	</g>
	<path class="st1" d="M36,57.4C24,57.3,14.5,47.7,14.6,35.8c0.1-11.8,9.8-21.4,21.7-21.2c11.6,0.2,21.2,9.6,21.1,21.5
		C57.3,47.9,47.7,57.4,36,57.4z M41,40.3c0.5-2.9,0.5-5.7,0-8.5c-3.3,0-6.7,0-10,0c-0.5,2.8-0.5,5.7,0,8.5
		C34.3,40.3,37.7,40.3,41,40.3z M45.3,40.2c0.1,0,0.1,0,0.2,0c2.3,0,4.6,0,6.9,0c0.1,0,0.2,0,0.2-0.2c0.1-0.7,0.3-1.4,0.4-2.1
		c0.2-1.5,0.2-3-0.1-4.4c-0.1-0.6-0.2-1.2-0.3-1.8c-2.4,0-4.8,0-7.3,0C45.7,34.6,45.7,37.4,45.3,40.2z M19.4,31.7
		c-0.3,1-0.4,2-0.5,3c-0.1,1.8,0,3.5,0.4,5.3c0,0.2,0.1,0.3,0.3,0.3c2.2,0,4.5,0,6.7,0c0.1,0,0.2,0,0.3,0c-0.4-2.9-0.4-5.7,0-8.5
		C24.2,31.7,21.8,31.7,19.4,31.7z M36,19c-1.8,2.6-3.2,5.4-4.1,8.4c2.7,0,5.4,0,8.2,0C39.2,24.4,37.8,21.6,36,19z M36,53
		c1.8-2.6,3.2-5.4,4.1-8.4c-2.7,0-5.4,0-8.2,0C32.8,47.6,34.2,50.4,36,53z M30.4,19.9c-4,1.4-7,3.9-9.2,7.6c0.1,0,0.1,0,0.1,0
		c2,0,4,0,6,0c0.2,0,0.2-0.1,0.2-0.2c0.4-1.5,0.9-2.9,1.5-4.3C29.4,21.9,29.9,20.9,30.4,19.9z M41.6,19.8
		C41.6,19.9,41.6,19.9,41.6,19.8c1.3,2.4,2.2,4.8,2.9,7.4c0,0.2,0.1,0.2,0.3,0.2c1.9,0,3.9,0,5.8,0c0.1,0,0.1,0,0.2,0
		C48.6,23.8,45.6,21.3,41.6,19.8z M21.2,44.6c2.2,3.7,5.2,6.2,9.2,7.6c-0.1-0.2-0.2-0.4-0.3-0.6c-1.1-2.1-1.9-4.4-2.5-6.7
		c0-0.2-0.1-0.2-0.3-0.2c-1.3,0-2.5,0-3.8,0C22.7,44.6,22,44.6,21.2,44.6z M50.8,44.6c-0.1,0-0.2,0-0.3,0c-1.9,0-3.8,0-5.8,0
		c-0.2,0-0.3,0.1-0.3,0.3c-0.6,2.2-1.4,4.3-2.4,6.3c-0.2,0.3-0.3,0.6-0.5,1C45.6,50.7,48.6,48.2,50.8,44.6z"/>
</g>
</svg>
