<?xml version="1.0" encoding="utf-8"?>
<!-- Generator: Adobe Illustrator 28.2.0, SVG Export Plug-In . SVG Version: 6.00 Build 0)  -->
<svg version="1.1" id="Layer_1" xmlns="http://www.w3.org/2000/svg" xmlns:xlink="http://www.w3.org/1999/xlink" x="0px" y="0px"
	 viewBox="0 0 99 81" style="enable-background:new 0 0 99 81;" xml:space="preserve">
<style type="text/css">
	.st0{fill:#FFFFFF;}
	.st1{fill:#FF8200;}
</style>
<g>
	<path class="st0" d="M97.2,15.2c-4.8-4.1-10.9-6.3-17.1-6.3c-4.8,0-9.5,1.3-13.7,3.8c0,0,0,0-0.1,0l0,0c-1,0.6-2.1,1.1-3.3,1.5
		c-1.7,0.6-3.4,0.9-5.2,0.9l-0.1,0h-0.1c-1.8,0-3.5-0.3-5.2-0.9c-1.1-0.4-2.2-0.9-3.3-1.5c0,0-0.1-0.1-0.1-0.1
		c-4.1-2.5-8.9-3.8-13.7-3.8c-3.8,0-7.4,0.8-10.8,2.3C24.1,4.9,18.8,0,12.4,0C5.6,0,0,5.5,0,12.3c0,3.3,1.4,6.5,3.7,8.8v54.1
		c0,3.2,2.6,5.8,5.8,5.8h5.8c3.2,0,5.8-2.6,5.8-5.8c0-0.4,0-2.5,0-2.5c0-0.1,1.7-1.5,2.6-2.2c1.6-1.3,2.6-1.9,4.2-2.8c0,0,0,0,0.1,0
		c0,0,0,0,0,0c2.4-1.2,4.9-1.9,7.6-1.9c3,0,5.9,0.8,8.5,2.4c0.1,0.1,0.2,0.1,0.3,0.2c0,0,0,0,0,0c1.6,1,3.3,1.7,5.1,2.4
		c2.7,0.9,5.6,1.4,8.5,1.4c2.9,0,5.7-0.5,8.5-1.4c0,0,0,0,0.1,0c1.7-0.6,3.3-1.3,4.9-2.3c0,0,0.1-0.1,0.1-0.1c0,0,0,0,0.1,0l0.1,0
		c0,0,0,0,0,0l0.1-0.1c0,0,0.1,0,0.1,0c0,0,0.1,0,0.1-0.1c2.5-1.4,5.3-2.2,8.1-2.3c0,0,0.1,0,0.1,0l0.1,0l0.1,0c0,0,0.1,0,0.2,0
		c2.6,0,5.1,0.7,7.4,1.9c1.1,0.6,2.1,1.3,3.1,2.1c0.9,0.8,2.1,1.2,3.2,1.2c0.7,0,1.4-0.2,2.1-0.5C97.9,69.7,99,68,99,66v-5.4v-5V19
		C99,17.5,98.4,16.2,97.2,15.2z M69.1,63.9C69.1,63.9,69.1,64,69.1,63.9L69.1,63.9C69.1,63.9,69.1,63.9,69.1,63.9z"/>
	<path class="st1" d="M68.7,64.2C68.7,64.2,68.8,64.1,68.7,64.2c0.1-0.1,0.1-0.1,0.1-0.1c0.1-0.1,0.2-0.1,0.3-0.2c0,0,0,0,0.1,0
		c3.2-1.9,6.8-3,10.7-3c0,0,0,0,0,0c0,0,0,0,0,0c0,0,0,0,0,0c0.1,0,0.1,0,0.2,0s0.1,0,0.2,0c0,0,0,0,0,0c0,0,0,0,0,0c0,0,0,0,0,0
		c3.5,0,6.8,0.9,9.7,2.5c1.4,0.8,2.8,1.7,4,2.7v-5.4v-5V19c-3.8-3.2-8.7-5.2-13.9-5.2c-4,0-7.8,1.1-11.1,3.1c0,0-0.1,0-0.1,0.1
		l0.1-0.1c0,0-0.1,0-0.1,0.1c-1.3,0.8-2.8,1.5-4.2,2c-2.1,0.7-4.4,1.1-6.8,1.1c0,0,0,0-0.1,0c0,0,0,0-0.1,0c-2.4,0-4.6-0.4-6.8-1.1
		c-1.5-0.5-2.9-1.2-4.2-2c0,0-0.1,0-0.1-0.1l0.1,0.1c0,0-0.1,0-0.1-0.1c-3.3-2-7.1-3.1-11.1-3.1c-4.7,0-9.1,1.5-12.7,4.2
		c0,0-0.1,0.1-0.1,0.1c-0.4,0.3-0.8,0.6-1.1,0.9h0v36.7v5V66h0c1.2-1,2.6-1.9,4-2.7c0,0,0,0,0,0c0,0,0.1,0,0.1,0c0,0,0,0,0,0
		c3-1.5,6.3-2.4,9.9-2.4c4,0,7.8,1.1,11,3.1c0.1,0.1,0.2,0.1,0.3,0.2L46.5,64c0.1,0.1,0.2,0.1,0.3,0.2c1.3,0.8,2.7,1.4,4.1,1.9
		c0,0,0,0,0,0c2.2,0.7,4.5,1.1,6.9,1.1c2.4,0,4.7-0.4,6.9-1.1c0,0,0,0,0,0C66.1,65.6,67.4,64.9,68.7,64.2
		C68.7,64.2,68.8,64.1,68.7,64.2c0.1,0,0.1-0.1,0.1-0.1c0.1-0.1,0.2-0.1,0.3-0.2c0,0,0,0,0.1,0L68.7,64.2z"/>
	<g>
		<path class="st0" d="M42.7,28.7c-1.1-0.3-1.6-0.4-2.8-0.6c0,0,0,0-0.1,0c-0.1,0-0.2,0-0.3,0.1c-0.1,0.1-0.1,0.2-0.1,0.3l0,3.8
			l0,3.4c-1.1-0.1-2.2-0.2-3.3-0.2c-0.8,0-1.6,0-2.4,0.1v0l0-7.2c0-0.1-0.1-0.2-0.1-0.3C33.5,28,33.4,28,33.3,28c0,0,0,0,0,0
			c-1.1,0.1-1.7,0.2-2.8,0.5c-0.2,0-0.3,0.2-0.3,0.4v19.2c0,0.1,0.1,0.2,0.2,0.3c0.1,0.1,0.2,0.1,0.3,0.1c0,0,0.1,0,0.1,0
			c1.1-0.3,1.6-0.4,2.7-0.5c0.2,0,0.4-0.2,0.4-0.4l0-7.9c0.8-0.1,1.6-0.1,2.4-0.1c1.1,0,2.2,0.1,3.3,0.2l0,3.7l0,4.1
			c0,0.2,0.1,0.4,0.3,0.4c1.1,0.2,1.6,0.3,2.7,0.6c0,0,0.1,0,0.1,0c0.1,0,0.2,0,0.2-0.1c0.1-0.1,0.2-0.2,0.2-0.3l0-8.2l0-11
			C43,28.9,42.9,28.7,42.7,28.7z"/>
		<path class="st0" d="M56.7,33.1c-3.4-0.3-6.4-1.1-9.4-2.5c-0.1,0-0.1,0-0.2,0c-0.1,0-0.2,0-0.2,0.1c-0.1,0.1-0.2,0.2-0.2,0.4
			l0,9.6l0,9.6c0,0.2,0.1,0.3,0.2,0.4c3.1,1.5,6.2,2.3,9.7,2.6c0,0,0,0,0,0c0.1,0,0.2,0,0.3-0.1c0.1-0.1,0.1-0.2,0.1-0.3l0-3.2
			c0-0.2-0.2-0.4-0.4-0.4c-2.3-0.2-4.5-0.6-6.7-1.3l0-4.2c2,0.6,4,1,6.1,1.3c0,0,0,0,0,0c0.1,0,0.2,0,0.3-0.1
			c0.1-0.1,0.1-0.2,0.1-0.3l0-1.6l0-1.6c0-0.2-0.2-0.4-0.4-0.4c-2.2-0.2-4.1-0.6-6.2-1.3l0-3.7c2.2,0.7,4.3,1.1,6.6,1.3c0,0,0,0,0,0
			c0.1,0,0.2,0,0.3-0.1c0.1-0.1,0.1-0.2,0.1-0.3l0-0.4l0-2.8C57.1,33.3,56.9,33.1,56.7,33.1z"/>
		<path class="st0" d="M71,46.1c-0.7-1.4-1.4-2.8-2.1-4.2c1.4-1.6,2.2-3.9,2.2-6.4c0-1.6-0.3-2.8-1.1-3.5c-0.5-0.5-1.2-0.8-2-0.8h0
			c-0.6,0-1.3,0.1-2,0.4c-1.4,0.5-3,0.9-4.7,1.2c-0.2,0-0.4,0.2-0.4,0.4l0,19.2c0,0.1,0.1,0.2,0.1,0.3c0.1,0.1,0.2,0.1,0.3,0.1
			c0,0,0,0,0.1,0c1.1-0.2,1.7-0.3,2.7-0.6c0.2,0,0.3-0.2,0.3-0.4l0-7.6c0.2,0,0.3-0.1,0.5-0.2c0.2-0.1,0.4-0.1,0.5-0.2
			c1.2,2.4,2.2,4.3,3.1,6.1c0,0.1,0.1,0.2,0.2,0.2c0,0,0.1,0,0.1,0c0.1,0,0.1,0,0.2,0c0.9-0.5,1.8-0.9,2.8-1.2
			c0.1,0,0.2-0.1,0.3-0.2c0-0.1,0-0.2,0-0.3C71.8,47.7,71.4,46.9,71,46.1z M68,31.6c0.1,0,0.1,0,0.2,0C68.1,31.6,68,31.6,68,31.6
			C68,31.6,68,31.6,68,31.6z M64.4,40.2l0-0.3l0-3.7c0.6-0.2,0.9-0.3,1.5-0.5c0,0,0,0,0,0c0.3-0.1,0.6-0.2,0.8-0.2
			c0.2,0,0.6,0,0.8,0.3c0.2,0.2,0.3,0.5,0.2,0.9c-0.1,0.7-0.4,2.5-2.1,3.2C65.2,40,64.9,40.1,64.4,40.2z"/>
		<path class="st0" d="M85.5,32.6C85.5,32.6,85.6,32.6,85.5,32.6c0.2,0,0.3,0,0.4-0.1c0.1-0.1,0.2-0.2,0.2-0.3V29
			c0-0.2-0.1-0.4-0.3-0.4c-2.1-0.5-4.2-0.8-6.3-0.8v0.4l0-0.4c-1.3,0-2.6,0.1-3.9,0.3c-0.2,0-0.4,0.2-0.4,0.4l0,9.6l0,9.6
			c0,0.1,0.1,0.2,0.1,0.3c0.1,0.1,0.2,0.1,0.3,0.1c0,0,0,0,0.1,0c1.3-0.2,2.5-0.3,3.8-0.3c2,0,4.1,0.2,6.1,0.7c0,0,0.1,0,0.1,0
			c0.1,0,0.2,0,0.3-0.1c0.1-0.1,0.2-0.2,0.2-0.3V45c0-0.2-0.1-0.4-0.3-0.4c-2.2-0.5-4.4-0.8-6.7-0.8c-0.1,0-0.2,0-0.2,0l0-4.2
			c0.1,0,0.1,0,0.2,0c2.1,0,4.1,0.2,6.1,0.7c0,0,0.1,0,0.1,0c0.1,0,0.2,0,0.3-0.1c0.1-0.1,0.2-0.2,0.2-0.3l0-3.2
			c0-0.2-0.1-0.4-0.3-0.4c-2.1-0.5-4.1-0.7-6.2-0.7c-0.1,0-0.1,0-0.2,0l0-1l0-2.7c0.1,0,0.2,0,0.2,0C81.3,31.8,83.3,32.1,85.5,32.6z
			 M79,44.2c0.1,0,0.1,0,0.2,0C79.1,44.2,79,44.2,79,44.2C79,44.2,79,44.2,79,44.2z M79,36C79,36,79,36,79,36C79,36,79,36,79,36
			C78.9,36,79,36,79,36z"/>
	</g>
	<path class="st1" d="M19.8,12.3c0-4.1-3.3-7.4-7.4-7.4s-7.4,3.3-7.4,7.4c0,2.7,1.5,5.1,3.7,6.4v56.5c0,0.5,0.4,0.8,0.8,0.8h5.8
		c0.5,0,0.8-0.4,0.8-0.8V18.7C18.3,17.5,19.8,15.1,19.8,12.3z"/>
</g>
</svg>
