<?xml version="1.0" encoding="utf-8"?>
<!-- Generator: Adobe Illustrator 28.2.0, SVG Export Plug-In . SVG Version: 6.00 Build 0)  -->
<svg version="1.1" id="Layer_1" xmlns="http://www.w3.org/2000/svg" xmlns:xlink="http://www.w3.org/1999/xlink" x="0px" y="0px"
	 viewBox="0 0 1417.5 369" style="enable-background:new 0 0 1417.5 369;" xml:space="preserve">
<style type="text/css">
	.st0{fill:#EF3340;}
</style>
<g>
	<g>
		<path class="st0" d="M284.8,205.1h-61.4c-10.1,0-18.3,8.2-18.3,18.3v61.4c0,20.8,8,40.6,22.5,55.5c15.4,15.8,35.8,24.1,57.1,24.1
			c12.8,0,25.9-3,38.5-9c13.9-6.7,25.3-18.1,32.1-32.1c16.2-33.5,10.3-71-15-95.7C325.4,213.1,305.7,205.1,284.8,205.1z
			 M338.3,315.1c-4.9,10.1-13.1,18.4-23.2,23.2c-31.6,15.3-58.8,4.3-73.8-11.2c-11.1-11.4-17.2-26.5-17.2-42.3v-56.4
			c0-2.4,1.9-4.3,4.3-4.3h56.4c15.9,0,30.9,6.1,42.3,17.2C342.6,256.2,353.6,283.5,338.3,315.1z"/>
		<path class="st0" d="M83.6,162.6h60.9c10,0,18.2-8.2,18.2-18.2V83.6c0-20.7-7.9-40.2-22.4-55.1c-24.4-25.1-61.7-31-94.9-14.9
			c-13.8,6.7-25.1,18-31.8,31.8c-16.1,33.2-10.2,70.5,14.9,94.9C43.3,154.7,62.9,162.6,83.6,162.6z"/>
		<path class="st0" d="M274.8,183.9c49.5,0,89.7-40.2,89.7-89.7c0-49.5-40.2-89.7-89.7-89.7s-89.7,40.2-89.7,89.7v30.1
			c0,33.5-27.2,60.7-60.7,60.7H94.2c-49.5,0-89.7,40.2-89.7,89.7c0,49.5,40.2,89.7,89.7,89.7s89.7-40.2,89.7-89.7v-30.1
			c0-33.5,27.2-60.7,60.7-60.7H274.8z M165,244.7v30.1c0,39-31.7,70.8-70.8,70.8c-39,0-70.8-31.7-70.8-70.8
			c0-39,31.7-70.8,70.8-70.8h30.1c43.9,0,79.7-35.7,79.7-79.7V94.2c0-39,31.7-70.8,70.8-70.8c39,0,70.8,31.7,70.8,70.8
			c0,39-31.7,70.8-70.8,70.8h-30.1C200.7,165,165,200.7,165,244.7z"/>
	</g>
	<g>
		<path class="st0" d="M518.1,280.8h-66c-1.3,0-2.3,1-2.3,2.3v11.5c0,1.3,1,2.3,2.3,2.3H476v63.8c0,1.3,1,2.3,2.3,2.3h13.8
			c1.3,0,2.3-1,2.3-2.3V297h23.7c1.3,0,2.3-1,2.3-2.3v-11.5C520.4,281.8,519.4,280.8,518.1,280.8z"/>
		<path class="st0" d="M593.2,327.6c9.1-3.9,13.9-11.5,13.9-22.2c0-11.2-5.2-24.6-30.1-24.6h-26.3c-1.3,0-2.3,1-2.3,2.3v77.7
			c0,1.3,1,2.3,2.3,2.3h13.6c1.3,0,2.3-1,2.3-2.3v-30.3h7.9l19.2,31.5c0.4,0.7,1.2,1.1,2,1.1h15.7c0.8,0,1.6-0.5,2-1.2
			c0.4-0.7,0.4-1.6-0.1-2.4L593.2,327.6z M566.7,297h8.9c11.7,0,13.2,4.3,13.2,8.6c0,4.1-1.5,8.8-13.2,8.8h-8.9V297z"/>
		<path class="st0" d="M686.1,282.2c-0.4-0.9-1.2-1.4-2.1-1.4h-10.4c-0.9,0-1.8,0.6-2.1,1.4L639,359.9c-0.3,0.7-0.2,1.5,0.2,2.2
			c0.4,0.6,1.2,1,1.9,1H656c1,0,1.8-0.6,2.2-1.5l5.7-14.7h29.8l5.7,14.7c0.3,0.9,1.2,1.5,2.2,1.5h14.8c0.8,0,1.5-0.4,1.9-1
			c0.4-0.6,0.5-1.5,0.2-2.2L686.1,282.2z M687.5,330.7h-17.3l8.7-22.3L687.5,330.7z"/>
		<path class="st0" d="M808.9,280.8h-15.1c-0.9,0-1.8,0.6-2.2,1.5l-20.5,51.4l-20.9-51.4c-0.4-0.9-1.2-1.4-2.2-1.4h-15
			c-0.8,0-1.5,0.4-1.9,1c-0.4,0.6-0.5,1.5-0.2,2.2l32.9,77.7c0.4,0.9,1.2,1.4,2.1,1.4h10.2c0.9,0,1.8-0.6,2.1-1.4l32.7-77.7
			c0.3-0.7,0.2-1.5-0.2-2.2C810.4,281.2,809.7,280.8,808.9,280.8z"/>
		<path class="st0" d="M895.9,280.8h-54.5c-1.3,0-2.3,1-2.3,2.3v77.7c0,1.3,1,2.3,2.3,2.3h54.5c1.3,0,2.3-1,2.3-2.3v-11.5
			c0-1.3-1-2.3-2.3-2.3h-38.5v-17.8h35.4c1.3,0,2.3-1,2.3-2.3v-11.5c0-1.3-1-2.3-2.3-2.3h-35.4v-16h38.5c1.3,0,2.3-1,2.3-2.3v-11.5
			C898.2,281.8,897.2,280.8,895.9,280.8z"/>
		<path class="st0" d="M981.9,346.9h-33.2v-63.8c0-1.3-1-2.3-2.3-2.3h-13.6c-1.3,0-2.3,1-2.3,2.3v77.7c0,1.3,1,2.3,2.3,2.3h49.1
			c1.3,0,2.3-1,2.3-2.3v-11.5C984.2,348,983.1,346.9,981.9,346.9z"/>
		<path class="st0" d="M1047.2,313c-11.6-4.1-15.2-6.7-15.2-10.8c0-4,3.8-7,9-7c4.9,0,9,2.6,12.1,7.7c0.7,1.1,2.1,1.4,3.1,0.8
			l10.8-6.2c1.1-0.6,1.5-2,0.9-3.1c-5.5-9.9-14.7-15.2-26.5-15.2c-16.3,0-27.8,9.6-27.8,23.3c0,14.7,11.9,21,24.7,25.6
			c10.9,3.9,15.4,6.4,15.4,11.4c0,5.2-4.8,8.8-11.6,8.8c-8.9,0-14.6-4.6-16-13c-0.1-0.6-0.5-1.2-1-1.5c-0.5-0.3-1.2-0.5-1.8-0.3
			l-13.3,3.1c-1.2,0.3-2,1.4-1.8,2.7c2.7,15.5,15.5,25.2,33.4,25.2c17.8,0,30.2-10.6,30.2-25.7C1072,323.9,1060.1,317.6,1047.2,313z
			"/>
	</g>
	<g>
		<path class="st0" d="M522.9,41.3c-10.6,0-19.2-9-18.4-19.7c0.6-9.1,8-16.4,17.1-17c10.8-0.7,19.8,7.8,19.8,18.4V38
			c0,1.8-1.5,3.3-3.3,3.3H522.9z"/>
		<path class="st0" d="M962.7,85.2c4,8.3,6,18.2,6,29.6v74.4c0,1.1-0.4,2.1-1.1,2.8c-0.7,0.8-1.7,1.1-2.9,1.1h-25.5
			c-1.2,0-2.1-0.4-2.9-1.1c-0.8-0.8-1.1-1.7-1.1-2.8v-68c0-9.5-2.5-17.1-7.6-22.6c-5.1-5.5-12.2-8.3-21.4-8.3
			c-9.1,0-16.2,2.8-21.4,8.3c-5.1,5.5-7.7,13-7.7,22.6v68c0,1.1-0.4,2.1-1.1,2.8c-0.7,0.8-1.7,1.1-2.9,1.1h-25.5
			c-1.2,0-2.1-0.4-2.9-1.1c-0.8-0.8-1.1-1.7-1.1-2.8V11.8c0-1.2,0.4-2.2,1.1-2.9c0.8-0.7,1.7-1.1,2.9-1.1H873c1.2,0,2.2,0.4,2.9,1.1
			c0.7,0.7,1.1,1.7,1.1,2.9V85h4.1c3.4-7.5,8.5-13.6,15.3-18.4c6.9-4.8,15.2-7.1,24.9-7.1c9.3,0,17.5,2.2,24.6,6.6
			C953.1,70.5,958.7,76.9,962.7,85.2z"/>
		<path class="st0" d="M483.3,121.2v68c0,1.1-0.4,2.1-1.1,2.8c-0.7,0.8-1.7,1.1-2.9,1.1h-25.5c-1.2,0-2.1-0.4-2.9-1.1
			c-0.8-0.8-1.1-1.7-1.1-2.8V11.8c0-1.2,0.4-2.2,1.1-2.9c0.8-0.7,1.7-1.1,2.9-1.1h25.5c1.2,0,2.2,0.4,2.9,1.1
			c0.7,0.7,1.1,1.7,1.1,2.9V85V121.2z"/>
		<path class="st0" d="M1116.2,135.8c-1.7,0.9-4.3,1.4-7.6,1.4l-87-0.1c0.7,10.4,4.8,18.5,12.4,24.2c7.5,5.7,17.4,8.6,29.6,8.6
			c5.8,0,11.4-0.7,16.6-2c5.2-1.3,9.9-3.1,14.1-5.4c1.5-0.8,2.8-1.2,3.8-1.2c1.2,0,2.3,0.4,3.5,1.3c1.2,0.8,2.5,2.2,4,4.2
			c2.9,3.6,4.4,6.4,4.4,8.5c0,1.7-1,3.4-2.9,5.3c-5,4.9-11.6,8.7-19.8,11.7s-17.4,4.4-27.4,4.4c-13.9,0-26.2-2.9-36.8-8.7
			c-10.6-5.8-18.9-13.9-24.7-24.2c-5.8-10.4-8.8-22.3-8.8-35.8c0-13.4,2.8-25.3,8.4-35.6c5.6-10.3,13.5-18.4,23.8-24.1
			c10.2-5.7,22-8.6,35.3-8.6c13.1,0,24.4,2.8,34,8.3c9.6,5.5,16.9,13.2,21.9,22.9c5,9.8,7.6,20.9,7.6,33.4c0,3.2-0.3,5.7-0.9,7.5
			C1119,133.5,1117.9,134.9,1116.2,135.8z M1022.7,114.7h68.1c-1.2-8.8-4.8-15.5-10.8-20.1c-5.9-4.6-13.6-6.8-23-6.8
			c-9.3,0-16.9,2.3-22.9,6.9C1028.2,99.3,1024.4,105.9,1022.7,114.7z"/>
		<path class="st0" d="M1411.1,135.8c-1.7,0.9-4.3,1.4-7.6,1.4l-87-0.1c0.7,10.4,4.8,18.5,12.4,24.2c7.5,5.7,17.4,8.6,29.6,8.6
			c5.8,0,11.4-0.7,16.6-2c5.2-1.3,9.9-3.1,14.1-5.4c1.5-0.8,2.8-1.2,3.8-1.2c1.2,0,2.3,0.4,3.5,1.3c1.2,0.8,2.5,2.2,4,4.2
			c2.9,3.6,4.4,6.4,4.4,8.5c0,1.7-1,3.4-2.9,5.3c-5,4.9-11.6,8.7-19.8,11.7s-17.4,4.4-27.4,4.4c-13.9,0-26.2-2.9-36.8-8.7
			c-10.6-5.8-18.9-13.9-24.7-24.2c-5.8-10.4-8.8-22.3-8.8-35.8c0-13.4,2.8-25.3,8.4-35.6c5.6-10.3,13.5-18.4,23.8-24.1
			c10.2-5.7,22-8.6,35.3-8.6c13.1,0,24.4,2.8,34,8.3c9.6,5.5,16.9,13.2,21.9,22.9c5,9.8,7.6,20.9,7.6,33.4c0,3.2-0.3,5.7-0.9,7.5
			C1414,133.5,1412.9,134.9,1411.1,135.8z M1317.7,114.7h68.1c-1.2-8.8-4.8-15.5-10.8-20.1c-5.9-4.6-13.6-6.8-23-6.8
			c-9.3,0-16.9,2.3-22.9,6.9C1323.2,99.3,1319.4,105.9,1317.7,114.7z"/>
		<path class="st0" d="M1259.9,85.5c3.8,7,5.7,14.7,5.7,23.2c0,6.1-1,10.5-3,13c-2,2.5-5,3.8-8.8,3.8h-14.6c-1.8,0-3.1-0.4-4.2-1.2
			c-1-0.8-1.6-2.1-1.6-3.7c-0.4-9.7-3.2-16.7-8.5-20.8s-11.9-6.2-19.7-6.2c-10.3,0-18.4,3.3-24.3,9.9c-5.9,6.6-8.8,16.5-8.8,29.7
			v58.6c0,1.1-0.4,2.1-1.1,2.8c-0.7,0.7-1.7,1.1-2.9,1.1h-25.3c-1.1,0-2.1-0.4-2.8-1.1s-1.1-1.7-1.1-2.8V69.5c0-1.2,0.4-2.2,1.1-2.9
			c0.7-0.7,1.7-1.1,2.8-1.1h24.3c1.1,0,2,0.4,2.7,1.1c0.7,0.7,1.1,1.7,1.3,2.9l1.1,22.3h4.6c3.2-8.8,8.5-15.8,16-21
			c7.5-5.3,16.5-7.9,27.1-7.9c9.1,0,17.2,2,24.1,6C1250.8,73,1256.2,78.5,1259.9,85.5z"/>
		<path class="st0" d="M666.5,189.2c0,1.1-0.4,2.1-1.1,2.8c-0.7,0.8-1.7,1.1-2.9,1.1H637c-1.2,0-2.1-0.4-2.9-1.1
			c-0.8-0.8-1.1-1.7-1.1-2.8v-68c0-9.5-2.5-17.1-7.6-22.6c-5.1-5.5-12.2-8.3-21.4-8.3c-9.1,0-16.2,2.8-21.4,8.3
			c-5.1,5.5-7.7,13-7.7,22.6v68c0,1.1-0.4,2.1-1.1,2.8c-0.7,0.8-1.7,1.1-2.9,1.1h-25.5c-1.2,0-2.1-0.4-2.9-1.1
			c-0.8-0.8-1.1-1.7-1.1-2.8V68.8c0-1.2,0.4-2.2,1.1-2.9c0.8-0.7,1.7-1.1,2.9-1.1h25.5c1.2,0,2.2,0.4,2.9,1.1
			c0.7,0.7,1.1,1.7,1.1,2.9V85l4.1,0c3.4-7.6,8.6-13.6,15.3-18.4c7.1-5,15.3-7.3,26.2-7.1c9.3,0.1,18.5,2.6,25.6,7.1
			c7.1,4.4,13.4,10.2,17.3,18.5h4.1c3.4-7.5,11.1-15.5,16.7-18.8c7.2-4.3,15.3-6.7,26.6-6.7c9.3,0,17.5,2.2,24.6,6.6
			c7.1,4.4,12.7,10.8,16.7,19.1s6,18.2,6,29.6v74.4c0,1.1-0.4,2.1-1.1,2.8c-0.7,0.8-1.7,1.1-2.9,1.1h-25.5c-1.2,0-2.1-0.4-2.9-1.1
			c-0.8-0.8-1.1-1.7-1.1-2.8v-68c0-9.5-2.5-17.1-7.6-22.6c-5.1-5.5-12.2-8.3-21.4-8.3c-9.1,0-16.2,2.8-21.4,8.3
			c-5.1,5.5-7.7,13-7.7,22.6L666.5,189.2z"/>
	</g>
</g>
</svg>
