<?xml version="1.0" encoding="UTF-8"?><svg id="Layer_1" xmlns="http://www.w3.org/2000/svg" viewBox="0 0 360 360"><defs><style>.cls-1{fill:#fff;stroke-width:0px;}</style></defs><path class="cls-1" d="M280,0c-44.18,0-80,35.82-80,80v30c0,21.42-7.49,41.11-20,56.56-3.98,4.96-8.49,9.47-13.44,13.44-15.44,12.51-35.13,20-56.56,20h-30C35.82,200,0,235.82,0,280s35.82,80,80,80,80-35.82,80-80v-30c0-21.42,7.49-41.11,20-56.56,3.98-4.96,8.49-9.47,13.44-13.44,15.44-12.51,35.13-20,56.56-20h30c44.18,0,80-35.82,80-80S324.18,0,280,0Z"/><path class="cls-1" d="M352.21,315.79c-7.13,16.22-20.2,29.3-36.43,36.43-35.97,15.81-71.2,6.15-93.17-16.46-14-14.42-22.62-34.09-22.62-55.76v-66.32c0-7.56,6.13-13.68,13.68-13.68h66.32c21.67,0,41.33,8.62,55.76,22.62,22.61,21.97,32.27,57.2,16.46,93.17Z"/><path class="cls-1" d="M79.93,160.58h64.2c10.12,0,15.83-5.74,15.83-15.9v-64.44c0-21.02-8.04-40.9-22.63-55.99C121.88,8.3,101.37,0,79.95,0c-12.86,0-26.06,2.99-38.68,9.12C27.28,15.91,15.85,27.39,9.09,41.43-7.18,75.21-1.27,113.06,24.16,137.86c15.03,14.65,34.84,22.72,55.77,22.72ZM26.21,49.75c4.91-10.18,13.19-18.51,23.34-23.43,31.72-15.4,59.09-4.29,74.12,11.24,11.12,11.5,17.25,26.67,17.25,42.68v56.88c0,2.4-1.94,4.35-4.33,4.35h-56.66c-15.96,0-31.06-6.15-42.51-17.32-15.47-15.09-26.54-42.57-11.2-74.41Z"/></svg>