<?xml version="1.0" encoding="utf-8"?>
<!-- Generator: Adobe Illustrator 28.2.0, SVG Export Plug-In . SVG Version: 6.00 Build 0)  -->
<svg version="1.1" id="Layer_1" xmlns="http://www.w3.org/2000/svg" xmlns:xlink="http://www.w3.org/1999/xlink" x="0px" y="0px"
	 viewBox="0 0 198 67.5" style="enable-background:new 0 0 198 67.5;" xml:space="preserve">
<style type="text/css">
	.st0{fill:#FFFFFF;}
	.st1{fill:#FF8200;}
	.st2{fill:#1C1F2A;}
</style>
<path class="st0" d="M53,45.1c-0.7,1.6-2,2.9-3.6,3.6c-3.6,1.6-7,0.6-9.2-1.6c-1.4-1.4-2.2-3.4-2.2-5.5V35c0-0.7,0.6-1.4,1.4-1.4
	h6.5c2.1,0,4.1,0.9,5.5,2.2C53.6,38,54.6,41.5,53,45.1z"/>
<path class="st0" d="M26.1,29.7h6.3c1,0,1.6-0.6,1.6-1.6v-6.4c0-2.1-0.8-4-2.2-5.5c-1.5-1.6-3.5-2.4-5.7-2.4c-1.3,0-2.6,0.3-3.8,0.9
	c-1.4,0.7-2.5,1.8-3.2,3.2c-1.6,3.3-1,7.1,1.5,9.5C22.1,28.9,24,29.7,26.1,29.7z M20.8,18.8c0.5-1,1.3-1.8,2.3-2.3
	c3.1-1.5,5.8-0.4,7.3,1.1c1.1,1.1,1.7,2.6,1.7,4.2v5.6c0,0.2-0.2,0.4-0.4,0.4h-5.6c-1.6,0-3.1-0.6-4.2-1.7
	C20.4,24.6,19.3,21.9,20.8,18.8z"/>
<path class="st1" d="M184.4,63H13.6c-5,0-9.1-4.1-9.1-9.1V13.6c0-5,4.1-9.1,9.1-9.1h170.8c5,0,9.1,4.1,9.1,9.1v40.3
	C193.5,58.9,189.4,63,184.4,63z"/>
<g>
	<path class="st2" d="M19.3,44.8V19.8c0-0.2,0.1-0.3,0.2-0.4c0.1-0.1,0.3-0.2,0.4-0.2H24c0.2,0,0.3,0,0.5,0.1
		c0.1,0.1,0.2,0.2,0.2,0.3l4.1,18.1h0.3l4.1-18.1c0-0.1,0.1-0.2,0.2-0.3c0.1-0.1,0.3-0.1,0.5-0.1H38c0.2,0,0.3,0.1,0.4,0.2
		c0.1,0.1,0.2,0.2,0.2,0.4v25.1c0,0.2-0.1,0.3-0.2,0.4c-0.1,0.1-0.2,0.2-0.4,0.2h-3c-0.2,0-0.3-0.1-0.4-0.2
		c-0.1-0.1-0.2-0.3-0.2-0.4V29.6h-0.3L30.9,43c0,0.2-0.1,0.3-0.2,0.4c-0.1,0.1-0.3,0.1-0.4,0.1h-2.4c-0.2,0-0.3,0-0.5-0.1
		c-0.1-0.1-0.2-0.2-0.3-0.3l-3.3-13.4h-0.3v15.2c0,0.2-0.1,0.3-0.2,0.4c-0.1,0.1-0.2,0.2-0.4,0.2h-3c-0.2,0-0.3-0.1-0.4-0.2
		C19.4,45.1,19.3,45,19.3,44.8z"/>
	<path class="st2" d="M60.9,43.4V44c0,0.6-0.2,1-0.6,1.3c-0.4,0.2-1,0.4-1.6,0.4c-1,0-1.9-0.3-2.5-0.9c-0.7-0.6-1-1.4-1-2.6v-0.4
		h-0.3c-0.4,1.1-1.1,2.1-2.2,2.9c-1.1,0.8-2.5,1.2-4.3,1.2h-1c-1.9,0-3.5-0.5-4.6-1.5c-1.1-1-1.7-2.4-1.7-4.3c0-1.7,0.5-3,1.5-4
		c1-1,2.5-1.5,4.6-1.6l7.4-0.5v-1c0-0.9-0.1-1.6-0.4-2c-0.2-0.5-0.6-0.8-1.2-1s-1.4-0.3-2.4-0.3c-1.3,0-2.2,0.2-2.8,0.5
		c-0.6,0.3-1,0.8-1.1,1.6c0,0.3-0.2,0.4-0.5,0.4h-3.6c-0.2,0-0.3,0-0.4-0.1C42,31.8,42,31.7,42,31.5c0.1-3.9,3-5.9,8.7-5.9
		c2.1,0,3.8,0.3,5.1,0.8c1.3,0.5,2.2,1.4,2.7,2.5c0.5,1.1,0.8,2.5,0.8,4.2v6.6c0,0.7,0.1,1.2,0.2,1.5c0.1,0.3,0.3,0.5,0.6,0.7
		c0.3,0.2,0.5,0.4,0.6,0.6C60.8,42.8,60.9,43,60.9,43.4z M53.8,40.4c0.5-0.6,0.7-1.3,0.7-2.2v-1.2l-6.2,0.4
		c-1.7,0.1-2.5,0.9-2.5,2.3c0,1.6,1.1,2.3,3.2,2.3h0.6c0.9,0,1.7-0.1,2.4-0.4C52.8,41.4,53.4,41,53.8,40.4z"/>
	<path class="st2" d="M82,30.6c0.8,1.5,1.1,3.3,1.1,5.3c0,1.9-0.3,3.6-1,5.1c-0.7,1.5-1.7,2.7-2.9,3.6s-2.7,1.3-4.4,1.3
		c-1.6,0-2.9-0.4-4-1.2c-1.1-0.8-1.8-1.8-2.3-3h-0.5l-0.3,3.1c0,0.4-0.2,0.6-0.6,0.6h-3.3c-0.2,0-0.3-0.1-0.4-0.2
		c-0.1-0.1-0.2-0.3-0.2-0.4V18.6c0-0.2,0.1-0.3,0.2-0.4c0.1-0.1,0.3-0.2,0.4-0.2h3.8c0.2,0,0.3,0.1,0.4,0.2c0.1,0.1,0.2,0.2,0.2,0.4
		v9.4c0.5-0.7,1.3-1.2,2.2-1.7c0.9-0.4,2.1-0.6,3.4-0.6c1.9,0,3.5,0.4,5,1.3C80.2,27.8,81.3,29,82,30.6z M77.7,38.7
		c0.4-0.8,0.6-1.8,0.6-2.9c0-1.1-0.2-2.1-0.6-2.9c-0.4-0.8-1-1.5-1.8-1.9c-0.8-0.4-1.7-0.7-2.7-0.7s-1.9,0.2-2.7,0.7
		c-0.8,0.5-1.4,1.1-1.8,1.9c-0.4,0.8-0.6,1.8-0.6,3c0,1.1,0.2,2.1,0.6,3c0.4,0.8,1,1.5,1.8,1.9c0.8,0.5,1.7,0.7,2.7,0.7
		s1.9-0.2,2.7-0.7C76.7,40.2,77.3,39.5,77.7,38.7z"/>
	<path class="st2" d="M104.1,26.6v18.2c0,0.2-0.1,0.3-0.2,0.4c-0.1,0.1-0.2,0.2-0.4,0.2h-3.6c-0.2,0-0.3-0.1-0.4-0.2
		c-0.1-0.1-0.2-0.2-0.2-0.4L99.2,42h-0.6c-0.5,1.1-1.2,2-2.3,2.7c-1,0.7-2.2,1.1-3.7,1.1c-1.4,0-2.6-0.3-3.6-1
		c-1.1-0.7-1.9-1.6-2.5-2.8c-0.6-1.2-0.9-2.7-0.9-4.4v-11c0-0.2,0.1-0.3,0.2-0.4c0.1-0.1,0.3-0.2,0.4-0.2H90c0.2,0,0.3,0.1,0.4,0.2
		c0.1,0.1,0.2,0.2,0.2,0.4v10.1c0,1.4,0.4,2.5,1.1,3.3c0.8,0.8,1.8,1.2,3.2,1.2c1.3,0,2.4-0.4,3.2-1.2c0.8-0.8,1.1-1.9,1.1-3.3V26.6
		c0-0.2,0.1-0.3,0.2-0.4c0.1-0.1,0.3-0.2,0.4-0.2h3.8c0.2,0,0.3,0.1,0.4,0.2C104.1,26.3,104.1,26.4,104.1,26.6z"/>
	<path class="st2" d="M125.3,29.4c0.6,1.2,0.9,2.7,0.9,4.4v11c0,0.2-0.1,0.3-0.2,0.4c-0.1,0.1-0.2,0.2-0.4,0.2h-3.8
		c-0.2,0-0.3-0.1-0.4-0.2c-0.1-0.1-0.2-0.3-0.2-0.4V34.8c0-1.4-0.4-2.5-1.1-3.3c-0.8-0.8-1.8-1.2-3.2-1.2c-1.3,0-2.4,0.4-3.2,1.2
		s-1.1,1.9-1.1,3.3v10.1c0,0.2-0.1,0.3-0.2,0.4c-0.1,0.1-0.2,0.2-0.4,0.2h-3.8c-0.2,0-0.3-0.1-0.4-0.2c-0.1-0.1-0.2-0.3-0.2-0.4
		V18.6c0-0.2,0.1-0.3,0.2-0.4c0.1-0.1,0.3-0.2,0.4-0.2h3.8c0.2,0,0.3,0.1,0.4,0.2c0.1,0.1,0.2,0.2,0.2,0.4v10.8h0.6
		c0.5-1.1,1.2-2,2.3-2.7c1-0.7,2.2-1.1,3.7-1.1c1.4,0,2.6,0.3,3.6,1C123.9,27.3,124.7,28.2,125.3,29.4z"/>
	<path class="st2" d="M148.7,43.4V44c0,0.6-0.2,1-0.6,1.3c-0.4,0.2-1,0.4-1.6,0.4c-1,0-1.9-0.3-2.5-0.9c-0.7-0.6-1-1.4-1-2.6v-0.4
		h-0.3c-0.4,1.1-1.1,2.1-2.2,2.9c-1.1,0.8-2.5,1.2-4.3,1.2h-1c-1.9,0-3.5-0.5-4.6-1.5c-1.1-1-1.7-2.4-1.7-4.3c0-1.7,0.5-3,1.5-4
		c1-1,2.5-1.5,4.6-1.6l7.4-0.5v-1c0-0.9-0.1-1.6-0.4-2c-0.2-0.5-0.6-0.8-1.2-1s-1.4-0.3-2.4-0.3c-1.3,0-2.2,0.2-2.8,0.5
		c-0.6,0.3-1,0.8-1.1,1.6c0,0.3-0.2,0.4-0.5,0.4h-3.6c-0.2,0-0.3,0-0.4-0.1c-0.1-0.1-0.1-0.2-0.1-0.4c0.1-3.9,3-5.9,8.7-5.9
		c2.1,0,3.8,0.3,5.1,0.8c1.3,0.5,2.2,1.4,2.7,2.5c0.5,1.1,0.8,2.5,0.8,4.2v6.6c0,0.7,0.1,1.2,0.2,1.5c0.1,0.3,0.3,0.5,0.6,0.7
		c0.3,0.2,0.5,0.4,0.6,0.6C148.6,42.8,148.7,43,148.7,43.4z M141.6,40.4c0.5-0.6,0.7-1.3,0.7-2.2v-1.2l-6.2,0.4
		c-1.7,0.1-2.5,0.9-2.5,2.3c0,1.6,1.1,2.3,3.2,2.3h0.6c0.9,0,1.7-0.1,2.4-0.4C140.6,41.4,141.2,41,141.6,40.4z"/>
	<path class="st2" d="M168.9,26.7l-10.3,25.7c-0.1,0.2-0.1,0.3-0.3,0.4c-0.1,0.1-0.3,0.1-0.4,0.1h-3.8c-0.4,0-0.5-0.1-0.5-0.4
		c0-0.1,0-0.2,0.1-0.3l2.7-6.7l-7.6-18.8c0-0.1-0.1-0.2-0.1-0.3c0-0.3,0.2-0.4,0.5-0.4h3.8c0.2,0,0.3,0,0.4,0.1
		c0.1,0.1,0.2,0.2,0.3,0.4l5.1,13.3l5.1-13.3c0.1-0.2,0.1-0.3,0.3-0.4s0.3-0.1,0.4-0.1h3.8c0.4,0,0.5,0.1,0.5,0.4
		C169,26.5,169,26.6,168.9,26.7z"/>
	<path class="st2" d="M173.6,44.1c-0.3-0.6-0.5-1.2-0.5-1.8s0.2-1.3,0.5-1.8c0.3-0.6,0.8-1,1.3-1.3c0.6-0.3,1.2-0.5,1.8-0.5
		c0.7,0,1.3,0.2,1.8,0.5s1,0.8,1.3,1.3c0.3,0.6,0.5,1.2,0.5,1.8s-0.2,1.3-0.5,1.8c-0.3,0.6-0.8,1-1.3,1.3c-0.6,0.3-1.2,0.5-1.8,0.5
		c-0.7,0-1.3-0.2-1.8-0.5C174.4,45.1,174,44.7,173.6,44.1z M175,34.6l-1.3-12.3c0-0.1,0-0.3,0-0.5c0-1,0.3-1.7,0.9-2.3
		c0.6-0.6,1.3-0.9,2.2-0.9s1.6,0.3,2.2,0.9c0.6,0.6,0.9,1.3,0.9,2.3c0,0.2,0,0.4,0,0.5l-1.3,12.3c0,0.2-0.1,0.3-0.2,0.5
		c-0.1,0.1-0.3,0.2-0.5,0.2h-2.2c-0.2,0-0.3-0.1-0.5-0.2S175,34.8,175,34.6z"/>
</g>
</svg>
