<?xml version="1.0" encoding="utf-8"?>
<!-- Generator: Adobe Illustrator 28.2.0, SVG Export Plug-In . SVG Version: 6.00 Build 0)  -->
<svg version="1.1" id="Layer_1" xmlns="http://www.w3.org/2000/svg" xmlns:xlink="http://www.w3.org/1999/xlink" x="0px" y="0px"
	 viewBox="0 0 198 67.5" style="enable-background:new 0 0 198 67.5;" xml:space="preserve">
<style type="text/css">
	.st0{fill:#FFFFFF;}
	.st1{fill:#26D07C;}
	.st2{fill:#1C1F2A;}
</style>
<path class="st0" d="M53,45.1c-0.7,1.6-2,2.9-3.6,3.6c-3.6,1.6-7,0.6-9.2-1.6c-1.4-1.4-2.2-3.4-2.2-5.5V35c0-0.7,0.6-1.4,1.4-1.4
	h6.5c2.1,0,4.1,0.9,5.5,2.2C53.6,38,54.6,41.5,53,45.1z"/>
<path class="st0" d="M26.1,29.7h6.3c1,0,1.6-0.6,1.6-1.6v-6.4c0-2.1-0.8-4-2.2-5.5c-1.5-1.6-3.5-2.4-5.7-2.4c-1.3,0-2.6,0.3-3.8,0.9
	c-1.4,0.7-2.5,1.8-3.2,3.2c-1.6,3.3-1,7.1,1.5,9.5C22.1,28.9,24,29.7,26.1,29.7z M20.8,18.8c0.5-1,1.3-1.8,2.3-2.3
	c3.1-1.5,5.8-0.4,7.3,1.1c1.1,1.1,1.7,2.6,1.7,4.2v5.6c0,0.2-0.2,0.4-0.4,0.4h-5.6c-1.6,0-3.1-0.6-4.2-1.7
	C20.4,24.6,19.3,21.9,20.8,18.8z"/>
<path class="st1" d="M193.5,33.8c0-16.2-13.4-29.2-29.9-29.2H34.2C17.7,4.5,4.3,17.6,4.3,33.8S17.7,63,34.2,63h129.3h21.2
	c4.8,0,8.7-3.8,8.7-8.5V33.8z"/>
<g>
	<path class="st2" d="M29.9,44.6V22.3c0-0.2,0-0.3,0.1-0.4c0.1-0.1,0.2-0.1,0.4-0.1h3.6c0.2,0,0.3,0,0.4,0.1
		c0.1,0.1,0.2,0.1,0.2,0.3l3.7,16.1h0.2l3.7-16.1c0-0.1,0.1-0.2,0.2-0.3c0.1-0.1,0.3-0.1,0.4-0.1h3.6c0.2,0,0.3,0,0.4,0.1
		c0.1,0.1,0.1,0.2,0.1,0.4v22.3c0,0.2,0,0.3-0.1,0.4c-0.1,0.1-0.2,0.1-0.4,0.1h-2.7c-0.2,0-0.3,0-0.4-0.1c-0.1-0.1-0.1-0.2-0.1-0.4
		V31h-0.2L40.2,43c0,0.1-0.1,0.2-0.2,0.3c-0.1,0.1-0.2,0.1-0.4,0.1h-2.1c-0.2,0-0.3,0-0.4-0.1c-0.1-0.1-0.2-0.2-0.2-0.3L33.9,31
		h-0.2v13.6c0,0.2,0,0.3-0.1,0.4c-0.1,0.1-0.2,0.1-0.4,0.1h-2.7c-0.2,0-0.3,0-0.4-0.1C30,44.9,29.9,44.7,29.9,44.6z"/>
	<path class="st2" d="M66.9,43.3v0.6c0,0.5-0.2,0.9-0.6,1.1c-0.4,0.2-0.9,0.3-1.4,0.3c-0.9,0-1.7-0.3-2.3-0.8
		c-0.6-0.5-0.9-1.3-0.9-2.3V42h-0.3c-0.3,1-1,1.9-2,2.6c-1,0.7-2.2,1-3.8,1h-0.9c-1.7,0-3.1-0.5-4.1-1.4c-1-0.9-1.5-2.2-1.5-3.8
		c0-1.5,0.4-2.7,1.3-3.5c0.9-0.9,2.3-1.3,4.1-1.5l6.6-0.4V34c0-0.8-0.1-1.4-0.3-1.8c-0.2-0.4-0.6-0.7-1.1-0.9s-1.2-0.3-2.1-0.3
		c-1.1,0-2,0.1-2.5,0.4c-0.6,0.3-0.9,0.8-1,1.4c0,0.2-0.2,0.4-0.5,0.4h-3.2c-0.2,0-0.3,0-0.4-0.1c-0.1-0.1-0.1-0.2-0.1-0.4
		c0.1-3.5,2.7-5.2,7.8-5.2c1.9,0,3.4,0.2,4.5,0.7c1.1,0.5,1.9,1.2,2.4,2.2c0.5,1,0.7,2.2,0.7,3.7v5.9c0,0.6,0,1.1,0.1,1.4
		c0.1,0.3,0.3,0.5,0.5,0.7c0.3,0.2,0.4,0.4,0.5,0.5C66.8,42.8,66.9,43,66.9,43.3z M60.6,40.7c0.4-0.5,0.6-1.2,0.6-1.9v-1l-5.5,0.4
		c-1.5,0.1-2.2,0.8-2.2,2c0,1.4,0.9,2.1,2.8,2.1h0.5c0.8,0,1.5-0.1,2.2-0.4C59.7,41.6,60.2,41.2,60.6,40.7z"/>
	<path class="st2" d="M85.7,31.9c0.7,1.4,1,2.9,1,4.7c0,1.7-0.3,3.2-0.9,4.6c-0.6,1.4-1.5,2.4-2.6,3.2s-2.4,1.2-3.9,1.2
		c-1.4,0-2.6-0.3-3.6-1c-1-0.7-1.6-1.6-2-2.6h-0.4L73,44.6c0,0.3-0.2,0.5-0.5,0.5h-2.9c-0.2,0-0.3,0-0.4-0.1
		c-0.1-0.1-0.1-0.2-0.1-0.4V21.3c0-0.2,0-0.3,0.1-0.4c0.1-0.1,0.2-0.1,0.4-0.1h3.3c0.2,0,0.3,0,0.4,0.1c0.1,0.1,0.1,0.2,0.1,0.4v8.3
		c0.5-0.6,1.1-1.1,2-1.5c0.8-0.4,1.8-0.6,3-0.6c1.7,0,3.2,0.4,4.4,1.2C84.1,29.5,85.1,30.5,85.7,31.9z M81.9,39.1
		c0.4-0.7,0.6-1.6,0.6-2.6s-0.2-1.9-0.6-2.6c-0.4-0.7-0.9-1.3-1.6-1.7c-0.7-0.4-1.5-0.6-2.4-0.6s-1.7,0.2-2.4,0.6
		c-0.7,0.4-1.2,1-1.6,1.7c-0.4,0.7-0.6,1.6-0.6,2.6s0.2,1.9,0.6,2.6c0.4,0.7,0.9,1.3,1.6,1.7c0.7,0.4,1.5,0.6,2.4,0.6
		s1.7-0.2,2.4-0.6C80.9,40.5,81.5,39.9,81.9,39.1z"/>
	<path class="st2" d="M105.4,28.4v16.2c0,0.2,0,0.3-0.1,0.4c-0.1,0.1-0.2,0.1-0.4,0.1h-3.2c-0.2,0-0.3,0-0.4-0.1s-0.1-0.2-0.2-0.4
		l-0.1-2.5h-0.5c-0.4,1-1.1,1.8-2,2.4c-0.9,0.6-2,0.9-3.3,0.9c-1.2,0-2.3-0.3-3.2-0.9c-0.9-0.6-1.7-1.4-2.2-2.5
		C89.2,41,89,39.7,89,38.2v-9.8c0-0.2,0-0.3,0.1-0.4c0.1-0.1,0.2-0.1,0.4-0.1h3.3c0.2,0,0.3,0,0.4,0.1c0.1,0.1,0.1,0.2,0.1,0.4v9
		c0,1.3,0.3,2.2,1,3c0.7,0.7,1.6,1.1,2.8,1.1c1.2,0,2.1-0.4,2.8-1.1c0.7-0.7,1-1.7,1-3v-9c0-0.2,0-0.3,0.1-0.4
		c0.1-0.1,0.2-0.1,0.4-0.1h3.3c0.2,0,0.3,0,0.4,0.1C105.3,28.1,105.4,28.2,105.4,28.4z"/>
	<path class="st2" d="M124.2,30.9c0.5,1.1,0.8,2.4,0.8,3.9v9.8c0,0.2,0,0.3-0.1,0.4c-0.1,0.1-0.2,0.1-0.4,0.1h-3.3
		c-0.2,0-0.3,0-0.4-0.1c-0.1-0.1-0.1-0.2-0.1-0.4v-9c0-1.3-0.3-2.2-1-3c-0.7-0.7-1.6-1.1-2.8-1.1c-1.2,0-2.1,0.4-2.8,1.1
		c-0.7,0.7-1,1.7-1,3v9c0,0.2,0,0.3-0.1,0.4c-0.1,0.1-0.2,0.1-0.4,0.1h-3.3c-0.2,0-0.3,0-0.4-0.1c-0.1-0.1-0.1-0.2-0.1-0.4V21.3
		c0-0.2,0-0.3,0.1-0.4c0.1-0.1,0.2-0.1,0.4-0.1h3.3c0.2,0,0.3,0,0.4,0.1c0.1,0.1,0.1,0.2,0.1,0.4v9.6h0.5c0.4-1,1.1-1.8,2-2.4
		c0.9-0.6,2-0.9,3.3-0.9c1.2,0,2.3,0.3,3.2,0.9C122.9,29,123.7,29.8,124.2,30.9z"/>
	<path class="st2" d="M145,43.3v0.6c0,0.5-0.2,0.9-0.6,1.1c-0.4,0.2-0.9,0.3-1.4,0.3c-0.9,0-1.7-0.3-2.3-0.8
		c-0.6-0.5-0.9-1.3-0.9-2.3V42h-0.3c-0.3,1-1,1.9-2,2.6c-1,0.7-2.2,1-3.8,1h-0.9c-1.7,0-3.1-0.5-4.1-1.4c-1-0.9-1.5-2.2-1.5-3.8
		c0-1.5,0.4-2.7,1.3-3.5c0.9-0.9,2.3-1.3,4.1-1.5l6.6-0.4V34c0-0.8-0.1-1.4-0.3-1.8c-0.2-0.4-0.6-0.7-1.1-0.9
		c-0.5-0.2-1.2-0.3-2.1-0.3c-1.1,0-2,0.1-2.5,0.4c-0.6,0.3-0.9,0.8-1,1.4c0,0.2-0.2,0.4-0.5,0.4h-3.2c-0.2,0-0.3,0-0.4-0.1
		c-0.1-0.1-0.1-0.2-0.1-0.4c0.1-3.5,2.7-5.2,7.8-5.2c1.9,0,3.4,0.2,4.5,0.7c1.1,0.5,1.9,1.2,2.4,2.2c0.5,1,0.7,2.2,0.7,3.7v5.9
		c0,0.6,0,1.1,0.1,1.4c0.1,0.3,0.3,0.5,0.5,0.7c0.3,0.2,0.4,0.4,0.5,0.5C145,42.8,145,43,145,43.3z M138.8,40.7
		c0.4-0.5,0.6-1.2,0.6-1.9v-1l-5.5,0.4c-1.5,0.1-2.2,0.8-2.2,2c0,1.4,0.9,2.1,2.8,2.1h0.5c0.8,0,1.5-0.1,2.2-0.4
		C137.8,41.6,138.3,41.2,138.8,40.7z"/>
	<path class="st2" d="M163,28.5l-9.1,22.8c0,0.1-0.1,0.2-0.2,0.3c-0.1,0.1-0.2,0.1-0.4,0.1h-3.3c-0.3,0-0.5-0.1-0.5-0.3
		c0-0.1,0-0.2,0.1-0.2l2.4-6l-6.7-16.7c0-0.1-0.1-0.2-0.1-0.2c0-0.2,0.2-0.3,0.5-0.3h3.3c0.1,0,0.3,0,0.4,0.1
		c0.1,0.1,0.2,0.2,0.2,0.3l4.5,11.9l4.5-11.9c0-0.1,0.1-0.2,0.2-0.3c0.1-0.1,0.2-0.1,0.4-0.1h3.3c0.3,0,0.5,0.1,0.5,0.3
		C163.1,28.3,163.1,28.4,163,28.5z"/>
	<path class="st2" d="M167.2,43.9c-0.3-0.5-0.4-1-0.4-1.6c0-0.6,0.1-1.1,0.4-1.6c0.3-0.5,0.7-0.9,1.2-1.2c0.5-0.3,1-0.4,1.6-0.4
		c0.6,0,1.1,0.1,1.6,0.4c0.5,0.3,0.9,0.7,1.2,1.2c0.3,0.5,0.4,1,0.4,1.6c0,0.6-0.1,1.1-0.4,1.6c-0.3,0.5-0.7,0.9-1.2,1.2
		c-0.5,0.3-1,0.4-1.6,0.4c-0.6,0-1.1-0.1-1.6-0.4C167.9,44.8,167.5,44.4,167.2,43.9z M168.4,35.5l-1.1-10.9c0-0.1,0-0.2,0-0.4
		c0-0.8,0.3-1.5,0.8-2c0.5-0.5,1.2-0.8,2-0.8c0.8,0,1.4,0.3,2,0.8c0.5,0.5,0.8,1.2,0.8,2c0,0.2,0,0.3,0,0.4l-1.1,10.9
		c0,0.2-0.1,0.3-0.2,0.4s-0.3,0.1-0.4,0.1h-2c-0.2,0-0.3,0-0.4-0.1C168.5,35.8,168.4,35.7,168.4,35.5z"/>
</g>
</svg>
