<?xml version="1.0" encoding="utf-8"?>
<!-- Generator: Adobe Illustrator 28.2.0, SVG Export Plug-In . SVG Version: 6.00 Build 0)  -->
<svg version="1.1" id="Layer_1" xmlns="http://www.w3.org/2000/svg" xmlns:xlink="http://www.w3.org/1999/xlink" x="0px" y="0px"
	 viewBox="0 0 72 72" style="enable-background:new 0 0 72 72;" xml:space="preserve">
<style type="text/css">
	.st0{fill:#FED141;}
</style>
<circle class="st0" cx="36" cy="36" r="31.5"/>
<g>
	<path d="M35.3,57.4C23.7,57.1,14,47.4,14.6,35c0.6-12.6,11.3-20.8,22.2-20.4C48.2,15,58,24.5,57.4,37
		C56.8,49.6,46.2,57.9,35.3,57.4z M53.5,36c0-9.7-7.8-17.5-17.5-17.5c-9.6,0-17.4,7.8-17.4,17.4c0,9.7,7.8,17.6,17.5,17.5
		C45.7,53.4,53.5,45.6,53.5,36z"/>
	<path d="M34.9,48c-2.6,0-5.6-1.4-8.2-3.8c-0.6-0.6-0.9-1.2-0.7-2.1c0.5-1.6,2.3-2,3.4-0.9c2.7,2.7,5.9,3.4,9.6,2.3
		c1.3-0.4,2.4-1.1,3.4-2.1c0.9-1,2.1-1.1,3-0.3c0.9,0.9,0.9,2.1-0.1,3.1C42.7,46.7,39.6,48.1,34.9,48z"/>
	<path d="M32,32c0,1.5-1.2,2.7-2.7,2.6c-1.4,0-2.7-1.3-2.6-2.7c0-1.4,1.3-2.6,2.7-2.6C30.8,29.3,32,30.5,32,32z"/>
	<path d="M45.4,32c0,1.5-1.2,2.7-2.7,2.6c-1.4,0-2.7-1.3-2.6-2.7c0-1.4,1.3-2.6,2.7-2.6C44.3,29.3,45.4,30.5,45.4,32z"/>
</g>
</svg>
