<?xml version="1.0" encoding="utf-8"?>
<!-- Generator: Adobe Illustrator 28.2.0, SVG Export Plug-In . SVG Version: 6.00 Build 0)  -->
<svg version="1.1" id="Layer_1" xmlns="http://www.w3.org/2000/svg" xmlns:xlink="http://www.w3.org/1999/xlink" x="0px" y="0px"
	 viewBox="0 0 20 16" style="enable-background:new 0 0 20 16;" xml:space="preserve">
<g>
	<path d="M19.8,8.9H19c0-0.8-0.7-1.5-1.6-1.5h-2.8c-0.1,0-0.2,0-0.2-0.1l-1.3-2.5c-0.3-0.7-1-1.1-1.8-1.1H10V2.5h3.7
		c0.4,0,0.7-0.3,0.7-0.8C14.4,1.3,14,1,13.6,1l-11,0C2.5,1,2.4,0.9,2.4,0.8C2.3,0.3,1.9,0,1.4,0H1v1H0.7C0.3,1,0,1.3,0,1.7
		c0,0.4,0.3,0.8,0.7,0.8h1.7v1.3C1.7,3.9,1.1,4.6,1.1,5.4v2l0,3.5H0.2C0.1,11,0,11.1,0,11.2v2c0,0.1,0.1,0.2,0.2,0.2h1.9
		c0.1,0,0.2,0.1,0.2,0.2C2.4,14.9,3.5,16,4.9,16c1.3,0,2.4-1,2.6-2.3c0-0.1,0.1-0.2,0.2-0.2h4.7c0.1,0,0.2,0.1,0.2,0.2
		c0.1,1.3,1.2,2.3,2.6,2.3c1.4,0,2.6-1.1,2.6-2.5h1c0.1,0,0.2-0.1,0.2-0.2V12h0.8c0.1,0,0.2-0.1,0.2-0.2V9.2
		C20,9.1,19.9,8.9,19.8,8.9z M11.4,5.2c0.2,0,0.4,0.1,0.5,0.3l0.7,1.3c0.1,0.3-0.1,0.6-0.4,0.6H8.7c-0.3,0-0.5-0.2-0.5-0.5V5.5
		c0-0.2,0.1-0.3,0.2-0.3H11.4z M3.9,2.5h4.5v1.2H3.9V2.5z M2.6,5.7c0-0.3,0.2-0.5,0.5-0.5h3.4c0.1,0,0.2,0.1,0.2,0.3v1.4
		c0,0.3-0.2,0.5-0.5,0.5H3c-0.3,0-0.5-0.2-0.5-0.5V5.7z M4.9,14.5c-0.6,0-1.1-0.5-1.1-1.1s0.5-1.1,1.1-1.1c0.6,0,1.1,0.5,1.1,1.1
		S5.5,14.5,4.9,14.5z M15.1,14.5c-0.6,0-1.1-0.5-1.1-1.1s0.5-1.1,1.1-1.1c0.6,0,1.1,0.5,1.1,1.1S15.7,14.5,15.1,14.5z"/>
</g>
</svg>
