<?xml version="1.0" encoding="utf-8"?>
<!-- Generator: Adobe Illustrator 28.2.0, SVG Export Plug-In . SVG Version: 6.00 Build 0)  -->
<svg version="1.1" id="Layer_1" xmlns="http://www.w3.org/2000/svg" xmlns:xlink="http://www.w3.org/1999/xlink" x="0px" y="0px"
	 viewBox="0 0 20 16" style="enable-background:new 0 0 20 16;" xml:space="preserve">
<style type="text/css">
	.st0{fill:#FFFFFF;}
</style>
<g>
	<path class="st0" d="M19.7,8.9h-0.8c0-0.8-0.7-1.5-1.6-1.5h-2.8c-0.1,0-0.2,0-0.2-0.1l-1.3-2.6c-0.3-0.6-0.9-1-1.6-1H9.9V2.5h3.7
		c0.4,0,0.7-0.3,0.7-0.8C14.3,1.3,14,1,13.6,1L2.4,1c0,0,0,0,0,0c0-0.5-0.5-1-1-1H1v1H0.7C0.3,1,0,1.3,0,1.8c0,0.4,0.3,0.8,0.7,0.8
		h1.7v1.3C1.6,3.9,1,4.6,1,5.4v2L1,11H0.2C0.1,11,0,11.1,0,11.2v2.2c0,0,0,0,0,0h2.2C2.3,14.9,3.4,16,4.8,16c1.4,0,2.5-1.1,2.6-2.5
		c0,0,0,0,0.1,0h5c0,0,0,0,0.1,0c0.1,1.4,1.2,2.5,2.6,2.5c1.4,0,2.6-1.1,2.6-2.5h1c0.1,0,0.2-0.1,0.2-0.2V12h0.8
		c0.1,0,0.2-0.1,0.2-0.2V9.2C20,9.1,19.9,8.9,19.7,8.9z M11.3,5.2c0.2,0,0.4,0.1,0.5,0.3l0.8,1.5c0.1,0.2,0,0.3-0.2,0.3H8.5
		c-0.2,0-0.3-0.1-0.3-0.3V5.5c0-0.2,0.1-0.3,0.2-0.3H11.3z M3.9,2.5h4.5v1.2H3.9V2.5z M2.5,5.5c0-0.2,0.1-0.3,0.3-0.3h3.6
		c0.1,0,0.2,0.1,0.2,0.3V7c0,0.2-0.2,0.4-0.4,0.4H2.8c-0.2,0-0.3-0.1-0.3-0.3V5.5z M4.8,14.5c-0.6,0-1.1-0.5-1.1-1.1
		s0.5-1.1,1.1-1.1c0.6,0,1.1,0.5,1.1,1.1S5.4,14.5,4.8,14.5z M15.1,14.5c-0.6,0-1.1-0.5-1.1-1.1s0.5-1.1,1.1-1.1
		c0.6,0,1.1,0.5,1.1,1.1S15.7,14.5,15.1,14.5z M17.4,12h-0.1c-0.5-0.7-1.3-1.2-2.2-1.2c-0.9,0-1.7,0.5-2.2,1.2c0,0,0,0,0,0L7,12
		c0,0,0,0,0,0c-0.5-0.7-1.3-1.2-2.2-1.2c-0.9,0-1.7,0.5-2.2,1.2H2.5V9c0,0,0-0.1,0.2-0.1h14.7c-0.1,0,0,0.1,0,0.1V12z"/>
</g>
</svg>
