<?xml version="1.0" encoding="UTF-8"?><svg id="Layer_1" xmlns="http://www.w3.org/2000/svg" viewBox="0 0 360 360"><defs><style>.cls-1{stroke-width:0px;}</style></defs><path class="cls-1" d="M280.31,200.62h-61.44c-10.08,0-18.25,8.17-18.25,18.25v61.44c0,20.85,8,40.57,22.54,55.54,15.37,15.82,35.8,24.05,57.13,24.05,12.81,0,25.95-2.97,38.52-9.05,13.93-6.74,25.31-18.12,32.05-32.05,16.2-33.5,10.31-71.05-15.01-95.65-14.97-14.53-34.69-22.53-55.54-22.53ZM333.8,310.56c-4.89,10.1-13.14,18.36-23.24,23.24-31.59,15.28-58.84,4.26-73.81-11.15-11.08-11.41-17.18-26.45-17.18-42.34v-56.42c0-2.38,1.93-4.32,4.32-4.32h56.43c15.89,0,30.93,6.1,42.34,17.18,15.41,14.97,26.43,42.23,11.15,73.81Z"/><path class="cls-1" d="M79.06,158.12h60.89c10.02,0,18.17-8.15,18.17-18.17v-60.89c0-20.68-7.94-40.25-22.36-55.1C111.35-1.16,74.11-7,40.87,9.07c-13.82,6.68-25.12,17.98-31.8,31.8C-7,74.11-1.16,111.35,23.96,135.77c14.85,14.41,34.42,22.35,55.09,22.35Z"/><path class="cls-1" d="M270.28,179.44c49.47,0,89.72-40.25,89.72-89.72S319.75,0,270.28,0s-89.72,40.25-89.72,89.72v30.09c0,33.49-27.25,60.74-60.74,60.74h-30.09C40.25,180.56,0,220.81,0,270.28s40.25,89.72,89.72,89.72,89.72-40.25,89.72-89.72v-30.09c0-33.49,27.25-60.74,60.74-60.74h30.09ZM160.5,240.19v30.09c0,39.03-31.75,70.78-70.77,70.78s-70.77-31.75-70.77-70.78,31.75-70.77,70.77-70.77h30.09c43.94,0,79.69-35.75,79.69-79.69v-30.09c0-39.03,31.75-70.78,70.77-70.78s70.77,31.75,70.77,70.78-31.75,70.77-70.77,70.77h-30.09c-43.94,0-79.69,35.75-79.69,79.69Z"/></svg>