<?xml version="1.0" encoding="UTF-8"?><svg id="Layer_1" xmlns="http://www.w3.org/2000/svg" viewBox="0 0 139.5 139.5"><defs><style>.cls-1{fill:#1c1f2a;stroke-width:0px;}</style></defs><path class="cls-1" d="M69.75,7.24c34.34,0,62.28,27.99,62.28,62.39s-27.94,62.39-62.28,62.39S7.47,104.04,7.47,69.64,35.41,7.24,69.75,7.24M69.75,4.27C33.71,4.27,4.5,33.54,4.5,69.64s29.21,65.36,65.25,65.36,65.25-29.26,65.25-65.36S105.79,4.27,69.75,4.27h0Z"/><path class="cls-1" d="M31.04,62.89c.23,0,.43-.15.47-.37l.41-1.99c.02-.12,0-.25-.07-.35-.07-.1-.18-.17-.31-.2l-13.98-2.7c-.12-.02-.25,0-.36.07-.11.07-.18.18-.2.3l-.41,1.99c-.05.25.12.5.38.55l13.98,2.7s.06,0,.09,0Z"/><path class="cls-1" d="M38.01,45.26c.08.09.2.15.33.16,0,0,.02,0,.02,0,.12,0,.23-.04.32-.12l1.56-1.35c.2-.17.22-.47.04-.66l-5.86-6.42,7.47,3.67c.18.09.39.06.53-.07l1.52-1.31c.15-.13.2-.33.13-.51l-2.87-7.65,5.87,6.43c.18.19.48.21.68.04l1.56-1.35c.1-.08.15-.2.16-.32s-.04-.24-.12-.34l-9.46-10.37c-.08-.09-.2-.15-.33-.16-.13,0-.25.03-.35.12l-2.28,1.97c-.15.13-.2.33-.13.51l3.49,9.1-8.88-4.45c-.18-.09-.39-.06-.54.07l-2.3,1.98c-.1.08-.15.2-.16.32s.04.24.12.34l9.46,10.37Z"/><path class="cls-1" d="M67.28,31.15c.27,0,.48-.2.49-.45l.14-5.7,5.77.14-.14,5.7c0,.26.2.47.47.48l2.09.05h0c.12,0,.24-.04.34-.13.09-.09.15-.2.15-.33l.35-13.85c0-.26-.2-.47-.47-.48l-2.09-.05c-.13,0-.25.04-.34.13-.09.09-.15.2-.15.33l-.13,5.34-5.77-.14.13-5.34c0-.12-.04-.24-.13-.33s-.21-.14-.34-.14l-2.09-.05h0c-.26,0-.48.2-.48.45l-.35,13.85c0,.12.04.24.13.33s.21.14.34.14l2.09.05Z"/><path class="cls-1" d="M91.51,37.25c.05,0,.11,0,.16-.03.12-.04.22-.12.28-.24l.82-1.62c.12-.23.02-.51-.22-.62l-6.16-2.93,1.55-3.08,5.6,2.67c.11.05.25.06.37.02.12-.04.22-.12.28-.24l.82-1.63c.06-.11.06-.24.02-.36-.04-.12-.13-.21-.24-.27l-5.6-2.67,1.41-2.8,6.16,2.93c.24.11.52.02.64-.21l.82-1.62c.06-.11.06-.24.02-.36-.04-.12-.13-.21-.24-.27l-8.47-4.03c-.24-.11-.52-.02-.64.21l-6.27,12.44c-.12.23-.02.51.22.62l8.47,4.03c.06.03.14.05.21.05Z"/><path class="cls-1" d="M96.24,40.8c-.01.12.03.25.11.34l1.35,1.55c.17.2.47.22.68.05l4.29-3.52.99,1.14-2.29,6.18c-.06.16-.03.33.08.46l1.55,1.78c.09.1.22.16.36.17.03,0,.06,0,.09,0,.17-.03.31-.15.37-.31l2.23-6.29c1.59.75,3.2.5,4.71-.73,1.09-.9,1.66-1.92,1.69-3.05.03-1.17-.52-2.41-1.63-3.7l-2.85-3.27c-.17-.2-.47-.22-.68-.05l-10.89,8.94c-.1.08-.16.19-.17.32ZM104.8,37.46l2.67-2.2,1.05,1.21c.52.6.81,1.13.87,1.6.06.49-.14.9-.62,1.3-.63.52-1.53.9-2.92-.7l-1.05-1.21Z"/><path class="cls-1" d="M122.9,58.49l-2.71-8.78c-.04-.12-.12-.22-.23-.28-.11-.06-.24-.07-.37-.04l-13.65,3.99c-.25.07-.4.33-.32.58l2.71,8.77c.04.12.12.22.23.28.07.04.15.05.22.06.05,0,.1,0,.14-.02l1.78-.52c.25-.07.4-.33.32-.58l-1.97-6.39,3.38-.99,1.8,5.81c.04.12.12.22.23.28.11.06.24.07.36.04l1.79-.52c.25-.07.4-.33.32-.58l-1.8-5.81,3.08-.9,1.97,6.39c.08.25.34.39.6.31l1.78-.52c.12-.04.22-.12.28-.23.06-.11.07-.24.04-.35Z"/><path class="cls-1" d="M32.95,90.54c.11.23.39.34.63.24l1.7-.73c.12-.05.21-.14.25-.26s.04-.24,0-.36l-4.64-10.13c-.11-.24-.39-.34-.63-.24l-1.7.73c-.12.05-.21.14-.25.26-.05.12-.04.24,0,.36l1.7,3.71-10.89,4.71c-.24.1-.35.38-.24.61l.86,1.87c.05.11.15.2.27.25.05.02.11.03.17.03.07,0,.14-.01.2-.04l10.89-4.71,1.69,3.7Z"/><path class="cls-1" d="M41.97,96.77l-3.14-3.01c-.19-.18-.49-.18-.68,0l-10.01,9.87c-.09.09-.14.21-.14.33,0,.12.05.24.14.33l1.49,1.42c.19.18.49.18.68,0l3.94-3.89,1.09,1.05-1.71,6.36c-.04.16,0,.33.13.45l1.71,1.64c.09.09.21.13.33.13.04,0,.09,0,.14-.02.17-.05.29-.17.34-.34l1.64-6.46c1.65.61,3.24.22,4.62-1.14,1-.99,1.47-2.06,1.4-3.19-.07-1.17-.74-2.36-1.97-3.54ZM36.22,99.89l2.46-2.42,1.16,1.11c.57.55.91,1.06,1.01,1.51.11.48-.05.91-.49,1.35-.58.57-1.44,1.04-2.98-.44h0s-1.16-1.11-1.16-1.11Z"/><path class="cls-1" d="M56.88,105.97l-1.51-.56c-.18-.07-.39-.02-.53.12l-10.25,11.03c-.11.11-.15.27-.11.42s.15.27.3.33l2.14.79c.19.07.4.02.53-.13l1.98-2.24,4.83,1.79-.05,2.95c0,.2.12.37.31.44l2.12.78c.05.02.11.03.17.03.1,0,.2-.03.28-.08.13-.09.21-.23.21-.39l-.1-14.86c0-.19-.12-.36-.31-.43ZM51.38,113.53l3-3.38-.08,4.46-2.92-1.08Z"/><path class="cls-1" d="M77.67,107.95l-2.3.07c-.2,0-.37.13-.44.31l-3.39,9.58-4.06-9.36c-.08-.18-.26-.29-.46-.28l-2.3.07c-.16,0-.31.09-.39.22-.08.13-.1.29-.03.44l6.15,13.67c.08.17.25.28.43.28,0,0,.01,0,.02,0l1.57-.05c.2,0,.37-.13.44-.31l5.22-14.02c.05-.15.03-.31-.06-.43-.09-.12-.24-.2-.4-.19Z"/><path class="cls-1" d="M97.26,113.57c-.11-.23-.4-.33-.64-.22l-6.21,2.85-1.51-3.1,5.64-2.59c.24-.11.34-.39.23-.62l-.8-1.64c-.05-.11-.15-.2-.27-.24-.12-.04-.25-.04-.37.02l-5.64,2.59-1.37-2.82,6.21-2.85c.11-.05.2-.15.25-.26.04-.12.04-.24-.02-.36l-.8-1.64c-.11-.23-.4-.33-.64-.22l-8.53,3.91c-.12.05-.2.15-.25.26-.04.12-.04.24.02.36l6.09,12.53c.08.17.25.27.43.27.07,0,.14-.01.21-.04l8.53-3.91c.11-.05.2-.15.25-.26.04-.12.04-.24-.02-.36l-.8-1.64Z"/><path class="cls-1" d="M111.62,101.12c-.19-.18-.49-.17-.68.01l-4,4.07-8.61-8.01c-.09-.09-.22-.13-.34-.13-.13,0-.25.05-.34.14l-1.44,1.47c-.09.09-.14.21-.13.33s.06.24.15.33l10.3,9.58c.09.08.21.13.33.13,0,0,.01,0,.02,0,.13,0,.25-.05.34-.14l5.78-5.87c.09-.09.14-.21.13-.33s-.06-.24-.15-.33l-1.35-1.25Z"/><path class="cls-1" d="M118.92,83.7c-2.48-1.07-4.4.32-6.1,2-1.56,1.55-2.23,1.9-2.98,1.58-.37-.16-.62-.43-.74-.79-.12-.38-.08-.83.13-1.28.36-.79,1.09-1.24,2.18-1.35.13-.01.25-.08.33-.17s.12-.22.1-.35l-.25-1.87c-.03-.24-.25-.42-.51-.4-2.03.13-3.54,1.16-4.38,2.97-1.16,2.52-.36,4.97,1.93,5.96,2.42,1.05,4.31-.33,5.99-1.97,1.45-1.39,2.23-1.99,3.17-1.59.46.2.77.55.91,1.02.14.48.08,1.04-.17,1.58-.65,1.41-1.85,1.97-3.39,1.58-.13-.03-.27-.01-.38.06-.11.07-.19.18-.21.31l-.37,2c-.04.24.11.47.35.53.49.12.97.19,1.44.19,2.19.02,4.07-1.24,5.11-3.5.6-1.3.71-2.66.32-3.84-.39-1.19-1.28-2.14-2.5-2.66Z"/><path class="cls-1" d="M24.11,49.18l1.86-.5c.31-.08.49-.39.4-.69l-.51-1.8c-.17-.61-.58-1.13-1.15-1.45-.96-.54-2.14-.41-3.02.33-.37.31-.61.74-.7,1.2-.21,1.12.28,2.17,1.25,2.69.57.31,1.24.38,1.87.21Z"/></svg>