<?xml version="1.0" encoding="utf-8"?>
<!-- Generator: Adobe Illustrator 28.2.0, SVG Export Plug-In . SVG Version: 6.00 Build 0)  -->
<svg version="1.1" id="Layer_1" xmlns="http://www.w3.org/2000/svg" xmlns:xlink="http://www.w3.org/1999/xlink" x="0px" y="0px"
	 viewBox="0 0 139.5 139.5" style="enable-background:new 0 0 139.5 139.5;" xml:space="preserve">
<style type="text/css">
	.st0{fill:#FFFFFF;}
</style>
<g>
	<path class="st0" d="M69.8,7.2c34.3,0,62.3,28,62.3,62.4S104.1,132,69.8,132S7.5,104,7.5,69.6S35.4,7.2,69.8,7.2 M69.8,4.3
		c-36,0-65.3,29.3-65.3,65.4S33.7,135,69.8,135S135,105.7,135,69.6S105.8,4.3,69.8,4.3L69.8,4.3z"/>
	<g>
		<g>
			<path class="st0" d="M31,62.9c0.2,0,0.4-0.2,0.5-0.4l0.4-2c0-0.1,0-0.2-0.1-0.3c-0.1-0.1-0.2-0.2-0.3-0.2l-14-2.7
				c-0.1,0-0.3,0-0.4,0.1c-0.1,0.1-0.2,0.2-0.2,0.3l-0.4,2c-0.1,0.3,0.1,0.5,0.4,0.5L31,62.9C31,62.9,31,62.9,31,62.9z"/>
			<path class="st0" d="M38,45.3c0.1,0.1,0.2,0.1,0.3,0.2c0,0,0,0,0,0c0.1,0,0.2,0,0.3-0.1l1.6-1.3c0.2-0.2,0.2-0.5,0-0.7l-5.9-6.4
				l7.5,3.7c0.2,0.1,0.4,0.1,0.5-0.1l1.5-1.3c0.1-0.1,0.2-0.3,0.1-0.5L41.2,31l5.9,6.4c0.2,0.2,0.5,0.2,0.7,0l1.6-1.3
				c0.1-0.1,0.2-0.2,0.2-0.3c0-0.1,0-0.2-0.1-0.3l-9.5-10.4C39.8,25,39.7,25,39.6,25c-0.1,0-0.3,0-0.3,0.1l-2.3,2
				c-0.1,0.1-0.2,0.3-0.1,0.5l3.5,9.1l-8.9-4.5c-0.2-0.1-0.4-0.1-0.5,0.1l-2.3,2c-0.1,0.1-0.2,0.2-0.2,0.3s0,0.2,0.1,0.3L38,45.3z"
				/>
			<path class="st0" d="M67.3,31.1c0.3,0,0.5-0.2,0.5-0.5l0.1-5.7l5.8,0.1l-0.1,5.7c0,0.3,0.2,0.5,0.5,0.5l2.1,0.1c0,0,0,0,0,0
				c0.1,0,0.2,0,0.3-0.1c0.1-0.1,0.1-0.2,0.1-0.3l0.3-13.8c0-0.3-0.2-0.5-0.5-0.5l-2.1-0.1c-0.1,0-0.3,0-0.3,0.1
				c-0.1,0.1-0.1,0.2-0.1,0.3l-0.1,5.3L68,22.2l0.1-5.3c0-0.1,0-0.2-0.1-0.3c-0.1-0.1-0.2-0.1-0.3-0.1l-2.1,0c0,0,0,0,0,0
				c-0.3,0-0.5,0.2-0.5,0.5l-0.3,13.8c0,0.1,0,0.2,0.1,0.3c0.1,0.1,0.2,0.1,0.3,0.1L67.3,31.1z"/>
			<path class="st0" d="M91.5,37.2c0.1,0,0.1,0,0.2,0c0.1,0,0.2-0.1,0.3-0.2l0.8-1.6c0.1-0.2,0-0.5-0.2-0.6l-6.2-2.9l1.6-3.1
				l5.6,2.7c0.1,0.1,0.2,0.1,0.4,0c0.1,0,0.2-0.1,0.3-0.2l0.8-1.6c0.1-0.1,0.1-0.2,0-0.4c0-0.1-0.1-0.2-0.2-0.3l-5.6-2.7l1.4-2.8
				l6.2,2.9c0.2,0.1,0.5,0,0.6-0.2l0.8-1.6c0.1-0.1,0.1-0.2,0-0.4c0-0.1-0.1-0.2-0.2-0.3l-8.5-4c-0.2-0.1-0.5,0-0.6,0.2l-6.3,12.4
				c-0.1,0.2,0,0.5,0.2,0.6l8.5,4C91.4,37.2,91.4,37.2,91.5,37.2z"/>
			<path class="st0" d="M96.2,40.8c0,0.1,0,0.2,0.1,0.3l1.3,1.5c0.2,0.2,0.5,0.2,0.7,0.1l4.3-3.5l1,1.1l-2.3,6.2
				c-0.1,0.2,0,0.3,0.1,0.5l1.6,1.8c0.1,0.1,0.2,0.2,0.4,0.2c0,0,0.1,0,0.1,0c0.2,0,0.3-0.1,0.4-0.3l2.2-6.3
				c1.6,0.8,3.2,0.5,4.7-0.7c1.1-0.9,1.7-1.9,1.7-3.1c0-1.2-0.5-2.4-1.6-3.7l-2.8-3.3c-0.2-0.2-0.5-0.2-0.7-0.1l-10.9,8.9
				C96.3,40.6,96.3,40.7,96.2,40.8z M104.8,37.5l2.7-2.2l1.1,1.2c0.5,0.6,0.8,1.1,0.9,1.6c0.1,0.5-0.1,0.9-0.6,1.3
				c-0.6,0.5-1.5,0.9-2.9-0.7L104.8,37.5z"/>
			<path class="st0" d="M122.9,58.5l-2.7-8.8c0-0.1-0.1-0.2-0.2-0.3c-0.1-0.1-0.2-0.1-0.4,0l-13.7,4c-0.3,0.1-0.4,0.3-0.3,0.6
				l2.7,8.8c0,0.1,0.1,0.2,0.2,0.3c0.1,0,0.1,0.1,0.2,0.1c0,0,0.1,0,0.1,0l1.8-0.5c0.3-0.1,0.4-0.3,0.3-0.6l-2-6.4l3.4-1l1.8,5.8
				c0,0.1,0.1,0.2,0.2,0.3c0.1,0.1,0.2,0.1,0.4,0l1.8-0.5c0.3-0.1,0.4-0.3,0.3-0.6l-1.8-5.8l3.1-0.9l2,6.4c0.1,0.2,0.3,0.4,0.6,0.3
				l1.8-0.5c0.1,0,0.2-0.1,0.3-0.2C122.9,58.7,122.9,58.6,122.9,58.5z"/>
			<path class="st0" d="M33,90.5c0.1,0.2,0.4,0.3,0.6,0.2l1.7-0.7c0.1-0.1,0.2-0.1,0.3-0.3s0-0.2,0-0.4l-4.6-10.1
				c-0.1-0.2-0.4-0.3-0.6-0.2l-1.7,0.7c-0.1,0.1-0.2,0.1-0.3,0.3c0,0.1,0,0.2,0,0.4l1.7,3.7l-10.9,4.7c-0.2,0.1-0.4,0.4-0.2,0.6
				l0.9,1.9c0.1,0.1,0.1,0.2,0.3,0.2c0.1,0,0.1,0,0.2,0c0.1,0,0.1,0,0.2,0l10.9-4.7L33,90.5z"/>
			<path class="st0" d="M42,96.8l-3.1-3c-0.2-0.2-0.5-0.2-0.7,0l-10,9.9c-0.1,0.1-0.1,0.2-0.1,0.3c0,0.1,0.1,0.2,0.1,0.3l1.5,1.4
				c0.2,0.2,0.5,0.2,0.7,0l3.9-3.9l1.1,1l-1.7,6.4c0,0.2,0,0.3,0.1,0.4l1.7,1.6c0.1,0.1,0.2,0.1,0.3,0.1c0,0,0.1,0,0.1,0
				c0.2,0,0.3-0.2,0.3-0.3l1.6-6.5c1.7,0.6,3.2,0.2,4.6-1.1c1-1,1.5-2.1,1.4-3.2C43.9,99.1,43.2,98,42,96.8z M36.2,99.9l2.5-2.4
				l1.2,1.1c0.6,0.5,0.9,1.1,1,1.5c0.1,0.5-0.1,0.9-0.5,1.3c-0.6,0.6-1.4,1-3-0.4h0L36.2,99.9z"/>
			<path class="st0" d="M56.9,106l-1.5-0.6c-0.2-0.1-0.4,0-0.5,0.1l-10.3,11c-0.1,0.1-0.1,0.3-0.1,0.4c0,0.1,0.1,0.3,0.3,0.3
				l2.1,0.8c0.2,0.1,0.4,0,0.5-0.1l2-2.2l4.8,1.8l-0.1,2.9c0,0.2,0.1,0.4,0.3,0.4l2.1,0.8c0.1,0,0.1,0,0.2,0c0.1,0,0.2,0,0.3-0.1
				c0.1-0.1,0.2-0.2,0.2-0.4l-0.1-14.9C57.2,106.2,57.1,106,56.9,106z M51.4,113.5l3-3.4l-0.1,4.5L51.4,113.5z"/>
			<path class="st0" d="M77.7,108l-2.3,0.1c-0.2,0-0.4,0.1-0.4,0.3l-3.4,9.6l-4.1-9.4c-0.1-0.2-0.3-0.3-0.5-0.3l-2.3,0.1
				c-0.2,0-0.3,0.1-0.4,0.2c-0.1,0.1-0.1,0.3,0,0.4l6.2,13.7c0.1,0.2,0.2,0.3,0.4,0.3c0,0,0,0,0,0l1.6,0c0.2,0,0.4-0.1,0.4-0.3
				l5.2-14c0.1-0.1,0-0.3-0.1-0.4C78,108,77.8,107.9,77.7,108z"/>
			<path class="st0" d="M97.3,113.6c-0.1-0.2-0.4-0.3-0.6-0.2l-6.2,2.8l-1.5-3.1l5.6-2.6c0.2-0.1,0.3-0.4,0.2-0.6l-0.8-1.6
				c-0.1-0.1-0.2-0.2-0.3-0.2c-0.1,0-0.3,0-0.4,0l-5.6,2.6l-1.4-2.8l6.2-2.8c0.1-0.1,0.2-0.1,0.2-0.3c0-0.1,0-0.2,0-0.4l-0.8-1.6
				c-0.1-0.2-0.4-0.3-0.6-0.2l-8.5,3.9c-0.1,0.1-0.2,0.1-0.2,0.3c0,0.1,0,0.2,0,0.4l6.1,12.5c0.1,0.2,0.3,0.3,0.4,0.3
				c0.1,0,0.1,0,0.2,0l8.5-3.9c0.1-0.1,0.2-0.1,0.2-0.3c0-0.1,0-0.2,0-0.4L97.3,113.6z"/>
			<path class="st0" d="M111.6,101.1c-0.2-0.2-0.5-0.2-0.7,0l-4,4.1l-8.6-8c-0.1-0.1-0.2-0.1-0.3-0.1c-0.1,0-0.2,0.1-0.3,0.1
				l-1.4,1.5c-0.1,0.1-0.1,0.2-0.1,0.3c0,0.1,0.1,0.2,0.1,0.3l10.3,9.6c0.1,0.1,0.2,0.1,0.3,0.1c0,0,0,0,0,0c0.1,0,0.2-0.1,0.3-0.1
				l5.8-5.9c0.1-0.1,0.1-0.2,0.1-0.3s-0.1-0.2-0.1-0.3L111.6,101.1z"/>
			<path class="st0" d="M118.9,83.7c-2.5-1.1-4.4,0.3-6.1,2c-1.6,1.5-2.2,1.9-3,1.6c-0.4-0.2-0.6-0.4-0.7-0.8
				c-0.1-0.4-0.1-0.8,0.1-1.3c0.4-0.8,1.1-1.2,2.2-1.3c0.1,0,0.2-0.1,0.3-0.2c0.1-0.1,0.1-0.2,0.1-0.3l-0.2-1.9
				c0-0.2-0.3-0.4-0.5-0.4c-2,0.1-3.5,1.2-4.4,3c-1.2,2.5-0.4,5,1.9,6c2.4,1,4.3-0.3,6-2c1.4-1.4,2.2-2,3.2-1.6
				c0.5,0.2,0.8,0.6,0.9,1c0.1,0.5,0.1,1-0.2,1.6c-0.6,1.4-1.8,2-3.4,1.6c-0.1,0-0.3,0-0.4,0.1c-0.1,0.1-0.2,0.2-0.2,0.3l-0.4,2
				c0,0.2,0.1,0.5,0.4,0.5c0.5,0.1,1,0.2,1.4,0.2c2.2,0,4.1-1.2,5.1-3.5c0.6-1.3,0.7-2.7,0.3-3.8C121,85.2,120.1,84.2,118.9,83.7z"
				/>
		</g>
		<path class="st0" d="M24.1,49.2l1.9-0.5c0.3-0.1,0.5-0.4,0.4-0.7l-0.5-1.8c-0.2-0.6-0.6-1.1-1.1-1.4c-1-0.5-2.1-0.4-3,0.3
			c-0.4,0.3-0.6,0.7-0.7,1.2c-0.2,1.1,0.3,2.2,1.3,2.7C22.8,49.3,23.5,49.3,24.1,49.2z"/>
	</g>
</g>
</svg>
