<?xml version="1.0" encoding="utf-8"?>
<!-- Generator: Adobe Illustrator 28.2.0, SVG Export Plug-In . SVG Version: 6.00 Build 0)  -->
<svg version="1.1" id="Layer_1" xmlns="http://www.w3.org/2000/svg" xmlns:xlink="http://www.w3.org/1999/xlink" x="0px" y="0px"
	 viewBox="0 0 148.5 148.5" style="enable-background:new 0 0 148.5 148.5;" xml:space="preserve">
<style type="text/css">
	.st0{fill:#EF3340;}
	.st1{fill:#FFFFFF;}
</style>
<g>
	<circle class="st0" cx="74.2" cy="74.2" r="65.2"/>
	<path class="st1" d="M74.2,9c36,0,65.2,29.2,65.2,65.2s-29.2,65.2-65.2,65.2S9,110.3,9,74.2S38.2,9,74.2,9 M74.2,3
		C35,3,3,35,3,74.2s32,71.2,71.2,71.2s71.2-32,71.2-71.2S113.5,3,74.2,3L74.2,3z"/>
</g>
<g>
	<g>
		<path class="st1" d="M50.8,88H44c-0.1,0-0.2,0.1-0.2,0.2v1.2c0,0.1,0.1,0.2,0.2,0.2h2.4v6.5c0,0.1,0.1,0.2,0.2,0.2h1.4
			c0.1,0,0.2-0.1,0.2-0.2v-6.5h2.4c0.1,0,0.2-0.1,0.2-0.2v-1.2C51,88.1,50.9,88,50.8,88z"/>
		<path class="st1" d="M58.5,92.8c0.9-0.4,1.4-1.2,1.4-2.3c0-1.2-0.5-2.5-3.1-2.5h-2.7c-0.1,0-0.2,0.1-0.2,0.2v8
			c0,0.1,0.1,0.2,0.2,0.2h1.4c0.1,0,0.2-0.1,0.2-0.2v-3.1h0.8l2,3.2c0,0.1,0.1,0.1,0.2,0.1h1.6c0.1,0,0.2,0,0.2-0.1
			c0-0.1,0-0.2,0-0.2L58.5,92.8z M55.7,89.6h0.9c1.2,0,1.4,0.4,1.4,0.9c0,0.4-0.2,0.9-1.4,0.9h-0.9V89.6z"/>
		<path class="st1" d="M68,88.1c0-0.1-0.1-0.1-0.2-0.1h-1.1c-0.1,0-0.2,0.1-0.2,0.1l-3.3,8c0,0.1,0,0.2,0,0.2c0,0.1,0.1,0.1,0.2,0.1
			h1.5c0.1,0,0.2-0.1,0.2-0.2l0.6-1.5h3.1l0.6,1.5c0,0.1,0.1,0.2,0.2,0.2h1.5c0.1,0,0.2,0,0.2-0.1c0-0.1,0.1-0.2,0-0.2L68,88.1z
			 M68.1,93.1h-1.8l0.9-2.3L68.1,93.1z"/>
		<path class="st1" d="M80.6,88H79c-0.1,0-0.2,0.1-0.2,0.1l-2.1,5.3l-2.1-5.3c0-0.1-0.1-0.1-0.2-0.1h-1.5c-0.1,0-0.2,0-0.2,0.1
			c0,0.1-0.1,0.2,0,0.2l3.4,8c0,0.1,0.1,0.1,0.2,0.1h1.1c0.1,0,0.2-0.1,0.2-0.1l3.4-8c0-0.1,0-0.2,0-0.2C80.7,88,80.7,88,80.6,88z"
			/>
		<path class="st1" d="M89.5,88h-5.6c-0.1,0-0.2,0.1-0.2,0.2v8c0,0.1,0.1,0.2,0.2,0.2h5.6c0.1,0,0.2-0.1,0.2-0.2V95
			c0-0.1-0.1-0.2-0.2-0.2h-4v-1.8h3.6c0.1,0,0.2-0.1,0.2-0.2v-1.2c0-0.1-0.1-0.2-0.2-0.2h-3.6v-1.6h4c0.1,0,0.2-0.1,0.2-0.2v-1.2
			C89.7,88.1,89.6,88,89.5,88z"/>
		<path class="st1" d="M98.3,94.8h-3.4v-6.5c0-0.1-0.1-0.2-0.2-0.2h-1.4c-0.1,0-0.2,0.1-0.2,0.2v8c0,0.1,0.1,0.2,0.2,0.2h5
			c0.1,0,0.2-0.1,0.2-0.2V95C98.5,94.9,98.4,94.8,98.3,94.8z"/>
		<path class="st1" d="M105,91.3c-1.2-0.4-1.6-0.7-1.6-1.1c0-0.4,0.4-0.7,0.9-0.7c0.5,0,0.9,0.3,1.2,0.8c0.1,0.1,0.2,0.1,0.3,0.1
			l1.1-0.6c0.1-0.1,0.2-0.2,0.1-0.3c-0.6-1-1.5-1.6-2.7-1.6c-1.7,0-2.8,1-2.8,2.4c0,1.5,1.2,2.2,2.5,2.6c1.1,0.4,1.6,0.7,1.6,1.2
			c0,0.5-0.5,0.9-1.2,0.9c-0.9,0-1.5-0.5-1.6-1.3c0-0.1,0-0.1-0.1-0.2c-0.1,0-0.1,0-0.2,0l-1.4,0.3c-0.1,0-0.2,0.1-0.2,0.3
			c0.3,1.6,1.6,2.6,3.4,2.6c1.8,0,3.1-1.1,3.1-2.6C107.5,92.4,106.3,91.8,105,91.3z"/>
	</g>
	<g>
		<path class="st1" d="M33.7,63.4c-1.1,0-2-0.9-1.9-2c0.1-0.9,0.8-1.7,1.8-1.7c1.1-0.1,2,0.8,2,1.9v1.6c0,0.2-0.2,0.3-0.3,0.3H33.7z
			"/>
		<path class="st1" d="M78.7,67.9c0.4,0.9,0.6,1.9,0.6,3v7.6c0,0.1,0,0.2-0.1,0.3C79.2,79,79.1,79,78.9,79h-2.6
			c-0.1,0-0.2,0-0.3-0.1c-0.1-0.1-0.1-0.2-0.1-0.3v-7c0-1-0.3-1.8-0.8-2.3c-0.5-0.6-1.3-0.8-2.2-0.8c-0.9,0-1.7,0.3-2.2,0.8
			c-0.5,0.6-0.8,1.3-0.8,2.3v7c0,0.1,0,0.2-0.1,0.3C69.8,79,69.7,79,69.5,79h-2.6c-0.1,0-0.2,0-0.3-0.1s-0.1-0.2-0.1-0.3V60.4
			c0-0.1,0-0.2,0.1-0.3s0.2-0.1,0.3-0.1h2.6c0.1,0,0.2,0,0.3,0.1c0.1,0.1,0.1,0.2,0.1,0.3v7.5h0.4c0.3-0.8,0.9-1.4,1.6-1.9
			c0.7-0.5,1.6-0.7,2.6-0.7c1,0,1.8,0.2,2.5,0.7C77.8,66.4,78.3,67.1,78.7,67.9z"/>
		<path class="st1" d="M29.6,71.6v7c0,0.1,0,0.2-0.1,0.3C29.4,79,29.3,79,29.2,79h-2.6c-0.1,0-0.2,0-0.3-0.1
			c-0.1-0.1-0.1-0.2-0.1-0.3V60.4c0-0.1,0-0.2,0.1-0.3c0.1-0.1,0.2-0.1,0.3-0.1h2.6c0.1,0,0.2,0,0.3,0.1c0.1,0.1,0.1,0.2,0.1,0.3
			v7.5V71.6z"/>
		<path class="st1" d="M94.5,73.1c-0.2,0.1-0.4,0.1-0.8,0.1l-8.9,0c0.1,1.1,0.5,1.9,1.3,2.5c0.8,0.6,1.8,0.9,3,0.9
			c0.6,0,1.2-0.1,1.7-0.2c0.5-0.1,1-0.3,1.4-0.6c0.2-0.1,0.3-0.1,0.4-0.1c0.1,0,0.2,0,0.4,0.1s0.3,0.2,0.4,0.4
			c0.3,0.4,0.4,0.7,0.4,0.9c0,0.2-0.1,0.4-0.3,0.5c-0.5,0.5-1.2,0.9-2,1.2s-1.8,0.4-2.8,0.4c-1.4,0-2.7-0.3-3.8-0.9
			C83.8,77.9,83,77,82.4,76c-0.6-1.1-0.9-2.3-0.9-3.7c0-1.4,0.3-2.6,0.9-3.7c0.6-1.1,1.4-1.9,2.4-2.5c1-0.6,2.3-0.9,3.6-0.9
			c1.3,0,2.5,0.3,3.5,0.8c1,0.6,1.7,1.3,2.2,2.3c0.5,1,0.8,2.1,0.8,3.4c0,0.3,0,0.6-0.1,0.8C94.8,72.9,94.6,73,94.5,73.1z
			 M84.9,70.9h7c-0.1-0.9-0.5-1.6-1.1-2.1c-0.6-0.5-1.4-0.7-2.4-0.7c-1,0-1.7,0.2-2.3,0.7C85.5,69.4,85.1,70,84.9,70.9z"/>
		<path class="st1" d="M124.7,73.1c-0.2,0.1-0.4,0.1-0.8,0.1l-8.9,0c0.1,1.1,0.5,1.9,1.3,2.5c0.8,0.6,1.8,0.9,3,0.9
			c0.6,0,1.2-0.1,1.7-0.2c0.5-0.1,1-0.3,1.4-0.6c0.2-0.1,0.3-0.1,0.4-0.1c0.1,0,0.2,0,0.4,0.1c0.1,0.1,0.3,0.2,0.4,0.4
			c0.3,0.4,0.4,0.7,0.4,0.9c0,0.2-0.1,0.4-0.3,0.5c-0.5,0.5-1.2,0.9-2,1.2c-0.8,0.3-1.8,0.4-2.8,0.4c-1.4,0-2.7-0.3-3.8-0.9
			c-1.1-0.6-1.9-1.4-2.5-2.5c-0.6-1.1-0.9-2.3-0.9-3.7c0-1.4,0.3-2.6,0.9-3.7c0.6-1.1,1.4-1.9,2.4-2.5c1-0.6,2.3-0.9,3.6-0.9
			c1.3,0,2.5,0.3,3.5,0.8c1,0.6,1.7,1.3,2.2,2.3c0.5,1,0.8,2.1,0.8,3.4c0,0.3,0,0.6-0.1,0.8C125,72.9,124.9,73,124.7,73.1z
			 M115.1,70.9h7c-0.1-0.9-0.5-1.6-1.1-2.1c-0.6-0.5-1.4-0.7-2.4-0.7c-1,0-1.7,0.2-2.3,0.7C115.7,69.4,115.3,70,115.1,70.9z"/>
		<path class="st1" d="M109.2,67.9c0.4,0.7,0.6,1.5,0.6,2.4c0,0.6-0.1,1.1-0.3,1.3c-0.2,0.3-0.5,0.4-0.9,0.4h-1.5
			c-0.2,0-0.3,0-0.4-0.1c-0.1-0.1-0.2-0.2-0.2-0.4c0-1-0.3-1.7-0.9-2.1c-0.5-0.4-1.2-0.6-2-0.6c-1.1,0-1.9,0.3-2.5,1
			c-0.6,0.7-0.9,1.7-0.9,3v6c0,0.1,0,0.2-0.1,0.3c-0.1,0.1-0.2,0.1-0.3,0.1h-2.6c-0.1,0-0.2,0-0.3-0.1c-0.1-0.1-0.1-0.2-0.1-0.3
			V66.3c0-0.1,0-0.2,0.1-0.3c0.1-0.1,0.2-0.1,0.3-0.1h2.5c0.1,0,0.2,0,0.3,0.1c0.1,0.1,0.1,0.2,0.1,0.3l0.1,2.3h0.5
			c0.3-0.9,0.9-1.6,1.6-2.2c0.8-0.5,1.7-0.8,2.8-0.8c0.9,0,1.8,0.2,2.5,0.6C108.3,66.7,108.8,67.2,109.2,67.9z"/>
		<path class="st1" d="M48.4,78.6c0,0.1,0,0.2-0.1,0.3C48.2,79,48.1,79,48,79h-2.6c-0.1,0-0.2,0-0.3-0.1c-0.1-0.1-0.1-0.2-0.1-0.3
			v-7c0-1-0.3-1.8-0.8-2.3c-0.5-0.6-1.3-0.8-2.2-0.8c-0.9,0-1.7,0.3-2.2,0.8c-0.5,0.6-0.8,1.3-0.8,2.3v7c0,0.1,0,0.2-0.1,0.3
			C38.8,79,38.7,79,38.6,79H36c-0.1,0-0.2,0-0.3-0.1c-0.1-0.1-0.1-0.2-0.1-0.3V66.2c0-0.1,0-0.2,0.1-0.3c0.1-0.1,0.2-0.1,0.3-0.1
			h2.6c0.1,0,0.2,0,0.3,0.1C39,66,39,66.1,39,66.2v1.7l0.4,0c0.3-0.8,0.9-1.4,1.6-1.9c0.7-0.5,1.6-0.7,2.7-0.7c1,0,1.9,0.3,2.6,0.7
			c0.7,0.5,1.4,1,1.8,1.9h0.4c0.3-0.8,1.1-1.6,1.7-1.9c0.7-0.4,1.6-0.7,2.7-0.7c1,0,1.8,0.2,2.5,0.7c0.7,0.5,1.3,1.1,1.7,2
			c0.4,0.9,0.6,1.9,0.6,3v7.6c0,0.1,0,0.2-0.1,0.3C57.6,79,57.5,79,57.4,79h-2.6c-0.1,0-0.2,0-0.3-0.1c-0.1-0.1-0.1-0.2-0.1-0.3v-7
			c0-1-0.3-1.8-0.8-2.3c-0.5-0.6-1.3-0.8-2.2-0.8c-0.9,0-1.7,0.3-2.2,0.8c-0.5,0.6-0.8,1.3-0.8,2.3L48.4,78.6z"/>
	</g>
</g>
</svg>
