<?xml version="1.0" encoding="utf-8"?>
<!-- Generator: Adobe Illustrator 28.2.0, SVG Export Plug-In . SVG Version: 6.00 Build 0)  -->
<svg version="1.1" id="Layer_1" xmlns="http://www.w3.org/2000/svg" xmlns:xlink="http://www.w3.org/1999/xlink" x="0px" y="0px"
	 viewBox="0 0 139.5 139.5" style="enable-background:new 0 0 139.5 139.5;" xml:space="preserve">
<style type="text/css">
	.st0{fill:#EF3340;}
	.st1{fill:#FFFFFF;}
</style>
<ellipse class="st0" cx="69.8" cy="69.7" rx="65.2" ry="65.2"/>
<g>
	<g>
		<path class="st1" d="M47.4,98.5h-6.1c-0.1,0-0.2,0.1-0.2,0.2v1.1c0,0.1,0.1,0.2,0.2,0.2h2.2v5.9c0,0.1,0.1,0.2,0.2,0.2H45
			c0.1,0,0.2-0.1,0.2-0.2V100h2.2c0.1,0,0.2-0.1,0.2-0.2v-1.1C47.6,98.6,47.5,98.5,47.4,98.5z"/>
		<path class="st1" d="M54.4,102.8c0.8-0.4,1.3-1.1,1.3-2.1c0-1-0.5-2.3-2.8-2.3h-2.4c-0.1,0-0.2,0.1-0.2,0.2v7.2
			c0,0.1,0.1,0.2,0.2,0.2h1.3c0.1,0,0.2-0.1,0.2-0.2v-2.8h0.7l1.8,2.9c0,0.1,0.1,0.1,0.2,0.1H56c0.1,0,0.2,0,0.2-0.1
			c0-0.1,0-0.2,0-0.2L54.4,102.8z M51.9,100h0.8c1.1,0,1.2,0.4,1.2,0.8c0,0.4-0.1,0.8-1.2,0.8h-0.8V100z"/>
		<path class="st1" d="M63,98.6c0-0.1-0.1-0.1-0.2-0.1h-1c-0.1,0-0.2,0.1-0.2,0.1l-3,7.2c0,0.1,0,0.1,0,0.2c0,0.1,0.1,0.1,0.2,0.1
			h1.4c0.1,0,0.2-0.1,0.2-0.1l0.5-1.4h2.8l0.5,1.4c0,0.1,0.1,0.1,0.2,0.1h1.4c0.1,0,0.1,0,0.2-0.1c0-0.1,0-0.1,0-0.2L63,98.6z
			 M63.1,103.1h-1.6l0.8-2.1L63.1,103.1z"/>
		<path class="st1" d="M74.3,98.5h-1.4c-0.1,0-0.2,0.1-0.2,0.1l-1.9,4.8l-1.9-4.8c0-0.1-0.1-0.1-0.2-0.1h-1.4c-0.1,0-0.1,0-0.2,0.1
			c0,0.1,0,0.1,0,0.2l3,7.2c0,0.1,0.1,0.1,0.2,0.1h0.9c0.1,0,0.2-0.1,0.2-0.1l3-7.2c0-0.1,0-0.1,0-0.2
			C74.5,98.5,74.4,98.5,74.3,98.5z"/>
		<path class="st1" d="M82.4,98.5h-5c-0.1,0-0.2,0.1-0.2,0.2v7.2c0,0.1,0.1,0.2,0.2,0.2h5c0.1,0,0.2-0.1,0.2-0.2v-1.1
			c0-0.1-0.1-0.2-0.2-0.2h-3.6v-1.6h3.3c0.1,0,0.2-0.1,0.2-0.2v-1.1c0-0.1-0.1-0.2-0.2-0.2h-3.3V100h3.6c0.1,0,0.2-0.1,0.2-0.2v-1.1
			C82.6,98.6,82.5,98.5,82.4,98.5z"/>
		<path class="st1" d="M90.3,104.6h-3.1v-5.9c0-0.1-0.1-0.2-0.2-0.2h-1.3c-0.1,0-0.2,0.1-0.2,0.2v7.2c0,0.1,0.1,0.2,0.2,0.2h4.5
			c0.1,0,0.2-0.1,0.2-0.2v-1.1C90.5,104.7,90.4,104.6,90.3,104.6z"/>
		<path class="st1" d="M96.4,101.5c-1.1-0.4-1.4-0.6-1.4-1c0-0.4,0.4-0.6,0.8-0.6c0.5,0,0.8,0.2,1.1,0.7c0.1,0.1,0.2,0.1,0.3,0.1
			l1-0.6c0.1-0.1,0.1-0.2,0.1-0.3c-0.5-0.9-1.4-1.4-2.5-1.4c-1.5,0-2.6,0.9-2.6,2.2c0,1.4,1.1,1.9,2.3,2.4c1,0.4,1.4,0.6,1.4,1.1
			c0,0.5-0.4,0.8-1.1,0.8c-0.8,0-1.3-0.4-1.5-1.2c0-0.1,0-0.1-0.1-0.1c0,0-0.1,0-0.2,0l-1.2,0.3c-0.1,0-0.2,0.1-0.2,0.2
			c0.2,1.4,1.4,2.3,3.1,2.3c1.6,0,2.8-1,2.8-2.4C98.7,102.5,97.6,101.9,96.4,101.5z"/>
	</g>
	<g>
		<path class="st1" d="M32,76.3c-1,0-1.8-0.8-1.7-1.8c0.1-0.8,0.7-1.5,1.6-1.6c1-0.1,1.8,0.7,1.8,1.7V76c0,0.2-0.1,0.3-0.3,0.3H32z"
			/>
		<path class="st1" d="M72.7,80.4c0.4,0.8,0.6,1.7,0.6,2.7V90c0,0.1,0,0.2-0.1,0.3c-0.1,0.1-0.2,0.1-0.3,0.1h-2.4
			c-0.1,0-0.2,0-0.3-0.1c-0.1-0.1-0.1-0.2-0.1-0.3v-6.3c0-0.9-0.2-1.6-0.7-2.1c-0.5-0.5-1.1-0.8-2-0.8c-0.8,0-1.5,0.3-2,0.8
			c-0.5,0.5-0.7,1.2-0.7,2.1V90c0,0.1,0,0.2-0.1,0.3c-0.1,0.1-0.2,0.1-0.3,0.1H62c-0.1,0-0.2,0-0.3-0.1c-0.1-0.1-0.1-0.2-0.1-0.3
			V73.6c0-0.1,0-0.2,0.1-0.3c0.1-0.1,0.2-0.1,0.3-0.1h2.4c0.1,0,0.2,0,0.3,0.1c0.1,0.1,0.1,0.2,0.1,0.3v6.8h0.4
			c0.3-0.7,0.8-1.3,1.4-1.7c0.6-0.4,1.4-0.7,2.3-0.7c0.9,0,1.6,0.2,2.3,0.6C71.8,79,72.3,79.6,72.7,80.4z"/>
		<path class="st1" d="M28.3,83.7V90c0,0.1,0,0.2-0.1,0.3c-0.1,0.1-0.2,0.1-0.3,0.1h-2.4c-0.1,0-0.2,0-0.3-0.1
			c-0.1-0.1-0.1-0.2-0.1-0.3V73.6c0-0.1,0-0.2,0.1-0.3c0.1-0.1,0.2-0.1,0.3-0.1h2.4c0.1,0,0.2,0,0.3,0.1c0.1,0.1,0.1,0.2,0.1,0.3
			v6.8V83.7z"/>
		<path class="st1" d="M86.9,85.1c-0.2,0.1-0.4,0.1-0.7,0.1l-8.1,0c0.1,1,0.4,1.7,1.1,2.2c0.7,0.5,1.6,0.8,2.7,0.8
			c0.5,0,1.1-0.1,1.5-0.2c0.5-0.1,0.9-0.3,1.3-0.5c0.1-0.1,0.3-0.1,0.4-0.1c0.1,0,0.2,0,0.3,0.1c0.1,0.1,0.2,0.2,0.4,0.4
			c0.3,0.3,0.4,0.6,0.4,0.8c0,0.2-0.1,0.3-0.3,0.5c-0.5,0.4-1.1,0.8-1.8,1.1s-1.6,0.4-2.5,0.4c-1.3,0-2.4-0.3-3.4-0.8
			c-1-0.5-1.7-1.3-2.3-2.2c-0.5-1-0.8-2.1-0.8-3.3c0-1.2,0.3-2.3,0.8-3.3c0.5-1,1.3-1.7,2.2-2.2c0.9-0.5,2-0.8,3.3-0.8
			c1.2,0,2.3,0.3,3.1,0.8c0.9,0.5,1.6,1.2,2,2.1c0.5,0.9,0.7,1.9,0.7,3.1c0,0.3,0,0.5-0.1,0.7C87.1,84.8,87,85,86.9,85.1z
			 M78.2,83.1h6.3c-0.1-0.8-0.4-1.4-1-1.9c-0.5-0.4-1.3-0.6-2.1-0.6c-0.9,0-1.6,0.2-2.1,0.6C78.7,81.7,78.4,82.3,78.2,83.1z"/>
		<path class="st1" d="M114.2,85.1c-0.2,0.1-0.4,0.1-0.7,0.1l-8.1,0c0.1,1,0.4,1.7,1.1,2.2c0.7,0.5,1.6,0.8,2.7,0.8
			c0.5,0,1.1-0.1,1.5-0.2c0.5-0.1,0.9-0.3,1.3-0.5c0.1-0.1,0.3-0.1,0.4-0.1c0.1,0,0.2,0,0.3,0.1s0.2,0.2,0.4,0.4
			c0.3,0.3,0.4,0.6,0.4,0.8c0,0.2-0.1,0.3-0.3,0.5c-0.5,0.4-1.1,0.8-1.8,1.1c-0.8,0.3-1.6,0.4-2.5,0.4c-1.3,0-2.4-0.3-3.4-0.8
			c-1-0.5-1.7-1.3-2.3-2.2c-0.5-1-0.8-2.1-0.8-3.3c0-1.2,0.3-2.3,0.8-3.3c0.5-1,1.3-1.7,2.2-2.2c0.9-0.5,2-0.8,3.3-0.8
			c1.2,0,2.3,0.3,3.1,0.8c0.9,0.5,1.6,1.2,2,2.1c0.5,0.9,0.7,1.9,0.7,3.1c0,0.3,0,0.5-0.1,0.7C114.4,84.8,114.3,85,114.2,85.1z
			 M105.5,83.1h6.3c-0.1-0.8-0.4-1.4-1-1.9c-0.5-0.4-1.3-0.6-2.1-0.6c-0.9,0-1.6,0.2-2.1,0.6C106,81.7,105.7,82.3,105.5,83.1z"/>
		<path class="st1" d="M100.2,80.4c0.3,0.6,0.5,1.4,0.5,2.1c0,0.6-0.1,1-0.3,1.2c-0.2,0.2-0.5,0.4-0.8,0.4h-1.4
			c-0.2,0-0.3,0-0.4-0.1c-0.1-0.1-0.1-0.2-0.2-0.3c0-0.9-0.3-1.5-0.8-1.9c-0.5-0.4-1.1-0.6-1.8-0.6c-1,0-1.7,0.3-2.2,0.9
			c-0.5,0.6-0.8,1.5-0.8,2.8v5.4c0,0.1,0,0.2-0.1,0.3c-0.1,0.1-0.2,0.1-0.3,0.1h-2.3c-0.1,0-0.2,0-0.3-0.1C89,90.4,89,90.3,89,90.2
			V78.9c0-0.1,0-0.2,0.1-0.3c0.1-0.1,0.2-0.1,0.3-0.1h2.2c0.1,0,0.2,0,0.3,0.1c0.1,0.1,0.1,0.2,0.1,0.3L92,81h0.4
			c0.3-0.8,0.8-1.5,1.5-1.9c0.7-0.5,1.5-0.7,2.5-0.7c0.8,0,1.6,0.2,2.2,0.6C99.3,79.2,99.8,79.8,100.2,80.4z"/>
		<path class="st1" d="M45.2,90c0,0.1,0,0.2-0.1,0.3c-0.1,0.1-0.2,0.1-0.3,0.1h-2.4c-0.1,0-0.2,0-0.3-0.1c-0.1-0.1-0.1-0.2-0.1-0.3
			v-6.3c0-0.9-0.2-1.6-0.7-2.1c-0.5-0.5-1.1-0.8-2-0.8c-0.8,0-1.5,0.3-2,0.8c-0.5,0.5-0.7,1.2-0.7,2.1V90c0,0.1,0,0.2-0.1,0.3
			c-0.1,0.1-0.2,0.1-0.3,0.1H34c-0.1,0-0.2,0-0.3-0.1c-0.1-0.1-0.1-0.2-0.1-0.3V78.9c0-0.1,0-0.2,0.1-0.3c0.1-0.1,0.2-0.1,0.3-0.1
			h2.4c0.1,0,0.2,0,0.3,0.1c0.1,0.1,0.1,0.2,0.1,0.3v1.5l0.4,0c0.3-0.7,0.8-1.3,1.4-1.7C39.2,78.2,40,78,41,78
			c0.9,0,1.7,0.2,2.4,0.7c0.7,0.4,1.2,0.9,1.6,1.7h0.4c0.3-0.7,1-1.4,1.5-1.7c0.7-0.4,1.4-0.6,2.5-0.6c0.9,0,1.6,0.2,2.3,0.6
			c0.7,0.4,1.2,1,1.5,1.8s0.6,1.7,0.6,2.7V90c0,0.1,0,0.2-0.1,0.3c-0.1,0.1-0.2,0.1-0.3,0.1H51c-0.1,0-0.2,0-0.3-0.1
			c-0.1-0.1-0.1-0.2-0.1-0.3v-6.3c0-0.9-0.2-1.6-0.7-2.1c-0.5-0.5-1.1-0.8-2-0.8c-0.8,0-1.5,0.3-2,0.8c-0.5,0.5-0.7,1.2-0.7,2.1
			L45.2,90z"/>
	</g>
	<g>
		<path class="st1" d="M79.9,31.7c-4.1,0-7.4,3.3-7.4,7.4v2.8c0,2-0.7,3.8-1.9,5.2c-0.4,0.5-0.8,0.9-1.2,1.2
			c-1.4,1.2-3.3,1.9-5.2,1.9h-2.8c-4.1,0-7.4,3.3-7.4,7.4s3.3,7.4,7.4,7.4s7.4-3.3,7.4-7.4v-2.8c0-2,0.7-3.8,1.9-5.2
			c0.4-0.5,0.8-0.9,1.2-1.2c1.4-1.2,3.3-1.9,5.2-1.9h2.8c4.1,0,7.4-3.3,7.4-7.4S84,31.7,79.9,31.7z"/>
		<path class="st1" d="M86.6,60.9c-0.7,1.5-1.9,2.7-3.4,3.4c-3.3,1.5-6.6,0.6-8.6-1.5c-1.3-1.3-2.1-3.2-2.1-5.2v-6.1
			c0-0.7,0.6-1.3,1.3-1.3h6.1c2,0,3.8,0.8,5.2,2.1C87.1,54.3,88,57.6,86.6,60.9z"/>
		<path class="st1" d="M61.4,46.5h5.9c0.9,0,1.5-0.5,1.5-1.5v-6c0-1.9-0.7-3.8-2.1-5.2c-1.4-1.5-3.3-2.2-5.3-2.2
			c-1.2,0-2.4,0.3-3.6,0.8c-1.3,0.6-2.4,1.7-3,3c-1.5,3.1-1,6.6,1.4,8.9C57.6,45.8,59.4,46.5,61.4,46.5z M56.4,36.3
			c0.5-0.9,1.2-1.7,2.2-2.2c2.9-1.4,5.5-0.4,6.9,1c1,1.1,1.6,2.5,1.6,4v5.3c0,0.2-0.2,0.4-0.4,0.4h-5.2c-1.5,0-2.9-0.6-3.9-1.6
			C56,41.8,55,39.2,56.4,36.3z"/>
	</g>
</g>
</svg>
