<?xml version="1.0" encoding="utf-8"?>
<!-- Generator: Adobe Illustrator 28.2.0, SVG Export Plug-In . SVG Version: 6.00 Build 0)  -->
<svg version="1.1" id="Layer_1" xmlns="http://www.w3.org/2000/svg" xmlns:xlink="http://www.w3.org/1999/xlink" x="0px" y="0px"
	 viewBox="0 0 117 116.6" style="enable-background:new 0 0 117 116.6;" xml:space="preserve">
<style type="text/css">
	.st0{fill:#EF3340;}
</style>
<g>
	<g>
		<path class="st0" d="M19.2,51.2c0.2,0,0.4-0.2,0.5-0.4l0.4-2c0-0.1,0-0.3-0.1-0.4c-0.1-0.1-0.2-0.2-0.3-0.2L5.5,45.5
			c-0.1,0-0.3,0-0.4,0.1c-0.1,0.1-0.2,0.2-0.2,0.3l-0.4,2c-0.1,0.3,0.1,0.5,0.4,0.6L19.2,51.2C19.1,51.2,19.2,51.2,19.2,51.2z"/>
		<path class="st0" d="M26.3,33.3c0.1,0.1,0.2,0.2,0.3,0.2c0,0,0,0,0,0c0.1,0,0.2,0,0.3-0.1l1.6-1.4c0.2-0.2,0.2-0.5,0-0.7l-6-6.5
			l7.6,3.7c0.2,0.1,0.4,0.1,0.5-0.1l1.5-1.3c0.1-0.1,0.2-0.3,0.1-0.5l-2.9-7.8l6,6.5c0.2,0.2,0.5,0.2,0.7,0l1.6-1.4
			c0.1-0.1,0.2-0.2,0.2-0.3s0-0.2-0.1-0.3l-9.6-10.5c-0.1-0.1-0.2-0.2-0.3-0.2c-0.1,0-0.3,0-0.4,0.1l-2.3,2C25,15,25,15.2,25.1,15.3
			l3.5,9.2l-9-4.5C19.4,20,19.2,20,19,20.1l-2.3,2c-0.1,0.1-0.2,0.2-0.2,0.3c0,0.1,0,0.2,0.1,0.3L26.3,33.3z"/>
		<path class="st0" d="M56,19c0.3,0,0.5-0.2,0.5-0.5l0.1-5.8l5.9,0.1l-0.1,5.8c0,0.3,0.2,0.5,0.5,0.5l2.1,0.1c0,0,0,0,0,0
			c0.1,0,0.2,0,0.3-0.1c0.1-0.1,0.1-0.2,0.2-0.3l0.4-14c0-0.3-0.2-0.5-0.5-0.5l-2.1-0.1c-0.1,0-0.3,0-0.3,0.1
			c-0.1,0.1-0.1,0.2-0.2,0.3L62.6,10l-5.9-0.1l0.1-5.4c0-0.1,0-0.2-0.1-0.3C56.6,4.1,56.5,4,56.4,4L54.3,4c0,0,0,0,0,0
			c-0.3,0-0.5,0.2-0.5,0.5l-0.4,14c0,0.1,0,0.2,0.1,0.3c0.1,0.1,0.2,0.1,0.3,0.1L56,19z"/>
		<path class="st0" d="M80.6,25.2c0.1,0,0.1,0,0.2,0c0.1,0,0.2-0.1,0.3-0.2l0.8-1.6c0.1-0.2,0-0.5-0.2-0.6l-6.3-3l1.6-3.1l5.7,2.7
			c0.1,0.1,0.2,0.1,0.4,0c0.1,0,0.2-0.1,0.3-0.2l0.8-1.7c0.1-0.1,0.1-0.2,0-0.4c0-0.1-0.1-0.2-0.2-0.3L78.2,14l1.4-2.8l6.3,3
			c0.2,0.1,0.5,0,0.7-0.2l0.8-1.6c0.1-0.1,0.1-0.2,0-0.4c0-0.1-0.1-0.2-0.2-0.3l-8.6-4.1c-0.2-0.1-0.5,0-0.7,0.2l-6.4,12.6
			c-0.1,0.2,0,0.5,0.2,0.6l8.6,4.1C80.5,25.2,80.5,25.2,80.6,25.2z"/>
		<path class="st0" d="M85.4,28.8c0,0.1,0,0.2,0.1,0.3l1.4,1.6c0.2,0.2,0.5,0.2,0.7,0.1l4.4-3.6l1,1.2l-2.3,6.3
			c-0.1,0.2,0,0.3,0.1,0.5l1.6,1.8c0.1,0.1,0.2,0.2,0.4,0.2c0,0,0.1,0,0.1,0c0.2,0,0.3-0.1,0.4-0.3l2.3-6.4c1.6,0.8,3.3,0.5,4.8-0.7
			c1.1-0.9,1.7-1.9,1.7-3.1c0-1.2-0.5-2.4-1.7-3.7l-2.9-3.3c-0.2-0.2-0.5-0.2-0.7-0.1l-11.1,9.1C85.5,28.5,85.4,28.7,85.4,28.8z
			 M94.1,25.4l2.7-2.2l1.1,1.2c0.5,0.6,0.8,1.1,0.9,1.6c0.1,0.5-0.1,0.9-0.6,1.3c-0.6,0.5-1.6,0.9-3-0.7L94.1,25.4z"/>
		<path class="st0" d="M112.5,46.7l-2.8-8.9c0-0.1-0.1-0.2-0.2-0.3c-0.1-0.1-0.2-0.1-0.4,0l-13.9,4c-0.3,0.1-0.4,0.3-0.3,0.6
			l2.8,8.9c0,0.1,0.1,0.2,0.2,0.3c0.1,0,0.1,0.1,0.2,0.1c0,0,0.1,0,0.1,0l1.8-0.5c0.3-0.1,0.4-0.3,0.3-0.6l-2-6.5l3.4-1l1.8,5.9
			c0,0.1,0.1,0.2,0.2,0.3c0.1,0.1,0.2,0.1,0.4,0l1.8-0.5c0.3-0.1,0.4-0.3,0.3-0.6l-1.8-5.9l3.1-0.9l2,6.5c0.1,0.2,0.3,0.4,0.6,0.3
			l1.8-0.5c0.1,0,0.2-0.1,0.3-0.2C112.5,47,112.5,46.8,112.5,46.7z"/>
		<path class="st0" d="M21.1,79.2c0.1,0.2,0.4,0.3,0.6,0.2l1.7-0.7c0.1-0.1,0.2-0.1,0.3-0.3c0-0.1,0-0.2,0-0.4L19,67.8
			c-0.1-0.2-0.4-0.3-0.6-0.2l-1.7,0.7c-0.1,0.1-0.2,0.1-0.3,0.3c0,0.1,0,0.2,0,0.4l1.7,3.8L7.1,77.5c-0.2,0.1-0.4,0.4-0.2,0.6
			L7.7,80c0.1,0.1,0.1,0.2,0.3,0.2c0.1,0,0.1,0,0.2,0c0.1,0,0.1,0,0.2,0l11.1-4.8L21.1,79.2z"/>
		<path class="st0" d="M30.3,85.5l-3.2-3.1c-0.2-0.2-0.5-0.2-0.7,0l-10.2,10c-0.1,0.1-0.1,0.2-0.1,0.3c0,0.1,0.1,0.2,0.1,0.3
			l1.5,1.4c0.2,0.2,0.5,0.2,0.7,0l4-3.9l1.1,1.1l-1.7,6.4c0,0.2,0,0.3,0.1,0.5l1.7,1.7c0.1,0.1,0.2,0.1,0.3,0.1c0,0,0.1,0,0.1,0
			c0.2,0,0.3-0.2,0.3-0.3l1.7-6.5c1.7,0.6,3.3,0.2,4.7-1.2c1-1,1.5-2.1,1.4-3.2C32.2,88,31.5,86.7,30.3,85.5z M24.4,88.7l2.5-2.5
			l1.2,1.1c0.6,0.6,0.9,1.1,1,1.5c0.1,0.5-0.1,0.9-0.5,1.4c-0.6,0.6-1.5,1.1-3-0.4h0L24.4,88.7z"/>
		<path class="st0" d="M45.4,94.9l-1.5-0.6c-0.2-0.1-0.4,0-0.5,0.1l-10.4,11.2c-0.1,0.1-0.1,0.3-0.1,0.4c0,0.2,0.2,0.3,0.3,0.3
			l2.2,0.8c0.2,0.1,0.4,0,0.5-0.1l2-2.3l4.9,1.8l-0.1,3c0,0.2,0.1,0.4,0.3,0.4l2.2,0.8c0.1,0,0.1,0,0.2,0c0.1,0,0.2,0,0.3-0.1
			c0.1-0.1,0.2-0.2,0.2-0.4l-0.1-15.1C45.7,95.1,45.6,94.9,45.4,94.9z M39.8,102.5l3-3.4l-0.1,4.5L39.8,102.5z"/>
		<path class="st0" d="M66.5,96.9L64.2,97c-0.2,0-0.4,0.1-0.4,0.3l-3.4,9.7l-4.1-9.5c-0.1-0.2-0.3-0.3-0.5-0.3l-2.3,0.1
			c-0.2,0-0.3,0.1-0.4,0.2c-0.1,0.1-0.1,0.3,0,0.4l6.2,13.9c0.1,0.2,0.3,0.3,0.4,0.3c0,0,0,0,0,0l1.6,0c0.2,0,0.4-0.1,0.4-0.3
			L67,97.5c0.1-0.1,0-0.3-0.1-0.4C66.9,97,66.7,96.9,66.5,96.9z"/>
		<path class="st0" d="M86.4,102.6c-0.1-0.2-0.4-0.3-0.6-0.2l-6.3,2.9l-1.5-3.1l5.7-2.6c0.2-0.1,0.3-0.4,0.2-0.6l-0.8-1.7
			c-0.1-0.1-0.2-0.2-0.3-0.2c-0.1,0-0.3,0-0.4,0l-5.7,2.6l-1.4-2.9l6.3-2.9c0.1-0.1,0.2-0.1,0.3-0.3c0-0.1,0-0.2,0-0.4l-0.8-1.7
			c-0.1-0.2-0.4-0.3-0.6-0.2l-8.7,4c-0.1,0.1-0.2,0.1-0.3,0.3c0,0.1,0,0.2,0,0.4l6.2,12.7c0.1,0.2,0.3,0.3,0.4,0.3
			c0.1,0,0.1,0,0.2,0l8.7-4c0.1-0.1,0.2-0.1,0.3-0.3c0-0.1,0-0.2,0-0.4L86.4,102.6z"/>
		<path class="st0" d="M101,90c-0.2-0.2-0.5-0.2-0.7,0l-4.1,4.1L87.5,86c-0.1-0.1-0.2-0.1-0.3-0.1c-0.1,0-0.3,0.1-0.3,0.1l-1.5,1.5
			c-0.1,0.1-0.1,0.2-0.1,0.3s0.1,0.2,0.2,0.3l10.5,9.7c0.1,0.1,0.2,0.1,0.3,0.1c0,0,0,0,0,0c0.1,0,0.3-0.1,0.3-0.1l5.9-6
			c0.1-0.1,0.1-0.2,0.1-0.3s-0.1-0.2-0.2-0.3L101,90z"/>
		<path class="st0" d="M108.4,72.3c-2.5-1.1-4.5,0.3-6.2,2c-1.6,1.6-2.3,1.9-3,1.6c-0.4-0.2-0.6-0.4-0.7-0.8
			c-0.1-0.4-0.1-0.8,0.1-1.3c0.4-0.8,1.1-1.3,2.2-1.4c0.1,0,0.3-0.1,0.3-0.2c0.1-0.1,0.1-0.2,0.1-0.4L101,70c0-0.2-0.3-0.4-0.5-0.4
			c-2.1,0.1-3.6,1.2-4.4,3c-1.2,2.6-0.4,5,2,6c2.5,1.1,4.4-0.3,6.1-2c1.5-1.4,2.3-2,3.2-1.6c0.5,0.2,0.8,0.6,0.9,1
			c0.1,0.5,0.1,1.1-0.2,1.6c-0.7,1.4-1.9,2-3.4,1.6c-0.1,0-0.3,0-0.4,0.1c-0.1,0.1-0.2,0.2-0.2,0.3l-0.4,2c0,0.2,0.1,0.5,0.4,0.5
			c0.5,0.1,1,0.2,1.5,0.2c2.2,0,4.1-1.3,5.2-3.6c0.6-1.3,0.7-2.7,0.3-3.9C110.6,73.8,109.7,72.8,108.4,72.3z"/>
	</g>
	<path class="st0" d="M12.1,37.3l1.9-0.5c0.3-0.1,0.5-0.4,0.4-0.7l-0.5-1.8c-0.2-0.6-0.6-1.1-1.2-1.5c-1-0.6-2.2-0.4-3.1,0.3
		c-0.4,0.3-0.6,0.7-0.7,1.2c-0.2,1.1,0.3,2.2,1.3,2.7C10.8,37.4,11.5,37.5,12.1,37.3z"/>
</g>
</svg>
