<?xml version="1.0" encoding="utf-8"?>
<!-- Generator: Adobe Illustrator 28.2.0, SVG Export Plug-In . SVG Version: 6.00 Build 0)  -->
<svg version="1.1" id="Layer_1" xmlns="http://www.w3.org/2000/svg" xmlns:xlink="http://www.w3.org/1999/xlink" x="0px" y="0px"
	 viewBox="0 0 139.5 139.5" style="enable-background:new 0 0 139.5 139.5;" xml:space="preserve">
<style type="text/css">
	.st0{fill:#EF3340;}
	.st1{fill:#FFFFFF;}
</style>
<ellipse class="st0" cx="69.7" cy="69.8" rx="65.2" ry="65.2"/>
<g>
	<g>
		<path class="st1" d="M46.3,83.5h-6.8c-0.1,0-0.2,0.1-0.2,0.2V85c0,0.1,0.1,0.2,0.2,0.2h2.4v6.5c0,0.1,0.1,0.2,0.2,0.2h1.4
			c0.1,0,0.2-0.1,0.2-0.2v-6.5h2.4c0.1,0,0.2-0.1,0.2-0.2v-1.2C46.5,83.6,46.4,83.5,46.3,83.5z"/>
		<path class="st1" d="M54,88.3c0.9-0.4,1.4-1.2,1.4-2.3c0-1.2-0.5-2.5-3.1-2.5h-2.7c-0.1,0-0.2,0.1-0.2,0.2v8
			c0,0.1,0.1,0.2,0.2,0.2H51c0.1,0,0.2-0.1,0.2-0.2v-3.1h0.8l2,3.2c0,0.1,0.1,0.1,0.2,0.1h1.6c0.1,0,0.2,0,0.2-0.1
			c0-0.1,0-0.2,0-0.2L54,88.3z M51.2,85.2h0.9c1.2,0,1.4,0.4,1.4,0.9c0,0.4-0.2,0.9-1.4,0.9h-0.9V85.2z"/>
		<path class="st1" d="M63.5,83.7c0-0.1-0.1-0.1-0.2-0.1h-1.1c-0.1,0-0.2,0.1-0.2,0.1l-3.3,8c0,0.1,0,0.2,0,0.2
			c0,0.1,0.1,0.1,0.2,0.1h1.5c0.1,0,0.2-0.1,0.2-0.2l0.6-1.5h3.1l0.6,1.5c0,0.1,0.1,0.2,0.2,0.2h1.5c0.1,0,0.2,0,0.2-0.1
			c0-0.1,0.1-0.2,0-0.2L63.5,83.7z M63.6,88.7h-1.8l0.9-2.3L63.6,88.7z"/>
		<path class="st1" d="M76.1,83.5h-1.5c-0.1,0-0.2,0.1-0.2,0.1L72.2,89l-2.1-5.3c0-0.1-0.1-0.1-0.2-0.1h-1.5c-0.1,0-0.2,0-0.2,0.1
			c0,0.1-0.1,0.2,0,0.2l3.4,8c0,0.1,0.1,0.1,0.2,0.1h1.1c0.1,0,0.2-0.1,0.2-0.1l3.3-8c0-0.1,0-0.2,0-0.2
			C76.2,83.6,76.2,83.5,76.1,83.5z"/>
		<path class="st1" d="M85,83.5h-5.6c-0.1,0-0.2,0.1-0.2,0.2v8c0,0.1,0.1,0.2,0.2,0.2H85c0.1,0,0.2-0.1,0.2-0.2v-1.2
			c0-0.1-0.1-0.2-0.2-0.2h-4v-1.8h3.6c0.1,0,0.2-0.1,0.2-0.2v-1.2c0-0.1-0.1-0.2-0.2-0.2H81v-1.6h4c0.1,0,0.2-0.1,0.2-0.2v-1.2
			C85.2,83.6,85.1,83.5,85,83.5z"/>
		<path class="st1" d="M93.8,90.3h-3.4v-6.5c0-0.1-0.1-0.2-0.2-0.2h-1.4c-0.1,0-0.2,0.1-0.2,0.2v8c0,0.1,0.1,0.2,0.2,0.2h5
			c0.1,0,0.2-0.1,0.2-0.2v-1.2C94,90.4,93.9,90.3,93.8,90.3z"/>
		<path class="st1" d="M100.5,86.8c-1.2-0.4-1.6-0.7-1.6-1.1c0-0.4,0.4-0.7,0.9-0.7c0.5,0,0.9,0.3,1.2,0.8c0.1,0.1,0.2,0.1,0.3,0.1
			l1.1-0.6c0.1-0.1,0.2-0.2,0.1-0.3c-0.6-1-1.5-1.6-2.7-1.6c-1.7,0-2.8,1-2.8,2.4c0,1.5,1.2,2.2,2.5,2.6c1.1,0.4,1.6,0.7,1.6,1.2
			c0,0.5-0.5,0.9-1.2,0.9c-0.9,0-1.5-0.5-1.6-1.3c0-0.1,0-0.1-0.1-0.2c-0.1,0-0.1,0-0.2,0l-1.4,0.3c-0.1,0-0.2,0.1-0.2,0.3
			c0.3,1.6,1.6,2.6,3.4,2.6c1.8,0,3.1-1.1,3.1-2.6C103,88,101.8,87.3,100.5,86.8z"/>
	</g>
	<g>
		<path class="st1" d="M29.2,59c-1.1,0-2-0.9-1.9-2c0.1-0.9,0.8-1.7,1.8-1.7c1.1-0.1,2,0.8,2,1.9v1.6c0,0.2-0.2,0.3-0.3,0.3H29.2z"
			/>
		<path class="st1" d="M74.2,63.5c0.4,0.9,0.6,1.9,0.6,3v7.6c0,0.1,0,0.2-0.1,0.3c-0.1,0.1-0.2,0.1-0.3,0.1h-2.6
			c-0.1,0-0.2,0-0.3-0.1c-0.1-0.1-0.1-0.2-0.1-0.3v-7c0-1-0.3-1.7-0.8-2.3c-0.5-0.6-1.3-0.8-2.2-0.8c-0.9,0-1.7,0.3-2.2,0.8
			c-0.5,0.6-0.8,1.3-0.8,2.3v7c0,0.1,0,0.2-0.1,0.3c-0.1,0.1-0.2,0.1-0.3,0.1h-2.6c-0.1,0-0.2,0-0.3-0.1c-0.1-0.1-0.1-0.2-0.1-0.3
			V56c0-0.1,0-0.2,0.1-0.3c0.1-0.1,0.2-0.1,0.3-0.1H65c0.1,0,0.2,0,0.3,0.1c0.1,0.1,0.1,0.2,0.1,0.3v7.5h0.4
			c0.3-0.8,0.9-1.4,1.6-1.9c0.7-0.5,1.6-0.7,2.6-0.7c1,0,1.8,0.2,2.5,0.7C73.3,62,73.8,62.6,74.2,63.5z"/>
		<path class="st1" d="M25.1,67.2v7c0,0.1,0,0.2-0.1,0.3c-0.1,0.1-0.2,0.1-0.3,0.1h-2.6c-0.1,0-0.2,0-0.3-0.1s-0.1-0.2-0.1-0.3V56
			c0-0.1,0-0.2,0.1-0.3c0.1-0.1,0.2-0.1,0.3-0.1h2.6c0.1,0,0.2,0,0.3,0.1c0.1,0.1,0.1,0.2,0.1,0.3v7.5V67.2z"/>
		<path class="st1" d="M90,68.7c-0.2,0.1-0.4,0.1-0.8,0.1l-8.9,0c0.1,1.1,0.5,1.9,1.3,2.5c0.8,0.6,1.8,0.9,3,0.9
			c0.6,0,1.2-0.1,1.7-0.2c0.5-0.1,1-0.3,1.4-0.6c0.2-0.1,0.3-0.1,0.4-0.1c0.1,0,0.2,0,0.4,0.1c0.1,0.1,0.3,0.2,0.4,0.4
			c0.3,0.4,0.4,0.7,0.4,0.9c0,0.2-0.1,0.4-0.3,0.5c-0.5,0.5-1.2,0.9-2,1.2s-1.8,0.4-2.8,0.4c-1.4,0-2.7-0.3-3.8-0.9
			c-1.1-0.6-1.9-1.4-2.5-2.5c-0.6-1.1-0.9-2.3-0.9-3.7c0-1.4,0.3-2.6,0.9-3.6c0.6-1.1,1.4-1.9,2.4-2.5c1-0.6,2.3-0.9,3.6-0.9
			c1.3,0,2.5,0.3,3.5,0.8c1,0.6,1.7,1.3,2.2,2.3c0.5,1,0.8,2.1,0.8,3.4c0,0.3,0,0.6-0.1,0.8C90.3,68.4,90.1,68.6,90,68.7z
			 M80.4,66.5h7c-0.1-0.9-0.5-1.6-1.1-2.1c-0.6-0.5-1.4-0.7-2.4-0.7c-1,0-1.7,0.2-2.3,0.7C81,64.9,80.6,65.6,80.4,66.5z"/>
		<path class="st1" d="M120.2,68.7c-0.2,0.1-0.4,0.1-0.8,0.1l-8.9,0c0.1,1.1,0.5,1.9,1.3,2.5c0.8,0.6,1.8,0.9,3,0.9
			c0.6,0,1.2-0.1,1.7-0.2c0.5-0.1,1-0.3,1.4-0.6c0.2-0.1,0.3-0.1,0.4-0.1c0.1,0,0.2,0,0.4,0.1c0.1,0.1,0.3,0.2,0.4,0.4
			c0.3,0.4,0.4,0.7,0.4,0.9c0,0.2-0.1,0.4-0.3,0.5c-0.5,0.5-1.2,0.9-2,1.2c-0.8,0.3-1.8,0.4-2.8,0.4c-1.4,0-2.7-0.3-3.8-0.9
			c-1.1-0.6-1.9-1.4-2.5-2.5c-0.6-1.1-0.9-2.3-0.9-3.7c0-1.4,0.3-2.6,0.9-3.6c0.6-1.1,1.4-1.9,2.4-2.5c1-0.6,2.3-0.9,3.6-0.9
			c1.3,0,2.5,0.3,3.5,0.8c1,0.6,1.7,1.3,2.2,2.3c0.5,1,0.8,2.1,0.8,3.4c0,0.3,0,0.6-0.1,0.8C120.5,68.4,120.4,68.6,120.2,68.7z
			 M110.6,66.5h7c-0.1-0.9-0.5-1.6-1.1-2.1c-0.6-0.5-1.4-0.7-2.4-0.7c-1,0-1.7,0.2-2.3,0.7C111.2,64.9,110.8,65.6,110.6,66.5z"/>
		<path class="st1" d="M104.7,63.5c0.4,0.7,0.6,1.5,0.6,2.4c0,0.6-0.1,1.1-0.3,1.3c-0.2,0.3-0.5,0.4-0.9,0.4h-1.5
			c-0.2,0-0.3,0-0.4-0.1s-0.2-0.2-0.2-0.4c0-1-0.3-1.7-0.9-2.1s-1.2-0.6-2-0.6c-1.1,0-1.9,0.3-2.5,1c-0.6,0.7-0.9,1.7-0.9,3v6
			c0,0.1,0,0.2-0.1,0.3c-0.1,0.1-0.2,0.1-0.3,0.1h-2.6c-0.1,0-0.2,0-0.3-0.1c-0.1-0.1-0.1-0.2-0.1-0.3V61.9c0-0.1,0-0.2,0.1-0.3
			c0.1-0.1,0.2-0.1,0.3-0.1h2.5c0.1,0,0.2,0,0.3,0.1c0.1,0.1,0.1,0.2,0.1,0.3l0.1,2.3h0.5c0.3-0.9,0.9-1.6,1.6-2.2s1.7-0.8,2.8-0.8
			c0.9,0,1.8,0.2,2.5,0.6C103.8,62.2,104.3,62.8,104.7,63.5z"/>
		<path class="st1" d="M43.9,74.2c0,0.1,0,0.2-0.1,0.3c-0.1,0.1-0.2,0.1-0.3,0.1h-2.6c-0.1,0-0.2,0-0.3-0.1
			c-0.1-0.1-0.1-0.2-0.1-0.3v-7c0-1-0.3-1.7-0.8-2.3c-0.5-0.6-1.3-0.8-2.2-0.8c-0.9,0-1.7,0.3-2.2,0.8c-0.5,0.6-0.8,1.3-0.8,2.3v7
			c0,0.1,0,0.2-0.1,0.3c-0.1,0.1-0.2,0.1-0.3,0.1h-2.6c-0.1,0-0.2,0-0.3-0.1s-0.1-0.2-0.1-0.3V61.8c0-0.1,0-0.2,0.1-0.3
			c0.1-0.1,0.2-0.1,0.3-0.1h2.6c0.1,0,0.2,0,0.3,0.1c0.1,0.1,0.1,0.2,0.1,0.3v1.7l0.4,0c0.3-0.8,0.9-1.4,1.6-1.9
			c0.7-0.5,1.6-0.7,2.7-0.7c1,0,1.9,0.3,2.6,0.7c0.7,0.5,1.4,1,1.8,1.9H44c0.3-0.8,1.1-1.6,1.7-1.9c0.7-0.4,1.6-0.7,2.7-0.7
			c1,0,1.8,0.2,2.5,0.7c0.7,0.5,1.3,1.1,1.7,2c0.4,0.9,0.6,1.9,0.6,3v7.6c0,0.1,0,0.2-0.1,0.3c-0.1,0.1-0.2,0.1-0.3,0.1h-2.6
			c-0.1,0-0.2,0-0.3-0.1c-0.1-0.1-0.1-0.2-0.1-0.3v-7c0-1-0.3-1.7-0.8-2.3c-0.5-0.6-1.3-0.8-2.2-0.8c-0.9,0-1.7,0.3-2.2,0.8
			c-0.5,0.6-0.8,1.3-0.8,2.3L43.9,74.2z"/>
	</g>
</g>
</svg>
